ply
format ascii 1.0
comment VCGLIB generated
element vertex 262
property float x
property float y
property float z
property float nx
property float ny
property float nz
property uchar red
property uchar green
property uchar blue
property uchar alpha
property float texture_u
property float texture_v
element face 501
property list uchar int vertex_indices
end_header
0.012851 0.36092 2.45013 -0.2977201 -4.292974 2.30052 255 255 255 255 0.465200 0.586225
0.006117 0.630447 2.50219 -0.3471635 -3.070854 2.682348 255 255 255 255 0.465269 0.586218
-0.024918 0.630355 2.50825 0.5192045 -3.681305 2.600445 255 255 255 255 0.465268 0.586233
-0.018184 0.360827 2.4562 1.317347 -3.869071 2.474348 255 255 255 255 0.465154 0.586445
-0.055953 0.630262 2.51432 1.705021 -2.552757 1.981512 255 255 255 255 0.465269 0.586247
-0.05049 0.350643 2.47209 2.166484 -3.821054 1.414765 255 255 255 255 0.465125 0.586645
-0.069719 0.629986 2.54279 2.423537 -3.163178 0.642127 255 255 255 255 0.465275 0.586252
-0.062973 0.350459 2.49064 3.07333 -3.469723 1.256204 255 255 255 255 0.465104 0.586763
-0.083474 0.619709 2.57116 3.010001 -1.211451 0.05859083 255 255 255 255 0.465283 0.586262
-0.076728 0.340182 2.51902 2.904499 -3.652632 -0.4312857 255 255 255 255 0.465126 0.586839
-0.077394 0.609433 2.60211 3.382574 0.203453 -0.6321705 255 255 255 255 0.465294 0.586265
-0.070659 0.339906 2.55005 3.574849 -2.839625 -1.083463 255 255 255 255 0.465202 0.586782
-0.071325 0.609156 2.63314 2.073071 0.3711798 -1.707207 255 255 255 255 0.465305 0.586254
-0.064579 0.329629 2.581 2.397472 -3.429125 -2.185635 255 255 255 255 0.465305 0.586696
-0.042856 0.609064 2.64691 1.381045 0.4935035 -2.77796 255 255 255 255 0.465311 0.586239
-0.037393 0.329445 2.60468 1.513503 -3.194603 -3.21547 255 255 255 255 0.465409 0.586476
-0.014387 0.608972 2.66067 0.3363177 0.4878898 -2.827152 255 255 255 255 0.465315 0.586225
-0.007641 0.329445 2.60853 0.4041238 -2.581062 -3.506672 255 255 255 255 0.465461 0.586231
0.016648 0.609064 2.6546 -0.5637592 0.5001572 -3.049666 255 255 255 255 0.465317 0.586209
0.022111 0.329445 2.61238 -0.574637 -3.192504 -3.537528 255 255 255 255 0.465503 0.585987
0.047683 0.609156 2.64854 -1.602989 0.3177823 -2.182151 255 255 255 255 0.465317 0.586194
0.054429 0.329629 2.59639 -1.980098 -3.408966 -2.716311 255 255 255 255 0.465487 0.585756
0.061449 0.609433 2.62007 -3.112582 0.2022766 -1.467675 255 255 255 255 0.465310 0.586181
0.068184 0.339906 2.56802 -3.072313 -2.820334 -2.089992 255 255 255 255 0.465426 0.585654
0.075204 0.619709 2.59169 -2.925164 -1.208692 -0.7103639 255 255 255 255 0.465298 0.586180
0.08195 0.340182 2.53955 -2.730642 -3.706786 -0.8534227 255 255 255 255 0.465381 0.585591
0.069124 0.629986 2.56075 -2.508616 -3.176024 -0.006539166 255 255 255 255 0.465287 0.586188
0.07587 0.350459 2.50861 -3.327374 -3.405912 0.1868686 255 255 255 255 0.465335 0.585670
0.063055 0.630262 2.52972 -2.118807 -2.520514 1.517651 255 255 255 255 0.465280 0.586191
0.068518 0.350643 2.48749 -2.179252 -3.854805 0.9857828 255 255 255 255 0.465306 0.585799
0.034586 0.630355 2.51595 -1.203403 -3.620793 2.374646 255 255 255 255 0.465274 0.586204
0.04132 0.360827 2.4639 -2.046373 -3.910063 2.043383 255 255 255 255 0.465251 0.586002
-0.153835 0.329629 2.56945 -2.323187 -4.915068 -0.02434007 255 255 255 255 0.465179 0.587316
-0.156066 0.340182 2.50875 -2.240673 -4.942429 -1.360087 255 255 255 255 0.464927 0.587261
-0.120569 0.319169 2.62407 -1.604092 -5.243906 0.5040699 255 255 255 255 0.465506 0.587105
-0.076114 0.3188 2.67016 -0.9111532 -5.51168 1.331096 255 255 255 255 0.465836 0.586783
-0.017893 0.318707 2.68777 -0.2340301 -5.704103 1.35792 255 255 255 255 0.465997 0.586317
0.042894 0.3188 2.68555 0.5158523 -5.586128 1.463717 255 255 255 255 0.466001 0.585830
0.097613 0.319169 2.6523 1.362462 -5.353096 0.9111509 255 255 255 255 0.465801 0.585431
0.143685 0.329629 2.60794 2.388096 -4.85794 0.3166687 255 255 255 255 0.465571 0.585146
0.161289 0.340183 2.54981 2.456766 -5.023633 -0.4411066 255 255 255 255 0.465329 0.585139
0.159058 0.350736 2.48912 2.506362 -4.426758 -1.694592 255 255 255 255 0.465160 0.585265
0.125791 0.361196 2.43449 1.848729 -4.500226 -2.532924 255 255 255 255 0.465061 0.585532
0.080042 0.371473 2.39842 1.360868 -4.986537 -2.788935 255 255 255 255 0.464979 0.585843
0.023103 0.371657 2.37089 0.2486756 -4.292581 -3.172152 255 255 255 255 0.464883 0.586161
-0.038967 0.371473 2.38302 -0.3207382 -4.958985 -3.093795 255 255 255 255 0.464826 0.586490
-0.09239 0.361196 2.40627 -1.072577 -4.672601 -2.869905 255 255 255 255 0.464774 0.586813
-0.138463 0.350735 2.45063 -2.143146 -4.426802 -2.032698 255 255 255 255 0.464783 0.587098
0.022855 0.581648 2.37281 0.6200892 1.897303 -5.89436 255 255 255 255 0.464701 0.586055
-0.057755 0.571556 2.37237 -1.529819 1.969971 -5.646132 255 255 255 255 0.464211 0.586543
-0.060416 0.651368 2.39293 -0.7198535 -2.80394 -3.491121 255 255 255 255 0.464171 0.586240
0.021489 0.651553 2.38336 0.4041476 -2.998918 -3.764369 255 255 255 255 0.465172 0.586063
-0.123674 0.571095 2.41425 -4.035132 1.829579 -4.325929 255 255 255 255 0.463500 0.587136
-0.12504 0.641 2.42481 -1.989114 -3.054388 -3.123916 255 255 255 255 0.462873 0.586849
-0.171018 0.550542 2.46844 -5.338148 1.620249 -2.706488 255 255 255 255 0.463159 0.588110
-0.172395 0.630447 2.47909 -2.865643 -3.232009 -2.259165 255 255 255 255 0.461571 0.588374
-0.201104 0.539805 2.54512 -6.057815 0.9835094 -0.5806716 255 255 255 255 0.463278 0.589251
-0.202482 0.619709 2.55577 -3.048359 -1.78274 -0.7301176 255 255 255 255 0.460854 0.590732
-0.190239 0.52916 2.61701 -5.923988 0.6508105 1.761763 255 255 255 255 0.464651 0.589783
-0.192899 0.608972 2.63758 -2.908158 -0.2985207 0.8716695 255 255 255 255 0.464312 0.592160
-0.159538 0.518514 2.69147 -4.926501 0.3847755 3.713637 255 255 255 255 0.466432 0.589471
-0.160916 0.598419 2.70212 -2.461422 -0.3298187 1.749622 255 255 255 255 0.467234 0.591557
-0.105154 0.508146 2.73875 -2.981538 -0.002156779 5.422346 255 255 255 255 0.467642 0.588341
-0.106532 0.58805 2.74939 -1.668118 -0.3870602 2.690105 255 255 255 255 0.469326 0.589715
-0.027099 0.508054 2.75893 -0.716704 -0.2714348 6.168537 255 255 255 255 0.468392 0.586684
-0.029759 0.587866 2.77949 -0.2883931 -0.6570336 2.869055 255 255 255 255 0.470580 0.587027
0.053523 0.508146 2.75927 1.396583 0.1305777 6.026157 255 255 255 255 0.468192 0.584876
0.052146 0.58805 2.76992 0.8328335 -0.4842659 3.020139 255 255 255 255 0.470225 0.584071
0.118147 0.518514 2.7274 3.80808 0.3583294 4.862501 255 255 255 255 0.467384 0.583425
0.11677 0.598419 2.73804 1.899193 -0.2826845 2.368045 255 255 255 255 0.468783 0.581640
0.166786 0.52916 2.6632 5.342333 0.6213341 3.116451 255 255 255 255 0.465768 0.582601
0.164125 0.608972 2.68377 2.633273 -0.2506774 1.530435 255 255 255 255 0.466111 0.580142
0.19559 0.539805 2.59644 5.98072 1.007709 1.106358 255 255 255 255 0.464320 0.582753
0.194212 0.619709 2.60709 3.046542 -1.825181 0.1702416 255 255 255 255 0.462204 0.580507
0.186007 0.550542 2.51463 5.813307 1.69214 -1.332409 255 255 255 255 0.464101 0.583980
0.184629 0.630447 2.52528 3.357163 -3.216497 -1.569508 255 255 255 255 0.462827 0.583677
0.154012 0.571095 2.45018 4.901397 1.802738 -3.32535 255 255 255 255 0.464355 0.584947
0.152646 0.641 2.46074 2.716838 -3.107307 -2.635366 255 255 255 255 0.464178 0.585133
0.100923 0.571556 2.3929 3.267088 1.783868 -4.897406 255 255 255 255 0.464682 0.585554
0.098262 0.651368 2.41346 1.756162 -2.810548 -3.127179 255 255 255 255 0.464868 0.585691
-0.106366 0.448056 2.74811 -2.641095 -0.03704165 5.299029 255 255 255 255 0.466990 0.587641
-0.028299 0.437964 2.7682 -0.8150135 -0.2666219 6.000348 255 255 255 255 0.467311 0.586518
-0.105012 0.388151 2.73765 -2.605047 -2.108878 4.774946 255 255 255 255 0.466475 0.587241
-0.026956 0.388059 2.75783 -0.6570535 -2.077379 5.687078 255 255 255 255 0.466785 0.586438
-0.101116 0.34843 2.70753 -2.423478 -4.256061 3.389158 255 255 255 255 0.466115 0.587050
-0.024343 0.348245 2.73763 -0.4461221 -3.909813 4.264861 255 255 255 255 0.466417 0.586382
-0.179302 0.458517 2.68836 -4.697205 0.2979339 3.475801 255 255 255 255 0.466012 0.588557
-0.177948 0.398612 2.67789 -4.492846 -1.973688 2.94933 255 255 255 255 0.465796 0.587936
-0.1555 0.358798 2.66026 -3.887704 -4.084079 2.186749 255 255 255 255 0.465701 0.587521
-0.210002 0.469162 2.6139 -5.783342 0.6433305 1.626832 255 255 255 255 0.464936 0.588781
-0.208648 0.409257 2.60343 -5.505391 -1.792318 1.200454 255 255 255 255 0.465086 0.588117
-0.1862 0.369443 2.5858 -4.874252 -3.715437 0.8332677 255 255 255 255 0.465132 0.587697
-0.219585 0.4799 2.53209 -5.813491 0.9093171 -0.5432565 255 255 255 255 0.464077 0.588459
-0.218231 0.419995 2.52162 -5.545245 -1.310683 -0.8271872 255 255 255 255 0.464505 0.587950
-0.197066 0.380089 2.51391 -4.786292 -3.262716 -1.237981 255 255 255 255 0.464726 0.587619
-0.188227 0.500729 2.44558 -5.181007 1.545861 -2.517957 255 255 255 255 0.463792 0.587782
-0.186873 0.440824 2.43512 -5.033534 -0.9616067 -2.971496 255 255 255 255 0.464242 0.587511
-0.166991 0.400826 2.43732 -4.377331 -2.95743 -3.214436 255 255 255 255 0.464504 0.587300
-0.139589 0.511374 2.38139 -3.488082 1.695646 -4.247749 255 255 255 255 0.464002 0.587132
-0.138235 0.451469 2.37092 -3.087383 -0.825495 -4.481305 255 255 255 255 0.464308 0.587036
-0.119636 0.411379 2.38304 -2.875607 -2.881595 -4.593813 255 255 255 255 0.464511 0.586924
-0.05513 0.521743 2.35208 -1.33505 1.679689 -5.756699 255 255 255 255 0.464352 0.586526
-0.053776 0.461838 2.34161 -1.434144 -0.1090522 -5.878369 255 255 255 255 0.464513 0.586532
-0.055 0.411748 2.35107 -1.34456 -2.3858 -5.150899 255 255 255 255 0.464643 0.586540
0.026775 0.521927 2.34251 0.6817396 1.806849 -5.607752 255 255 255 255 0.464643 0.586087
0.028129 0.462022 2.33204 0.7694168 -0.1475382 -5.745395 255 255 255 255 0.464696 0.586114
0.026893 0.421932 2.34159 0.6769073 -2.184209 -5.509715 255 255 255 255 0.464736 0.586126
0.103548 0.521743 2.37261 2.927795 1.727488 -5.091111 255 255 255 255 0.464683 0.585629
0.104902 0.461838 2.36214 2.775027 -0.03013374 -5.405893 255 255 255 255 0.464763 0.585691
0.103678 0.411748 2.3716 2.602428 -2.553692 -4.612205 255 255 255 255 0.464854 0.585733
0.177766 0.511374 2.42245 4.338686 1.796399 -3.235871 255 255 255 255 0.464608 0.585040
0.17912 0.451469 2.41198 4.263227 -0.8006332 -3.432975 255 255 255 255 0.464777 0.585199
0.15805 0.411379 2.41897 4.012418 -3.144516 -3.430598 255 255 255 255 0.464885 0.585354
0.208467 0.500729 2.49691 5.6568 1.525181 -1.186755 255 255 255 255 0.464537 0.584412
0.209821 0.440824 2.48644 5.569214 -1.030008 -1.62026 255 255 255 255 0.464832 0.584750
0.190033 0.400826 2.48351 5.031775 -2.835181 -2.137442 255 255 255 255 0.464983 0.585007
0.216778 0.4799 2.58854 5.760864 0.8814062 1.019428 255 255 255 255 0.464886 0.583760
0.218132 0.419995 2.57807 5.575661 -1.306547 0.5609156 255 255 255 255 0.465147 0.584367
0.199628 0.380089 2.56523 4.936204 -3.260531 0.0904789 255 255 255 255 0.465254 0.584745
0.186692 0.469162 2.66522 5.180973 0.673833 3.017294 255 255 255 255 0.465765 0.583667
0.188046 0.409257 2.65475 5.017785 -1.783347 2.582025 255 255 255 255 0.465718 0.584353
0.170824 0.369443 2.63199 4.550095 -3.721791 1.939518 255 255 255 255 0.465640 0.584770
0.138053 0.458517 2.72941 3.676942 0.2855554 4.550792 255 255 255 255 0.466712 0.584187
0.139407 0.398612 2.71895 3.558545 -1.998419 3.995805 255 255 255 255 0.466324 0.584722
0.122186 0.358798 2.69618 3.199786 -3.996641 3.235135 255 255 255 255 0.466109 0.585095
0.052311 0.448056 2.76864 1.229619 -0.05397448 5.811318 255 255 255 255 0.467356 0.585351
0.053665 0.388151 2.75818 1.241469 -2.226069 5.192856 255 255 255 255 0.466746 0.585582
0.057562 0.34843 2.72806 1.452154 -4.109726 4.027168 255 255 255 255 0.466347 0.585659
-0.24918 0.640631 2.44908 -3.18345 -3.052619 -1.115226 255 255 255 255 0.459692 0.587385
-0.261986 0.619709 2.54807 -3.043615 -2.906505 -0.6443928 255 255 255 255 0.455613 0.589516
-0.159589 0.651368 2.3801 -0.07448466 -3.072922 -0.6721951 255 255 255 255 0.462522 0.586125
-0.092399 0.661921 2.32839 -0.403887 -5.965625 -1.77214 255 255 255 255 0.464483 0.585535
0.041981 0.683027 2.22497 0.3069304 -3.034625 -0.5266591 255 255 255 255 0.468611 0.584798
0.197435 0.651368 2.42629 1.818423 -5.437598 -1.826692 255 255 255 255 0.464691 0.585781
0.246687 0.640631 2.51324 3.188148 -4.276351 -1.250867 255 255 255 255 0.461333 0.584543
0.253716 0.619709 2.61479 3.159388 -2.889135 0.1331811 255 255 255 255 0.456417 0.580142
0.105204 0.793299 2.20392 2.219498 3.266131 -1.213825 255 255 255 255 0.490820 0.588353
0.122473 0.793115 2.22632 1.431163 3.126819 -1.93376 255 255 255 255 0.490760 0.588332
0.50193 0.856156 1.94324 2.119288 3.798753 -2.233474 255 255 255 255 0.488810 0.588797
0.485944 0.856433 1.91092 2.559869 3.11287 -1.614144 255 255 255 255 0.490088 0.589119
0.148352 0.812837 2.2601 0.6326129 2.731035 -2.948356 255 255 255 255 0.490709 0.588365
0.52781 0.875879 1.97702 1.4256 2.857572 -3.629873 255 255 255 255 0.487867 0.588496
0.155668 0.842652 2.2815 0.6596246 1.611571 -3.581441 255 255 255 255 0.490697 0.588369
0.535125 0.905693 1.99841 0.6305373 2.240396 -4.181794 255 255 255 255 0.487445 0.588221
0.164255 0.882558 2.29306 0.08599073 0.5196916 -4.108295 255 255 255 255 0.490670 0.588396
0.543724 0.9356 2.00988 1.206774 0.6558228 -4.532402 255 255 255 255 0.487211 0.587898
0.154302 0.912556 2.29205 0.8417438 -0.3640513 -4.009335 255 255 255 255 0.490697 0.588387
0.53376 0.975598 2.00897 0.7465557 -0.4296299 -4.646911 255 255 255 255 0.487535 0.587671
0.145621 0.952647 2.28122 0.3999292 -1.511294 -3.983253 255 255 255 255 0.490696 0.588415
0.525078 1.01569 1.99813 1.925028 -1.368862 -4.164728 255 255 255 255 0.488078 0.587523
0.117128 0.972738 2.26764 1.584982 -1.466097 -2.874954 255 255 255 255 0.490759 0.588440
0.497868 1.03587 1.97463 1.975229 -2.563296 -3.489056 255 255 255 255 0.489160 0.587459
0.101118 0.993014 2.2355 2.033756 -2.799862 -1.88409 255 255 255 255 0.490792 0.588447
0.480588 1.04606 1.95232 2.687828 -2.652081 -2.77877 255 255 255 255 0.490352 0.587413
0.075227 0.983291 2.20181 3.123228 -2.548651 -1.449267 255 255 255 255 0.490837 0.588448
0.454684 1.04633 1.91873 3.774819 -2.423283 -1.606388 255 255 255 255 0.491942 0.587588
0.05797 0.973476 2.17932 3.219434 -2.239735 -0.6132745 255 255 255 255 0.490891 0.588464
0.438722 1.02661 1.88622 4.107104 -1.900062 -0.6635622 255 255 255 255 0.493697 0.587915
0.040737 0.943662 2.15665 3.559133 -0.8821054 0.1045485 255 255 255 255 0.490913 0.588458
0.421489 0.996796 1.86355 4.717502 -1.219352 -0.1152278 255 255 255 255 0.495149 0.588509
0.04335 0.903848 2.13645 4.272673 -0.1445426 1.0137 255 255 255 255 0.490965 0.588430
0.422808 0.96689 1.85336 4.357408 0.1920887 0.2253912 255 255 255 255 0.495977 0.589094
0.043398 0.86385 2.13608 3.465902 1.060584 0.6100497 255 255 255 255 0.490939 0.588404
0.422855 0.926891 1.85299 4.731188 0.9870228 0.4946811 255 255 255 255 0.494966 0.589325
0.061985 0.833759 2.14829 3.671867 2.440233 0.4085419 255 255 255 255 0.490921 0.588399
0.441454 0.886801 1.86511 3.996971 2.432193 -0.2434167 255 255 255 255 0.493328 0.589446
0.079289 0.803576 2.17041 2.687764 2.704238 -0.115241 255 255 255 255 0.490874 0.588373
0.458746 0.866617 1.88733 3.285866 3.344188 -0.6970716 255 255 255 255 0.491602 0.589390
0.594165 1.00495 2.08764 3.822642 1.102396 0.7228646 255 255 255 255 0.486284 0.587931
0.604177 0.924954 2.08819 4.009796 -0.108222 0.8189405 255 255 255 255 0.486102 0.587779
0.566896 1.07513 2.0646 3.357393 2.159234 0.3913058 255 255 255 255 0.486904 0.588176
0.522382 1.1255 2.01897 2.730182 3.044027 -0.3270333 255 255 255 255 0.487817 0.588511
0.479186 1.14596 1.96316 2.21013 3.164215 -1.242201 255 255 255 255 0.489296 0.588918
0.426097 1.14642 1.90587 1.266182 3.455407 -1.963403 255 255 255 255 0.490943 0.589621
0.394173 1.10698 1.84087 0.8692152 2.637768 -2.901915 255 255 255 255 0.493814 0.590281
0.369624 1.04735 1.79681 0.5463839 1.687063 -3.621026 255 255 255 255 0.497600 0.590453
0.352438 0.977535 1.77377 0.02291322 0.6657147 -4.101833 255 255 255 255 0.502268 0.589617
0.372367 0.897538 1.7756 0.5953434 -0.5554004 -4.075989 255 255 255 255 0.497502 0.587948
0.399636 0.827357 1.79865 0.8598484 -1.410189 -3.880282 255 255 255 255 0.493841 0.587370
0.435516 0.777082 1.83307 1.396096 -2.218494 -2.852565 255 255 255 255 0.491320 0.587029
0.487346 0.75653 1.90009 2.333771 -2.796821 -2.342442 255 255 255 255 0.489137 0.587494
0.530518 0.756068 1.95609 2.813989 -2.65774 -1.187526 255 255 255 255 0.487838 0.587396
0.573642 0.795605 2.01245 3.463326 -1.932765 -0.4274908 255 255 255 255 0.486931 0.587644
0.598191 0.855234 2.05652 3.881499 -0.9886572 0.1639013 255 255 255 255 0.486357 0.587723
-0.037445 0.577313 2.8389 -0.3839016 -2.209691 2.503617 255 255 255 255 0.441930 0.583022
0.064294 0.577497 2.8319 0.8141534 -2.361922 2.34799 255 255 255 255 0.447209 0.582298
0.065471 0.667586 2.82281 1.467399 1.374333 5.562979 255 255 255 255 0.449829 0.582807
-0.034998 0.677493 2.81998 -0.8068942 1.796842 5.796896 255 255 255 255 0.448518 0.583722
0.151319 0.58805 2.78275 1.843281 -2.506104 2.000012 255 255 255 255 0.450611 0.581777
0.152519 0.65814 2.77348 3.73275 0.8219311 4.866708 255 255 255 255 0.452086 0.582185
0.221075 0.598788 2.71121 2.402835 -2.322086 1.203665 255 255 255 255 0.453454 0.581202
0.222311 0.638878 2.70166 5.238076 0.3515216 3.237017 255 255 255 255 0.454375 0.581127
-0.028713 0.78795 2.7714 -0.5686731 3.775996 4.395863 255 255 255 255 0.452738 0.584163
0.071755 0.778042 2.77423 1.219514 3.526038 4.400603 255 255 255 255 0.453274 0.583370
0.089611 0.86933 2.63621 1.478352 4.94089 3.412109 255 255 255 255 0.457621 0.583893
-0.010858 0.879237 2.63339 -0.4425002 5.219169 3.356463 255 255 255 255 0.457155 0.584663
0.15625 0.758412 2.74464 3.074417 2.900238 3.94112 255 255 255 255 0.454423 0.582843
0.169009 0.819332 2.64602 3.320802 4.209086 3.128675 255 255 255 255 0.457280 0.582945
0.223487 0.728967 2.69256 4.541947 1.864972 2.868463 255 255 255 255 0.455664 0.581948
0.23115 0.759519 2.63334 5.010292 2.672451 2.281425 255 255 255 255 0.457353 0.581988
-0.132876 0.667586 2.79714 -2.749134 1.320564 5.044032 255 255 255 255 0.449545 0.584893
-0.134053 0.577497 2.80624 -1.308198 -2.305474 2.086941 255 255 255 255 0.446891 0.584871
-0.204505 0.65814 2.72729 -4.848459 0.8646728 3.760516 255 255 255 255 0.451566 0.585975
-0.205705 0.58805 2.73656 -2.299954 -2.547328 1.471616 255 255 255 255 0.450079 0.586139
-0.253722 0.638878 2.64007 -5.909138 0.3810214 1.753061 255 255 255 255 0.453573 0.587511
-0.254958 0.598788 2.64962 -2.664531 -2.375787 0.5069388 255 255 255 255 0.452769 0.587403
-0.108736 0.86933 2.61055 -2.264899 4.96248 2.919103 255 255 255 255 0.457068 0.585427
-0.126592 0.778042 2.74857 -2.28844 3.520124 3.968112 255 255 255 255 0.452962 0.585014
-0.188016 0.819332 2.59983 -4.011621 4.240124 2.14824 255 255 255 255 0.456427 0.586117
-0.200775 0.758412 2.69845 -4.003772 2.864569 3.076557 255 255 255 255 0.453869 0.585714
-0.244883 0.759519 2.57175 -5.46424 2.647757 0.8484919 255 255 255 255 0.456328 0.586815
-0.252545 0.728967 2.63098 -5.196853 1.774648 1.636848 255 255 255 255 0.454869 0.586694
0.268131 0.952186 2.34748 4.793637 2.935931 1.564279 255 255 255 255 0.470394 0.585508
0.25235 0.689614 2.62534 5.935749 0.4973027 1.61048 255 255 255 255 0.456791 0.580992
0.289344 0.872281 2.3394 6.057648 0.5765368 0.9525645 255 255 255 255 0.470267 0.585712
0.207273 1.01209 2.35025 3.33207 4.533785 1.915787 255 255 255 255 0.470128 0.585464
0.126604 1.052 2.35027 1.440754 5.151203 3.062592 255 255 255 255 0.469299 0.585773
0.027407 1.072 2.33762 -0.09174491 5.533896 1.687236 255 255 255 255 0.468544 0.586191
-0.071743 1.052 2.32461 -2.374922 5.08262 2.537155 255 255 255 255 0.467518 0.586463
-0.149751 1.01209 2.30406 -3.56952 4.620809 0.9081793 255 255 255 255 0.466811 0.586540
-0.207901 0.952186 2.2859 -5.044916 2.930333 0.2733788 255 255 255 255 0.466203 0.586425
-0.226359 0.872281 2.27268 -6.293507 0.8564339 -0.5115907 255 255 255 255 0.465617 0.586180
-0.263352 0.689614 2.55863 -6.148555 0.5039938 0.04298332 255 255 255 255 0.456059 0.587496
0.270697 0.95237 2.32765 4.499094 2.323648 3.167025 255 255 255 255 0.471106 0.585624
0.29191 0.872466 2.31957 5.168274 -0.2536901 2.981049 255 255 255 255 0.471108 0.585844
0.209839 1.01227 2.33042 3.038129 4.201594 2.814498 255 255 255 255 0.471043 0.585509
0.129158 1.06218 2.33053 1.687071 5.378118 1.58759 255 255 255 255 0.470055 0.585943
0.029973 1.07218 2.31779 -0.2351866 6.00415 1.44515 255 255 255 255 0.469247 0.586262
-0.069189 1.06218 2.30487 -2.021008 5.394473 1.064988 255 255 255 255 0.468143 0.586499
-0.147185 1.01227 2.28423 -3.974352 4.799953 0.3738935 255 255 255 255 0.467241 0.586526
-0.205336 0.95237 2.26606 -5.387158 2.864646 -0.3096592 255 255 255 255 0.466567 0.586440
-0.223793 0.872466 2.25285 -2.805752 0.6928307 -0.2703851 255 255 255 255 0.465954 0.586388
0.130441 1.06227 2.32061 1.717045 5.766993 1.502104 255 255 255 255 0.470773 0.585974
0.032527 1.08237 2.29805 -0.6934597 5.713182 1.465961 255 255 255 255 0.469965 0.586397
-0.06534 1.06246 2.27512 -1.927742 5.780448 -0.6604223 255 255 255 255 0.468753 0.586675
-0.143348 1.02255 2.25457 -3.38344 4.557067 -0.8399266 255 255 255 255 0.467743 0.586633
-0.200215 0.962739 2.22649 -4.146384 2.633055 -1.876783 255 255 255 255 0.467008 0.586607
-0.218672 0.882834 2.21327 -4.886088 0.786001 -2.654994 255 255 255 255 0.466416 0.586572
0.175079 0.704041 2.13146 0.1350122 -6.001361 -1.080311 255 255 255 255 0.473316 0.586100
0.218239 0.71358 2.18755 1.619848 -5.998054 0.6425906 255 255 255 255 0.472271 0.586137
0.260092 0.743025 2.25374 2.485791 -4.752384 2.742698 255 255 255 255 0.471457 0.586459
0.284641 0.802653 2.29781 4.733724 -2.871354 2.024024 255 255 255 255 0.471041 0.586429
0.253346 1.02255 2.30589 2.38823 3.418468 4.356133 255 255 255 255 0.471918 0.585596
0.208832 1.07292 2.26027 1.41311 5.321025 2.900829 255 255 255 255 0.472492 0.585925
0.165624 1.10338 2.20454 -0.05086444 5.944058 1.202616 255 255 255 255 0.473421 0.586318
0.11383 1.09393 2.13725 -1.81161 5.743431 -1.123584 255 255 255 255 0.474217 0.586984
0.080623 1.05439 2.08217 -2.836 4.832256 -2.756087 255 255 255 255 0.475060 0.587193
0.056062 1.00477 2.03819 -3.45526 3.252802 -3.883597 255 255 255 255 0.475744 0.587012
0.050088 0.925046 2.00642 -3.750176 0.7622826 -4.797177 255 255 255 255 0.476225 0.587270
0.060088 0.855049 2.00707 -3.372665 -1.658644 -4.908179 255 255 255 255 0.475961 0.586751
0.087357 0.784868 2.03011 -2.600634 -3.704426 -4.196696 255 255 255 255 0.475271 0.586591
0.121954 0.734501 2.07445 -1.445317 -5.231413 -2.979267 255 255 255 255 0.474223 0.586265
-0.207377 0.80293 2.20391 -3.391916 -1.556697 -4.768155 255 255 255 255 0.466178 0.586703
-0.18012 0.742748 2.22704 -2.339106 -3.947387 -4.13668 255 255 255 255 0.465591 0.586682
-0.135606 0.692381 2.27267 -1.359596 -5.300339 -2.966423 255 255 255 255 0.465137 0.586838
-0.22491 0.73238 2.26149 -3.815821 -2.289061 -2.405033 255 255 255 255 0.464818 0.586569
-0.218578 0.802838 2.21254 -4.544493 -0.8774845 -2.985877 255 255 255 255 0.465840 0.586636
-0.236386 0.671552 2.35019 -3.136196 -2.90278 -1.561168 255 255 255 255 0.462711 0.586443
0.216574 0.742748 2.27836 3.084618 -4.53473 0.7418488 255 255 255 255 0.470351 0.586331
0.138577 0.692842 2.25772 1.782695 -5.846427 -1.092716 255 255 255 255 0.469660 0.585391
-0.004135 0.619709 2.58143 0.1365664 -6.188963 -1.055579 255 255 255 255 0.447061 0.583709
0.103803 0.893203 2.21475 4.947338 0.8351468 -3.762087 255 255 255 255 0.490813 0.588406
3 0 1 2 
3 0 2 3 
3 3 2 4 
3 3 4 5 
3 5 4 6 
3 5 6 7 
3 7 6 8 
3 7 8 9 
3 9 8 10 
3 9 10 11 
3 11 10 12 
3 11 12 13 
3 13 12 14 
3 13 14 15 
3 15 14 16 
3 15 16 17 
3 17 16 18 
3 17 18 19 
3 19 18 20 
3 19 20 21 
3 21 20 22 
3 21 22 23 
3 23 22 24 
3 23 24 25 
3 25 24 26 
3 25 26 27 
3 27 26 28 
3 27 28 29 
3 29 28 30 
3 29 30 31 
3 1 0 31 
3 1 31 30 
3 32 33 9 
3 32 9 11 
3 34 32 11 
3 34 11 13 
3 35 34 13 
3 35 13 15 
3 36 35 15 
3 36 15 17 
3 37 36 17 
3 37 17 19 
3 38 37 19 
3 38 19 21 
3 39 38 21 
3 39 21 23 
3 40 39 23 
3 40 23 25 
3 41 40 25 
3 41 25 27 
3 42 41 27 
3 42 27 29 
3 43 42 29 
3 43 29 31 
3 31 0 44 
3 31 44 43 
3 0 3 45 
3 0 45 44 
3 46 45 3 
3 46 3 5 
3 47 46 5 
3 47 5 7 
3 33 47 7 
3 33 7 9 
3 48 49 50 
3 48 50 51 
3 49 52 53 
3 49 53 50 
3 52 54 55 
3 52 55 53 
3 54 56 57 
3 54 57 55 
3 56 58 59 
3 56 59 57 
3 58 60 61 
3 58 61 59 
3 60 62 63 
3 60 63 61 
3 62 64 65 
3 62 65 63 
3 64 66 67 
3 64 67 65 
3 66 68 69 
3 66 69 67 
3 68 70 71 
3 68 71 69 
3 70 72 73 
3 70 73 71 
3 72 74 75 
3 72 75 73 
3 74 76 77 
3 74 77 75 
3 76 78 79 
3 76 79 77 
3 78 48 51 
3 78 51 79 
3 62 80 81 
3 62 81 64 
3 80 82 83 
3 80 83 81 
3 82 84 85 
3 82 85 83 
3 84 35 36 
3 84 36 85 
3 60 86 80 
3 60 80 62 
3 86 87 82 
3 86 82 80 
3 87 88 84 
3 87 84 82 
3 88 34 35 
3 88 35 84 
3 58 89 86 
3 58 86 60 
3 89 90 87 
3 89 87 86 
3 90 91 88 
3 90 88 87 
3 91 32 34 
3 91 34 88 
3 56 92 89 
3 56 89 58 
3 92 93 90 
3 92 90 89 
3 93 94 91 
3 93 91 90 
3 94 33 32 
3 94 32 91 
3 54 95 92 
3 54 92 56 
3 95 96 93 
3 95 93 92 
3 96 97 94 
3 96 94 93 
3 97 47 33 
3 97 33 94 
3 52 98 95 
3 52 95 54 
3 98 99 96 
3 98 96 95 
3 99 100 97 
3 99 97 96 
3 100 46 47 
3 100 47 97 
3 49 101 98 
3 49 98 52 
3 101 102 99 
3 101 99 98 
3 102 103 100 
3 102 100 99 
3 103 45 46 
3 103 46 100 
3 48 104 101 
3 48 101 49 
3 104 105 102 
3 104 102 101 
3 105 106 103 
3 105 103 102 
3 106 44 45 
3 106 45 103 
3 78 107 104 
3 78 104 48 
3 107 108 105 
3 107 105 104 
3 108 109 106 
3 108 106 105 
3 109 43 44 
3 109 44 106 
3 76 110 107 
3 76 107 78 
3 110 111 108 
3 110 108 107 
3 111 112 109 
3 111 109 108 
3 112 42 43 
3 112 43 109 
3 74 113 110 
3 74 110 76 
3 113 114 111 
3 113 111 110 
3 114 115 112 
3 114 112 111 
3 115 41 42 
3 115 42 112 
3 72 116 113 
3 72 113 74 
3 116 117 114 
3 116 114 113 
3 117 118 115 
3 117 115 114 
3 118 40 41 
3 118 41 115 
3 70 119 116 
3 70 116 72 
3 119 120 117 
3 119 117 116 
3 120 121 118 
3 120 118 117 
3 121 39 40 
3 121 40 118 
3 68 122 119 
3 68 119 70 
3 122 123 120 
3 122 120 119 
3 123 124 121 
3 123 121 120 
3 124 38 39 
3 124 39 121 
3 66 125 122 
3 66 122 68 
3 125 126 123 
3 125 123 122 
3 126 127 124 
3 126 124 123 
3 127 37 38 
3 127 38 124 
3 64 81 125 
3 64 125 66 
3 81 83 126 
3 81 126 125 
3 83 85 127 
3 83 127 126 
3 85 36 37 
3 85 37 127 
3 128 55 57 
3 128 57 129 
3 130 53 55 
3 130 55 128 
3 131 50 53 
3 131 53 130 
3 132 51 50 
3 132 50 131 
3 133 77 79 
3 133 79 132 
3 134 75 77 
3 134 77 133 
3 135 73 75 
3 135 75 134 
3 136 137 138 
3 136 138 139 
3 137 140 141 
3 137 141 138 
3 140 142 143 
3 140 143 141 
3 142 144 145 
3 142 145 143 
3 144 146 147 
3 144 147 145 
3 146 148 149 
3 146 149 147 
3 148 150 151 
3 148 151 149 
3 150 152 153 
3 150 153 151 
3 152 154 155 
3 152 155 153 
3 154 156 157 
3 154 157 155 
3 156 158 159 
3 156 159 157 
3 158 160 161 
3 158 161 159 
3 160 162 163 
3 160 163 161 
3 162 164 165 
3 162 165 163 
3 164 166 167 
3 164 167 165 
3 166 136 139 
3 166 139 167 
3 168 169 145 
3 168 145 147 
3 170 168 147 
3 170 147 149 
3 171 170 149 
3 171 149 151 
3 172 171 151 
3 172 151 153 
3 173 172 153 
3 173 153 155 
3 174 173 155 
3 174 155 157 
3 175 174 157 
3 175 157 159 
3 176 175 159 
3 176 159 161 
3 177 176 161 
3 177 161 163 
3 178 177 163 
3 178 163 165 
3 179 178 165 
3 179 165 167 
3 180 179 167 
3 180 167 139 
3 181 180 139 
3 181 139 138 
3 182 181 138 
3 182 138 141 
3 183 182 141 
3 183 141 143 
3 169 183 143 
3 169 143 145 
3 184 185 186 
3 184 186 187 
3 185 188 189 
3 185 189 186 
3 188 190 191 
3 188 191 189 
3 192 193 194 
3 192 194 195 
3 193 196 197 
3 193 197 194 
3 196 198 199 
3 196 199 197 
3 187 200 201 
3 187 201 184 
3 200 202 203 
3 200 203 201 
3 202 204 205 
3 202 205 203 
3 195 206 207 
3 195 207 192 
3 206 208 209 
3 206 209 207 
3 208 210 211 
3 208 211 209 
3 212 199 213 
3 212 213 214 
3 215 197 199 
3 215 199 212 
3 216 194 197 
3 216 197 215 
3 217 195 194 
3 217 194 216 
3 218 206 195 
3 218 195 217 
3 219 208 206 
3 219 206 218 
3 220 210 208 
3 220 208 219 
3 221 222 210 
3 221 210 220 
3 223 212 214 
3 223 214 224 
3 225 215 212 
3 225 212 223 
3 226 216 215 
3 226 215 225 
3 227 217 216 
3 227 216 226 
3 228 218 217 
3 228 217 227 
3 229 219 218 
3 229 218 228 
3 230 220 219 
3 230 219 229 
3 231 221 220 
3 231 220 230 
3 225 232 226 
3 226 232 233 
3 226 233 227 
3 227 233 234 
3 227 234 228 
3 228 234 235 
3 228 235 229 
3 229 235 236 
3 229 236 230 
3 230 236 237 
3 230 237 231 
3 238 180 181 
3 238 181 239 
3 239 181 182 
3 239 182 240 
3 240 182 183 
3 240 183 241 
3 241 183 169 
3 241 169 224 
3 224 169 168 
3 224 168 223 
3 223 168 170 
3 223 170 242 
3 242 170 171 
3 242 171 243 
3 243 171 172 
3 243 172 244 
3 244 172 173 
3 244 173 245 
3 245 173 174 
3 245 174 246 
3 246 174 175 
3 246 175 247 
3 247 175 176 
3 247 176 248 
3 248 176 177 
3 248 177 249 
3 249 177 178 
3 249 178 250 
3 250 178 179 
3 250 179 251 
3 251 179 180 
3 251 180 238 
3 223 242 225 
3 242 243 232 
3 242 232 225 
3 243 244 233 
3 243 233 232 
3 244 245 234 
3 244 234 233 
3 245 246 235 
3 245 235 234 
3 246 247 236 
3 246 236 235 
3 247 248 237 
3 247 237 236 
3 248 249 252 
3 248 252 237 
3 249 250 253 
3 249 253 252 
3 250 251 254 
3 250 254 253 
3 251 238 131 
3 251 131 254 
3 252 253 255 
3 252 255 256 
3 253 254 257 
3 253 257 255 
3 254 131 128 
3 254 128 257 
3 241 258 240 
3 240 258 259 
3 240 259 239 
3 239 259 132 
3 239 132 238 
3 221 237 256 
3 221 256 255 
3 221 255 257 
3 221 257 128 
3 221 128 129 
3 221 129 222 
3 260 205 129 
3 260 203 205 
3 260 201 203 
3 260 184 201 
3 260 185 184 
3 260 188 185 
3 260 190 188 
3 260 135 190 
3 260 8 6 
3 260 6 4 
3 260 4 2 
3 260 2 1 
3 260 1 30 
3 260 30 28 
3 260 28 26 
3 260 26 24 
3 79 51 132 
3 261 137 136 
3 261 140 137 
3 261 142 140 
3 261 144 142 
3 261 146 144 
3 261 148 146 
3 261 150 148 
3 261 152 150 
3 261 154 152 
3 261 156 154 
3 261 158 156 
3 261 160 158 
3 261 162 160 
3 261 164 162 
3 261 166 164 
3 261 136 166 
3 190 135 191 
3 187 186 193 
3 186 189 196 
3 189 191 198 
3 191 135 213 
3 193 192 187 
3 196 193 186 
3 198 196 189 
3 213 198 191 
3 198 213 199 
3 204 129 205 
3 204 211 222 
3 222 129 204 
3 207 200 187 
3 209 202 200 
3 211 204 202 
3 187 192 207 
3 200 207 209 
3 202 209 211 
3 210 222 211 
3 237 252 256 
3 214 213 135 
3 241 224 214 
3 135 241 214 
3 241 135 134 
3 241 134 258 
3 133 258 134 
3 258 133 259 
3 132 259 133 
