ply
format ascii 1.0
comment VCGLIB generated
element vertex 206
property float x
property float y
property float z
property float nx
property float ny
property float nz
property uchar red
property uchar green
property uchar blue
property uchar alpha
property float texture_u
property float texture_v
element face 356
property list uchar int vertex_indices
end_header
-0.205219 -0.166014 -0.002248 1.570796 -1.57079 -4.712391 255 255 255 255 0.482404 0.518715
-0.205219 -0.166014 0.157752 3.141584 -3.141594 -2.450398e-06 255 255 255 255 0.484195 0.518869
-0.205219 -0.646014 0.157752 3.1416 3.141594 7.340755e-07 255 255 255 255 0.483737 0.524293
-0.205219 -0.646014 -0.002248 1.570805 1.570789 -4.712387 255 255 255 255 0.481946 0.524139
-0.20522 -0.646014 0.637752 -5.885959e-06 2.532484e-06 5.565092e-06 255 255 255 255 0.489110 0.524756
-0.20522 -0.646015 0.797752 -1.57079 1.570795 1.570799 255 255 255 255 0.490901 0.524910
-0.20522 -0.166015 0.797752 -1.570798 -1.570795 1.570796 255 255 255 255 0.491360 0.519486
-0.20522 -0.166015 0.637752 3.740191e-06 6.778808e-06 1.487643e-05 255 255 255 255 0.489569 0.519332
0.274781 -0.646015 0.157752 -1.570793 1.570797 -1.570796 255 255 255 255 0.483737 0.524293
0.274781 -0.646015 -0.002247 -1.57079 1.570801 -4.712391 255 255 255 255 0.481946 0.524139
0.11478 -0.646015 0.797752 -1.570795 1.570798 1.570796 255 255 255 255 0.490901 0.524910
0.114781 -0.646015 0.157752 -1.570791 1.570795 -1.570799 255 255 255 255 0.483737 0.524293
0.274781 -0.166015 -0.002247 -1.570794 -1.570807 -4.712387 255 255 255 255 0.482404 0.518715
0.274781 -0.166015 0.157752 -1.5708 -1.570796 -1.570796 255 255 255 255 0.484195 0.518869
0.114781 -0.166015 0.157752 -1.5708 -1.570795 -1.5708 255 255 255 255 0.484195 0.518869
0.11478 -0.166015 0.797752 -1.570796 -1.570798 1.570794 255 255 255 255 0.491360 0.519486
-0.365219 -0.166014 0.397752 -0.4373444 -3.066785 4.560409e-06 255 255 255 255 0.486882 0.519101
-0.365219 -0.186014 0.307752 -3.481541 -2.865422 1.173272 255 255 255 255 0.485856 0.519240
-0.205219 -0.186015 0.307752 3.481501 -2.865423 1.173286 255 255 255 255 0.485856 0.519240
-0.205219 -0.166014 0.397752 0.4373484 -3.066772 6.467818e-06 255 255 255 255 0.486882 0.519101
-0.365219 -0.236014 0.227752 -3.595201 -2.164556 2.164549 255 255 255 255 0.484912 0.519728
-0.205219 -0.236015 0.227752 3.595171 -2.164561 2.164551 255 255 255 255 0.484912 0.519728
-0.365219 -0.316014 0.177752 -3.481525 -1.17327 2.865425 255 255 255 255 0.484276 0.520583
-0.205219 -0.316014 0.177752 3.481528 -1.173275 2.865422 255 255 255 255 0.484276 0.520583
-0.365219 -0.406015 0.157752 -0.4373353 3.643334e-06 3.066783 255 255 255 255 0.483966 0.521581
-0.205219 -0.406015 0.157752 0.4373353 3.665686e-06 3.066783 255 255 255 255 0.483966 0.521581
-0.365219 -0.496015 0.177752 -3.481523 1.173274 2.865424 255 255 255 255 0.484104 0.522617
-0.205219 -0.496015 0.177752 3.481523 1.173274 2.865424 255 255 255 255 0.484104 0.522617
-0.365219 -0.576015 0.227752 -3.595194 2.164558 2.164545 255 255 255 255 0.484587 0.523569
-0.205219 -0.576015 0.227752 3.59519 2.164553 2.164553 255 255 255 255 0.484587 0.523569
-0.365219 -0.626014 0.307752 -3.481503 2.865434 1.173258 255 255 255 255 0.485435 0.524212
-0.205219 -0.626015 0.307752 3.481546 2.865428 1.173252 255 255 255 255 0.485435 0.524212
-0.365219 -0.646014 0.397752 -0.437331 3.066787 4.687069e-06 255 255 255 255 0.486423 0.524525
-0.205219 -0.646014 0.397752 0.4373225 3.066784 6.512432e-06 255 255 255 255 0.486423 0.524525
-0.365219 -0.626014 0.487752 -3.481502 2.865487 -1.17329 255 255 255 255 0.487450 0.524385
-0.205219 -0.626015 0.487752 3.481546 2.865369 -1.173239 255 255 255 255 0.487450 0.524385
-0.36522 -0.576015 0.567752 -3.595199 2.164538 -2.164549 255 255 255 255 0.488394 0.523898
-0.20522 -0.576015 0.567752 3.595196 2.164579 -2.164541 255 255 255 255 0.488394 0.523898
-0.36522 -0.496015 0.617752 -3.481523 1.173274 -2.865424 255 255 255 255 0.489030 0.523042
-0.20522 -0.496015 0.617752 3.481523 1.173274 -2.865424 255 255 255 255 0.489030 0.523042
-0.36522 -0.406015 0.637752 -0.4373367 2.43634e-06 -3.066783 255 255 255 255 0.489340 0.522044
-0.20522 -0.406015 0.637752 0.4373374 0 -3.066782 255 255 255 255 0.489340 0.522044
-0.36522 -0.316014 0.617752 -3.481535 -1.17327 -2.865422 255 255 255 255 0.489202 0.521008
-0.20522 -0.316015 0.617752 3.481518 -1.173278 -2.865423 255 255 255 255 0.489202 0.521008
-0.365219 -0.236015 0.567752 -3.595181 -2.164573 -2.164605 255 255 255 255 0.488719 0.520056
-0.205219 -0.236015 0.567752 3.595187 -2.164539 -2.164503 255 255 255 255 0.488719 0.520056
-0.365219 -0.186014 0.487752 -3.481544 -2.865472 -1.173305 255 255 255 255 0.487871 0.519413
-0.205219 -0.186015 0.487752 3.4815 -2.865361 -1.17328 255 255 255 255 0.487871 0.519413
0.434781 -0.786015 -0.002247 1.539557 -1.570029 -1.521732 255 255 255 255 0.481812 0.525721
-0.365219 -0.786014 -0.002248 -1.508378 -1.569234 -1.500744 255 255 255 255 0.481812 0.525721
-0.365219 -0.066014 -0.002248 -1.570794 1.570797 -1.570794 255 255 255 255 0.482500 0.517585
0.434781 -0.066015 -0.002247 1.570797 1.570795 -1.570797 255 255 255 255 0.482500 0.517585
0.434781 -0.776015 0.317753 1.602028 -1.570025 1.61986 255 255 255 255 0.485404 0.525916
0.234781 -0.776015 0.317752 1.529995 -1.570035 1.619863 255 255 255 255 0.485404 0.525916
0.234781 -0.786015 -0.002247 -1.794168e-06 -3.139264 0.1191178 255 255 255 255 0.481812 0.525721
0.23478 -0.736015 1.11775 0.002339145 -3.13593 0.1834681 255 255 255 255 0.494398 0.526236
-0.36522 -0.736015 1.11775 -3.163587 -2.903195 0.4236905 255 255 255 255 0.494398 0.526236
0.23478 -0.756015 0.847752 2.812844 -0.6025112 -0.8135257 255 255 255 255 0.491356 0.526202
0.32478 -0.746015 0.977753 2.819244 -2.740621 -1.043632 255 255 255 255 0.492821 0.526214
0.35478 -0.736015 1.11775 3.140039 -2.716465 0.08229598 255 255 255 255 0.494398 0.526236
0.32478 -0.736015 1.25775 2.74693 -2.721964 1.295329 255 255 255 255 0.495965 0.526371
-0.33522 -0.736015 1.25775 -2.754007 -2.700089 1.266107 255 255 255 255 0.495965 0.526371
0.244779 -0.726015 1.36775 2.253604 -2.817413 2.436398 255 255 255 255 0.497206 0.526364
-0.25522 -0.726015 1.36775 -0.8281586 -2.825726 0.4815975 255 255 255 255 0.497206 0.526364
0.134779 -0.726015 1.44775 1.253025 -2.72389 2.806289 255 255 255 255 0.498102 0.526442
-0.145221 -0.726015 1.44775 -0.3028933 -2.729243 1.607392 255 255 255 255 0.498102 0.526442
0.434781 -0.066015 0.317753 1.570789 1.570791 1.570796 255 255 255 255 0.486082 0.517893
0.234781 -0.066015 -0.002247 2.613747e-06 3.141593 3.624321e-12 255 255 255 255 0.482500 0.517585
0.234781 -0.066015 0.317752 1.570789 1.570801 1.5708 255 255 255 255 0.486082 0.517893
0.23478 -0.066015 0.717752 1.15602e-06 3.141594 1.214776e-06 255 255 255 255 0.490560 0.518279
-0.36522 -0.066015 0.717752 0 3.141591 2.178121e-06 255 255 255 255 0.490560 0.518279
0.14478 -0.066015 0.747752 -1.17938 3.532199 2.847274 255 255 255 255 0.490896 0.518308
0.23478 -0.066015 0.747752 0 3.141593 0 255 255 255 255 0.490896 0.518308
-0.00522 -0.066015 0.717752 -8.940697e-08 0.3947908 3.080585 255 255 255 255 0.490560 0.518279
-0.36522 -0.066015 0.747752 0 3.141592 0 255 255 255 255 0.490896 0.518308
-0.15522 -0.066015 0.747752 1.202172 3.549742 2.831789 255 255 255 255 0.490896 0.518308
-0.36522 -0.066015 0.837752 0 3.141593 0 255 255 255 255 0.491904 0.518395
-0.28522 -0.066015 0.837752 2.201094 3.518842 2.162817 255 255 255 255 0.491904 0.518395
0.23478 -0.086015 0.807752 0.6994753 2.1588 1.306982 255 255 255 255 0.491549 0.518592
0.23478 -0.066015 0.807752 0.6994752 0.9827937 1.306985 255 255 255 255 0.491568 0.518366
0.14478 -0.086015 0.747752 -1.17938 2.750985 2.847274 255 255 255 255 0.490877 0.518534
-0.00522 -0.086015 0.717752 2.607703e-08 2.746801 3.080585 255 255 255 255 0.490541 0.518505
-0.15522 -0.086015 0.747752 1.202171 2.733444 2.831789 255 255 255 255 0.490877 0.518534
-0.28522 -0.086015 0.837752 2.201094 2.764344 2.162817 255 255 255 255 0.491885 0.518621
-0.36522 -0.066015 0.957752 -0.2638185 0.5880026 0.8713208 255 255 255 255 0.493247 0.518511
-0.36522 -0.086015 0.957752 -0.2638148 -0.03141654 0.8713211 255 255 255 255 0.493228 0.518737
-0.36522 -0.086015 1.11775 -3.106707 -2.930499 0.3291276 255 255 255 255 0.495019 0.518891
-0.08522 -0.086015 1.03775 -1.192093e-07 1.014211 -5.960464e-08 255 255 255 255 0.494123 0.518814
-0.11522 -0.086015 1.06775 -2.651013 -3.729596 -1.418779 255 255 255 255 0.494459 0.518843
-0.33522 -0.086015 1.25775 -2.817104 -2.729044 1.228113 255 255 255 255 0.496586 0.519026
-0.12522 -0.086015 1.11775 -3.080585 -3.536384 7.450581e-07 255 255 255 255 0.495019 0.518891
-0.25522 -0.086015 1.36775 -0.7619631 -2.80853 0.2487692 255 255 255 255 0.497818 0.519132
-0.11522 -0.086015 1.16775 -2.651013 -3.729596 1.41878 255 255 255 255 0.495579 0.518939
-0.145221 -0.086015 1.44775 -0.3121529 0.3616265 1.601124 255 255 255 255 0.498713 0.519210
-0.08522 -0.086015 1.19775 1.043081e-07 -1.099698 -4.470348e-08 255 255 255 255 0.495915 0.518968
-0.005221 -0.086015 1.47775 0 2.719407 3.071857 255 255 255 255 0.499049 0.519239
-0.05522 -0.086015 1.22775 1.418782 3.729593 -2.651013 255 255 255 255 0.496250 0.518997
0.134779 -0.086015 1.44775 1.25302 2.723894 2.806292 255 255 255 255 0.498713 0.519210
-0.00522 -0.086015 1.23775 -1.117587e-08 3.536388 -3.080584 255 255 255 255 0.496362 0.519007
0.24478 -0.086015 1.36775 2.194252 2.828381 2.194261 255 255 255 255 0.497818 0.519132
0.04478 -0.086015 1.22775 -1.418782 3.729593 -2.651013 255 255 255 255 0.496250 0.518997
0.32478 -0.086015 1.25775 2.806288 2.723889 1.253026 255 255 255 255 0.496586 0.519026
0.07478 -0.086015 1.19775 -2.22144 3.141593 -2.221443 255 255 255 255 0.495915 0.518968
0.35478 -0.086015 1.11775 3.071856 2.719403 -6.586313e-06 255 255 255 255 0.495019 0.518891
0.10478 -0.086015 1.16775 -2.651013 3.729596 -1.41878 255 255 255 255 0.495579 0.518939
0.32478 -0.086015 0.977753 2.827427 2.747149 -1.223242 255 255 255 255 0.493452 0.518756
0.11478 -0.086015 1.11775 -3.080585 3.536384 -6.891787e-07 255 255 255 255 0.495019 0.518891
0.23478 -0.086015 0.847752 2.862297 3.747135 -0.8941082 255 255 255 255 0.491996 0.518631
0.10478 -0.086015 1.06775 -2.651013 3.729598 1.418779 255 255 255 255 0.494459 0.518843
0.07478 -0.086015 1.03775 -2.22144 3.141593 2.221443 255 255 255 255 0.494123 0.518814
0.04478 -0.086015 1.00775 -1.41872 3.729633 2.651026 255 255 255 255 0.493788 0.518785
-0.00522 -0.086015 0.997752 2.980232e-08 3.536308 3.080609 255 255 255 255 0.493676 0.518775
-0.05522 -0.086015 1.00775 1.41872 3.729633 2.651026 255 255 255 255 0.493788 0.518785
-0.05522 -0.316015 1.00775 1.41872 -3.729633 2.651026 255 255 255 255 0.493568 0.521384
-0.00522 -0.316015 0.997752 -2.980232e-08 -0.3947156 3.080609 255 255 255 255 0.493456 0.521374
-0.08522 -0.316015 1.03775 1.192093e-07 -3.141593 0 255 255 255 255 0.493904 0.521413
-0.11522 -0.316015 1.06775 -2.651013 -3.729596 -1.418779 255 255 255 255 0.494239 0.521442
-0.12522 -0.316015 1.11775 -3.080585 6.109476e-07 6.854534e-07 255 255 255 255 0.494799 0.521490
-0.11522 -0.316015 1.16775 -2.651013 3.729595 1.41878 255 255 255 255 0.495359 0.521538
-0.08522 -0.316015 1.19775 -1.192093e-07 3.141593 0 255 255 255 255 0.495695 0.521567
-0.05522 -0.316015 1.22775 1.418782 3.729593 -2.651013 255 255 255 255 0.496031 0.521596
-0.00522 -0.316015 1.23775 0 -3.141593 -3.080584 255 255 255 255 0.496143 0.521606
0.04478 -0.316015 1.22775 -1.418782 -3.729593 -2.651013 255 255 255 255 0.496031 0.521596
0.07478 -0.316015 1.19775 -2.22144 -3.141593 -2.221443 255 255 255 255 0.495695 0.521567
0.10478 -0.316015 1.16775 -2.651013 -3.729596 -1.41878 255 255 255 255 0.495359 0.521538
0.11478 -0.316015 1.11775 -3.080585 -3.536383 -7.450581e-07 255 255 255 255 0.494799 0.521490
0.10478 -0.316015 1.06775 -2.651013 -3.729596 1.418779 255 255 255 255 0.494239 0.521442
0.07478 -0.316015 1.03775 -2.22144 -3.141593 2.221443 255 255 255 255 0.493904 0.521413
0.04478 -0.316015 1.00775 -1.41872 -3.729633 2.651026 255 255 255 255 0.493568 0.521384
-0.00522 -0.576015 1.35775 -0.3407552 2.922923 -3.104187 255 255 255 255 0.497238 0.524660
-0.00522 -0.316015 1.35775 -0.3407552 -2.922923 -3.104187 255 255 255 255 0.497486 0.521722
0.08478 -0.316015 1.33775 -1.173275 -2.801664 -2.865424 255 255 255 255 0.497262 0.521702
0.08478 -0.576015 1.33775 -1.173275 2.801664 -2.865424 255 255 255 255 0.497014 0.524641
0.16478 -0.316015 1.28775 -2.164553 -2.687994 -2.164553 255 255 255 255 0.496702 0.521654
0.16478 -0.576015 1.28775 -2.164552 2.687994 -2.164553 255 255 255 255 0.496454 0.524592
0.21478 -0.316015 1.20775 -2.865424 -2.801663 -1.173274 255 255 255 255 0.495807 0.521577
0.21478 -0.576015 1.20775 -2.865424 2.801663 -1.173274 255 255 255 255 0.495558 0.524515
0.23478 -0.316015 1.11775 -3.057287 -2.704255 0.04021996 255 255 255 255 0.494799 0.521490
0.23478 -0.576015 1.11775 -3.06499 2.693711 0.007877856 255 255 255 255 0.494551 0.524428
-0.20522 -0.576015 1.35775 -1.259977 2.970002 -2.570234 255 255 255 255 0.497238 0.524660
-0.20522 -0.316015 1.35775 -4.712389 -1.570793 -1.570847 255 255 255 255 0.497486 0.521722
0.21478 -0.316015 1.03775 -1.562267 -0.00287459 0.3812241 255 255 255 255 0.493904 0.521413
0.21478 -0.576015 1.02775 -2.036772 1.752868 0.6566532 255 255 255 255 0.493543 0.524341
-0.00522 -0.576015 1.11775 0 6.283185 0 255 255 255 255 0.494551 0.524428
-0.20522 -0.576015 1.03775 -0.6202492 1.594601 0 255 255 255 255 0.493655 0.524351
-0.12522 -0.316015 1.23775 0 -3.141592 0 255 255 255 255 0.496143 0.521606
-0.12522 -0.316015 0.997752 0 -6.283185 0 255 255 255 255 0.493456 0.521374
-0.20522 -0.316015 0.977752 -1.012216 -2.403292 1.332041 255 255 255 255 0.493232 0.521355
0.11478 -0.316015 0.997752 0 -6.283185 0 255 255 255 255 0.493456 0.521374
0.18478 -0.316015 0.977752 -1.562244 -2.111233 1.023503 255 255 255 255 0.493232 0.521355
0.21478 -0.316015 1.02775 -1.346933 -2.819825 0.8081912 255 255 255 255 0.493792 0.521403
-0.20522 -0.626015 1.10775 -2.732222 1.533726 0.3390762 255 255 255 255 0.494391 0.524984
-0.20522 -0.646015 1.19775 -2.732626 3.071557 0.02292225 255 255 255 255 0.495379 0.525296
-0.20522 -0.626015 1.28775 -2.830067 2.843249 -1.222296 255 255 255 255 0.496406 0.525157
-0.205221 -0.406015 1.43775 -2.483082 -4.537404e-06 3.066753 255 255 255 255 0.498296 0.522816
-0.205221 -0.316015 1.41775 -2.801662 1.043234 2.938311 255 255 255 255 0.498158 0.521780
-0.20522 -0.446015 1.35775 -3.141593 -1.684116e-06 -4.016297e-05 255 255 255 255 0.497362 0.523191
-0.20522 -0.236015 1.36775 -2.687994 -2.203344 -2.139502 255 255 255 255 0.497674 0.520827
-0.20522 -0.186015 1.28775 -2.835029 -2.859714 -1.197157 255 255 255 255 0.496827 0.520185
-0.20522 -0.166015 1.19775 -2.732626 -3.071556 0.02292221 255 255 255 255 0.495838 0.519872
-0.20522 -0.186015 1.10775 -2.793872 -2.865758 1.171597 255 255 255 255 0.494812 0.520012
-0.20522 -0.316015 1.16775 -3.141593 0 0 255 255 255 255 0.495359 0.521538
-0.20522 -0.236015 1.02775 -2.687977 -2.16453 2.164567 255 255 255 255 0.493868 0.520499
-0.36522 -0.496015 0.977752 -3.481506 1.17325 2.865438 255 255 255 255 0.493060 0.523389
0.23478 -0.496015 0.977752 0 1.17325 2.865438 255 255 255 255 0.493060 0.523389
0.23478 -0.406015 0.957752 -5.196065e-07 2.980232e-07 3.066782 255 255 255 255 0.492922 0.522353
-0.36522 -0.406015 0.957752 -0.4373353 3.665686e-06 3.066783 255 255 255 255 0.492922 0.522353
-0.36522 -0.576015 1.02775 -3.595208 2.16453 2.164567 255 255 255 255 0.493543 0.524341
0.23478 -0.576015 1.02775 0 2.16453 2.164567 255 255 255 255 0.493543 0.524341
-0.36522 -0.626015 1.10775 -3.700192 2.902829 0.8325202 255 255 255 255 0.494391 0.524984
0.23478 -0.626015 1.10775 0 1.332032 0.8325202 255 255 255 255 0.494391 0.524984
-0.34522 -0.646015 1.19775 -3.445295 3.189496 0.9136791 255 255 255 255 0.495379 0.525296
-0.36522 -0.626015 1.11775 -2.843042 2.861273 0.6562857 255 255 255 255 0.494503 0.524993
-0.33522 -0.636015 1.25775 -2.937665 2.665308 0.6506017 255 255 255 255 0.496061 0.525241
-0.25522 -0.576015 1.36775 -2.343914 1.62819 1.457827 255 255 255 255 0.497350 0.524669
-0.31522 -0.626015 1.28775 -2.682911 2.825776 0.7685609 255 255 255 255 0.496406 0.525157
-0.25522 -0.236015 1.36775 -2.234166 -2.347428 0.6167961 255 255 255 255 0.497674 0.520827
-0.205221 -0.296015 1.40775 -1.028819 -0.009949744 2.205891 255 255 255 255 0.498065 0.521544
-0.31522 -0.186015 1.28775 -2.70779 -2.86023 0.7365386 255 255 255 255 0.496827 0.520185
-0.33522 -0.176015 1.25775 -2.937664 -2.665308 0.6506014 255 255 255 255 0.496500 0.520043
-0.34522 -0.166015 1.19775 -3.415488 -3.329998 1.002881 255 255 255 255 0.495838 0.519872
-0.36522 -0.186015 1.11775 -2.848946 -2.888902 0.6311048 255 255 255 255 0.494923 0.520021
-0.36522 -0.186015 1.10775 -3.700192 -2.902829 0.8325201 255 255 255 255 0.494812 0.520012
-0.36522 -0.236015 1.02775 -3.595208 -2.164535 2.164564 255 255 255 255 0.493868 0.520499
-0.36522 -0.316014 0.977752 -3.481521 -1.173257 2.865438 255 255 255 255 0.493232 0.521355
0.23478 -0.316015 0.977752 -5.754641e-07 -0.3407536 1.533393 255 255 255 255 0.493232 0.521355
-0.205221 -0.496015 1.41775 0 -1.043235 2.938354 255 255 255 255 0.497986 0.523814
-0.185221 -0.496015 1.41775 -2.220816 -0.7309066 5.987567 255 255 255 255 0.497986 0.523814
-0.155221 -0.406015 1.43775 -2.16361 1.802109e-07 4.648639 255 255 255 255 0.498296 0.522816
-0.185221 -0.316015 1.41775 -2.22794 0.7614859 5.984502 255 255 255 255 0.498158 0.521780
-0.20522 -0.086015 1.40775 -0.8612714 -0.01777819 1.313559 255 255 255 255 0.498266 0.519171
-0.205221 -0.516015 1.40775 -1.115885 -0.2620405 2.664112 255 255 255 255 0.497855 0.524030
-0.205221 -0.726015 1.40775 -0.8713204 0 1.306982 255 255 255 255 0.497654 0.526403
-0.005221 -0.726015 1.47775 0 -2.719406 3.071857 255 255 255 255 0.498437 0.526470
-0.36522 -0.746015 0.957752 -3.11041 0 0 255 255 255 255 0.492597 0.526195
-0.365219 -0.066014 0.157752 -3.141593 0 -3.315948e-06 255 255 255 255 0.484291 0.517739
-0.365219 -0.776014 0.157752 -3.162369 0 -3.228041e-06 255 255 255 255 0.483612 0.525762
-0.36522 -0.066014 0.637752 -3.141589 0 -3.315948e-06 255 255 255 255 0.489665 0.518202
-0.365219 -0.166014 0.157752 -3.141593 0 -3.315948e-06 255 255 255 255 0.484195 0.518869
-0.36522 -0.166014 0.637752 -3.141593 -6.879966e-06 -1.841434e-05 255 255 255 255 0.489569 0.519332
-0.365219 -0.646014 0.157752 -3.141593 0 -3.315948e-06 255 255 255 255 0.483737 0.524293
-0.36522 -0.756014 0.637752 -3.151999 0 -3.403855e-06 255 255 255 255 0.489005 0.525999
-0.36522 -0.646014 0.637752 -3.141593 -2.570269e-06 -8.964116e-06 255 255 255 255 0.489110 0.524756
0.23478 -0.756015 0.807752 3.182387 0 3.283624e-06 255 255 255 255 0.407554 0.489254
0.18478 -0.496015 0.977752 -2.369111 0 1.507642 255 255 255 255 0.493060 0.523389
0.16478 -0.406015 0.957752 -1.790818 0 1.79082 255 255 255 255 0.492922 0.522353
3 0 1 2 
3 0 2 3 
3 4 5 6 
3 4 6 7 
3 8 9 3 
3 8 3 2 
3 2 5 10 
3 2 10 11 
3 1 0 12 
3 1 12 13 
3 6 1 14 
3 6 14 15 
3 15 6 5 
3 15 5 10 
3 11 10 15 
3 11 15 14 
3 14 13 8 
3 14 8 11 
3 13 12 9 
3 13 9 8 
3 16 17 18 
3 16 18 19 
3 17 20 21 
3 17 21 18 
3 20 22 23 
3 20 23 21 
3 22 24 25 
3 22 25 23 
3 24 26 27 
3 24 27 25 
3 26 28 29 
3 26 29 27 
3 28 30 31 
3 28 31 29 
3 30 32 33 
3 30 33 31 
3 32 34 35 
3 32 35 33 
3 34 36 37 
3 34 37 35 
3 36 38 39 
3 36 39 37 
3 38 40 41 
3 38 41 39 
3 40 42 43 
3 40 43 41 
3 42 44 45 
3 42 45 43 
3 44 46 47 
3 44 47 45 
3 46 16 19 
3 46 19 47 
3 9 48 49 
3 9 49 3 
3 3 49 50 
3 3 50 0 
3 0 50 51 
3 0 51 12 
3 12 51 48 
3 12 48 9 
3 48 52 53 
3 48 53 54 
3 54 55 56 
3 54 56 49 
3 55 57 58 
3 55 58 59 
3 56 59 60 
3 56 60 61 
3 61 60 62 
3 61 62 63 
3 63 62 64 
3 63 64 65 
3 66 51 67 
3 66 67 68 
3 69 67 50 
3 69 50 70 
3 71 72 69 
3 71 69 73 
3 73 70 74 
3 73 74 75 
3 75 74 76 
3 75 76 77 
3 78 79 71 
3 78 71 80 
3 80 71 73 
3 80 73 81 
3 81 73 75 
3 81 75 82 
3 82 75 77 
3 82 77 83 
3 83 77 84 
3 83 84 85 
3 86 85 87 
3 86 87 88 
3 89 86 88 
3 89 88 90 
3 91 89 90 
3 91 90 92 
3 93 91 92 
3 93 92 94 
3 95 96 94 
3 95 94 93 
3 97 98 96 
3 97 96 95 
3 99 100 98 
3 99 98 97 
3 101 102 100 
3 101 100 99 
3 103 104 102 
3 103 102 101 
3 105 106 104 
3 105 104 103 
3 107 108 106 
3 107 106 105 
3 78 109 108 
3 78 108 107 
3 80 110 109 
3 80 109 78 
3 81 111 110 
3 81 110 80 
3 82 112 111 
3 82 111 81 
3 83 87 112 
3 83 112 82 
3 111 112 113 
3 111 113 114 
3 112 87 115 
3 112 115 113 
3 87 115 116 
3 87 116 88 
3 88 116 117 
3 88 117 90 
3 90 117 118 
3 90 118 92 
3 92 118 119 
3 92 119 94 
3 94 96 120 
3 94 120 119 
3 96 98 121 
3 96 121 120 
3 98 100 122 
3 98 122 121 
3 100 102 123 
3 100 123 122 
3 102 104 124 
3 102 124 123 
3 104 106 125 
3 104 125 124 
3 106 108 126 
3 106 126 125 
3 108 109 127 
3 108 127 126 
3 109 110 128 
3 109 128 127 
3 110 111 114 
3 110 114 128 
3 129 130 131 
3 129 131 132 
3 132 131 133 
3 132 133 134 
3 134 133 135 
3 134 135 136 
3 136 135 137 
3 136 137 138 
3 129 139 140 
3 129 140 130 
3 138 137 141 
3 138 141 142 
3 143 144 139 
3 143 139 129 
3 143 138 142 
3 143 142 144 
3 121 122 131 
3 121 131 130 
3 122 123 133 
3 122 133 131 
3 123 124 135 
3 123 135 133 
3 124 125 137 
3 124 137 135 
3 130 140 145 
3 130 145 121 
3 146 145 140 
3 146 140 147 
3 148 146 147 
3 148 147 149 
3 137 125 148 
3 137 148 150 
3 151 152 139 
3 151 139 144 
3 153 139 152 
3 154 155 156 
3 154 156 139 
3 155 157 140 
3 155 140 156 
3 158 159 140 
3 158 140 157 
3 159 160 161 
3 159 161 140 
3 162 147 161 
3 162 161 160 
3 163 164 165 
3 163 165 166 
3 167 168 164 
3 167 164 163 
3 167 169 170 
3 167 170 168 
3 171 152 151 
3 171 151 172 
3 173 153 152 
3 173 152 171 
3 174 139 153 
3 174 153 175 
3 176 157 177 
3 178 158 157 
3 178 157 176 
3 179 159 158 
3 179 158 178 
3 180 181 160 
3 180 160 159 
3 182 183 162 
3 182 162 160 
3 183 184 147 
3 183 147 162 
3 184 166 165 
3 184 165 185 
3 186 187 188 
3 186 188 154 
3 154 188 189 
3 154 189 155 
3 190 177 189 
3 190 189 93 
3 65 187 191 
3 65 191 192 
3 93 65 193 
3 93 193 95 
3 95 193 64 
3 95 64 97 
3 97 64 62 
3 97 62 99 
3 194 56 167 
3 194 167 163 
3 56 61 171 
3 56 171 172 
3 61 63 174 
3 61 174 175 
3 86 85 184 
3 86 184 183 
3 89 86 181 
3 89 181 180 
3 91 89 178 
3 91 178 176 
3 195 50 49 
3 195 49 196 
3 197 195 198 
3 197 198 199 
3 200 196 201 
3 200 201 202 
3 197 201 194 
3 197 194 84 
3 53 52 66 
3 53 66 68 
3 52 48 51 
3 52 51 66 
3 53 68 79 
3 53 79 203 
3 203 78 107 
3 203 107 57 
3 58 57 107 
3 58 107 105 
3 59 58 105 
3 59 105 103 
3 59 103 101 
3 59 101 60 
3 62 60 101 
3 62 101 99 
3 1 19 18 
3 1 18 21 
3 1 21 23 
3 1 23 25 
3 2 25 27 
3 2 27 29 
3 2 29 31 
3 2 31 33 
3 4 33 35 
3 4 35 37 
3 4 37 39 
3 4 39 41 
3 7 41 43 
3 7 43 45 
3 7 45 47 
3 7 47 19 
3 65 64 193 
3 79 72 71 
3 77 76 84 
3 83 85 87 
3 150 204 142 
3 150 149 204 
3 149 205 204 
3 143 129 132 
3 143 132 134 
3 143 134 136 
3 143 136 138 
3 148 125 126 
3 148 126 127 
3 148 127 128 
3 148 128 114 
3 146 114 113 
3 146 113 115 
3 146 115 116 
3 146 116 117 
3 145 118 117 
3 145 119 118 
3 145 120 119 
3 145 121 120 
3 150 148 149 
3 169 172 151 
3 173 175 153 
3 191 187 186 
3 189 177 155 
3 179 180 159 
3 181 182 160 
3 93 188 65 
3 187 65 188 
3 188 93 189 
3 194 163 166 
3 56 169 167 
3 56 172 169 
3 61 173 171 
3 61 175 173 
3 63 187 174 
3 63 188 65 
3 184 85 166 
3 182 86 183 
3 181 86 182 
3 179 89 180 
3 178 89 179 
3 189 91 176 
3 93 188 91 
3 166 85 194 
3 198 17 16 
3 198 20 17 
3 198 22 20 
3 198 24 22 
3 200 26 24 
3 200 28 26 
3 200 30 28 
3 200 32 30 
3 202 34 32 
3 202 36 34 
3 202 38 36 
3 202 40 38 
3 199 42 40 
3 199 44 42 
3 199 46 44 
3 199 16 46 
