ply
format ascii 1.0
comment VCGLIB generated
element vertex 262
property float x
property float y
property float z
property float nx
property float ny
property float nz
property uchar red
property uchar green
property uchar blue
property uchar alpha
property float texture_u
property float texture_v
element face 501
property list uchar int vertex_indices
end_header
0.01315 -0.361342 2.44783 -0.2782291 4.307136 2.276351 255 255 255 255 0.448654 0.638480
-0.017841 -0.361189 2.45412 1.337816 3.882978 2.441442 255 255 255 255 0.448674 0.638253
-0.024409 -0.63039 2.50785 0.5403845 3.696591 2.574429 255 255 255 255 0.448723 0.638492
0.006583 -0.630543 2.50157 -0.325961 3.087204 2.666092 255 255 255 255 0.448719 0.638507
-0.050027 -0.350883 2.47018 2.17944 3.827785 1.376144 255 255 255 255 0.448705 0.638050
-0.0554 -0.630237 2.51414 1.720841 2.563495 1.953943 255 255 255 255 0.448728 0.638479
-0.062379 -0.350576 2.48882 3.084728 3.474661 1.213325 255 255 255 255 0.448720 0.637930
-0.068965 -0.629777 2.5427 2.430471 3.164993 0.6059736 255 255 255 255 0.448735 0.638477
-0.075926 -0.340118 2.51723 2.90409 3.647732 -0.4738644 255 255 255 255 0.448764 0.637863
-0.082512 -0.619318 2.57111 3.011156 1.209466 0.02994508 255 255 255 255 0.448746 0.638469
-0.069639 -0.339658 2.54821 3.569166 2.830222 -1.125901 255 255 255 255 0.448820 0.637940
-0.076206 -0.608859 2.60195 3.377952 -0.2099221 -0.6546905 255 255 255 255 0.448757 0.638470
-0.063333 -0.329199 2.57905 2.384499 3.413798 -2.223233 255 255 255 255 0.448895 0.638055
-0.069919 -0.608399 2.63294 2.060336 -0.3831908 -1.719529 255 255 255 255 0.448765 0.638483
-0.035981 -0.328892 2.60254 1.493278 3.173997 -3.245266 255 255 255 255 0.448931 0.638299
-0.041354 -0.608246 2.6465 1.36085 -0.5114637 -2.784711 255 255 255 255 0.448766 0.638499
-0.006202 -0.328892 2.60618 0.3812799 2.559418 -3.524956 255 255 255 255 0.448909 0.638551
-0.012788 -0.608093 2.66006 0.3164085 -0.5052888 -2.82653 255 255 255 255 0.448766 0.638516
0.023576 -0.328892 2.60982 -0.5970296 3.171299 -3.552751 255 255 255 255 0.448878 0.638801
0.018203 -0.608246 2.65378 -0.5857904 -0.5182008 -3.042384 255 255 255 255 0.448763 0.638530
0.05578 -0.329199 2.59361 -1.996588 3.394257 -2.723094 255 255 255 255 0.448795 0.639021
0.049195 -0.608399 2.64749 -1.619094 -0.3297558 -2.168873 255 255 255 255 0.448758 0.638545
0.069327 -0.339658 2.5652 -3.084827 2.809956 -2.085132 255 255 255 255 0.448705 0.639101
0.06276 -0.608859 2.61893 -3.122996 -0.2087305 -1.444577 255 255 255 255 0.448748 0.638556
0.082892 -0.340118 2.53664 -2.73393 3.70373 -0.8566834 255 255 255 255 0.448643 0.639150
0.076306 -0.619318 2.59052 -2.929177 1.206657 -0.6970739 255 255 255 255 0.448736 0.638553
0.076587 -0.350576 2.5058 -3.323227 3.409793 0.1897284 255 255 255 255 0.448621 0.639059
0.070001 -0.629777 2.55969 -2.506269 3.177945 -0.008273751 255 255 255 255 0.448728 0.638542
0.069086 -0.350883 2.48474 -2.169545 3.862225 0.9777153 255 255 255 255 0.448631 0.638925
0.063714 -0.630237 2.5287 -2.106201 2.531274 1.517102 255 255 255 255 0.448721 0.638537
0.041716 -0.361189 2.4614 -2.029167 3.924041 2.033855 255 255 255 255 0.448638 0.638712
0.035148 -0.63039 2.51513 -1.184059 3.63608 2.361116 255 255 255 255 0.448720 0.638523
-0.152668 -0.329199 2.56813 -2.319603 4.916731 -0.03796308 255 255 255 255 0.448956 0.637415
-0.155335 -0.340118 2.50752 -2.246477 4.93601 -1.374206 255 255 255 255 0.448694 0.637394
-0.11901 -0.318433 2.62246 -1.596658 5.248015 0.4837302 255 255 255 255 0.449211 0.637716
-0.074232 -0.31782 2.66822 -0.8976048 5.520558 1.303728 255 255 255 255 0.449437 0.638126
-0.015888 -0.317667 2.68543 -0.2202843 5.712378 1.325081 255 255 255 255 0.449455 0.638626
0.044882 -0.31782 2.68278 0.5304328 5.594371 1.426265 255 255 255 255 0.449315 0.639100
0.099365 -0.318433 2.64914 1.372704 5.357506 0.8688323 255 255 255 255 0.449003 0.639429
0.145116 -0.329199 2.60453 2.39397 4.85781 0.2704923 255 255 255 255 0.448695 0.639637
0.162301 -0.340118 2.54634 2.457269 5.018993 -0.4887854 255 255 255 255 0.448459 0.639572
0.159635 -0.351036 2.48573 2.497566 4.414266 -1.739144 255 255 255 255 0.448332 0.639401
0.125977 -0.361802 2.43141 1.834211 4.483649 -2.573095 255 255 255 255 0.448314 0.639112
0.079966 -0.372261 2.39572 1.344989 4.968522 -2.828534 255 255 255 255 0.448327 0.638786
0.022836 -0.372567 2.36859 0.2294719 4.272969 -3.199799 255 255 255 255 0.448327 0.638449
-0.039147 -0.372261 2.38116 -0.338931 4.94043 -3.121468 255 255 255 255 0.448369 0.638113
-0.092398 -0.361802 2.40472 -1.089344 4.65585 -2.890621 255 255 255 255 0.448414 0.637784
-0.138149 -0.351036 2.44934 -2.15406 4.416192 -2.044337 255 255 255 255 0.448507 0.637510
0.022445 -0.582543 2.37178 0.5770381 -1.933832 -5.886847 255 255 255 255 0.448120 0.638498
0.021102 -0.652381 2.38277 0.3797962 2.975509 -3.785239 255 255 255 255 0.448579 0.638629
-0.060733 -0.652074 2.39292 -0.7424468 2.782954 -3.50284 255 255 255 255 0.447659 0.638163
-0.058158 -0.57239 2.37185 -1.571265 -2.003218 -5.622986 255 255 255 255 0.447788 0.637880
-0.125124 -0.641462 2.42519 -2.008774 3.036912 -3.128359 255 255 255 255 0.446579 0.637188
-0.12378 -0.571624 2.4142 -4.06703 -1.852638 -4.286021 255 255 255 255 0.447273 0.637094
-0.172088 -0.630543 2.47973 -2.879065 3.220621 -2.258689 255 255 255 255 0.445765 0.635323
-0.170726 -0.550706 2.46859 -5.358192 -1.632384 -2.65914 255 255 255 255 0.447229 0.636048
-0.201626 -0.619318 2.55655 -3.052114 1.780702 -0.7195178 255 255 255 255 0.445765 0.632822
-0.200264 -0.539481 2.54541 -6.062473 -0.9822047 -0.5321283 255 255 255 255 0.447681 0.634976
-0.191459 -0.608093 2.63823 -2.901721 0.3060706 0.8902741 255 255 255 255 0.449543 0.632457
-0.188884 -0.528409 2.61716 -5.911895 -0.6353943 1.807423 255 255 255 255 0.449171 0.634864
-0.159014 -0.597174 2.70248 -2.448728 0.3424513 1.764907 255 255 255 255 0.452202 0.633904
-0.157652 -0.517336 2.69133 -4.900511 -0.3582069 3.750517 255 255 255 255 0.450808 0.635693
-0.10429 -0.586562 2.7493 -1.648828 0.4048471 2.699349 255 255 255 255 0.453689 0.636310
-0.102929 -0.506724 2.73816 -2.943285 0.0372477 5.443094 255 255 255 255 0.451649 0.637147
-0.027307 -0.586255 2.77886 -0.2676141 0.6748687 2.86685 255 255 255 255 0.454114 0.639289
-0.024733 -0.506571 2.75779 -0.6731104 0.3093437 6.171613 255 255 255 255 0.451888 0.638976
0.054528 -0.586562 2.76871 0.8542466 0.5018783 3.01135 255 255 255 255 0.452897 0.642055
0.05589 -0.506724 2.75757 1.438607 -0.0951401 6.016871 255 255 255 255 0.451161 0.640673
0.118918 -0.597174 2.73645 1.916043 0.2957894 2.352644 255 255 255 255 0.450780 0.643989
0.12028 -0.517337 2.7253 3.842415 -0.332047 4.837323 255 255 255 255 0.449948 0.641843
0.165882 -0.608093 2.6819 2.644242 0.257962 1.510281 255 255 255 255 0.447744 0.644655
0.168457 -0.528409 2.66083 5.36359 -0.6067296 3.08262 255 255 255 255 0.448137 0.642166
0.19542 -0.619318 2.60508 3.049012 1.823778 0.1376984 255 255 255 255 0.444058 0.643147
0.196782 -0.539481 2.59394 5.987582 -1.005716 1.070415 255 255 255 255 0.446775 0.641592
0.185253 -0.630544 2.52341 3.348331 3.204262 -1.612469 255 255 255 255 0.445598 0.640254
0.186615 -0.550706 2.51226 5.802527 -1.704785 -1.362966 255 255 255 255 0.446925 0.640336
0.152808 -0.641462 2.45916 2.700536 3.088999 -2.673222 255 255 255 255 0.447339 0.639239
0.154151 -0.571624 2.44816 4.876455 -1.826928 -3.348742 255 255 255 255 0.447457 0.639472
0.098085 -0.652074 2.41233 1.736203 2.789895 -3.156389 255 255 255 255 0.448174 0.638901
0.10066 -0.57239 2.39126 3.231194 -1.816307 -4.909288 255 255 255 255 0.447953 0.638979
-0.025815 -0.436426 2.76665 -0.7725627 0.3036883 6.004003 255 255 255 255 0.450790 0.638819
-0.10403 -0.446578 2.74717 -2.603675 0.07101254 5.317044 255 255 255 255 0.450809 0.637633
-0.024509 -0.386585 2.75596 -0.6154164 2.112387 5.679123 255 255 255 255 0.450256 0.638741
-0.102705 -0.386738 2.73634 -2.569604 2.139609 4.780273 255 255 255 255 0.450192 0.637870
-0.022009 -0.346897 2.73551 -0.4129799 3.935422 4.244325 255 255 255 255 0.449882 0.638687
-0.098992 -0.347203 2.70595 -2.396379 4.278581 3.380099 255 255 255 255 0.449786 0.637950
-0.177393 -0.457344 2.68799 -4.673081 -0.2733579 3.510557 255 255 255 255 0.450130 0.636456
-0.176068 -0.397504 2.67716 -4.47037 1.994761 2.968953 255 255 255 255 0.449738 0.636995
-0.153715 -0.357815 2.65913 -3.869145 4.100314 2.189266 255 255 255 255 0.449523 0.637370
-0.208625 -0.468416 2.61382 -5.772198 -0.6289488 1.671396 255 255 255 255 0.449152 0.635921
-0.2073 -0.408576 2.60298 -5.495475 1.803874 1.228266 255 255 255 255 0.449101 0.636610
-0.184947 -0.368887 2.58495 -4.865499 3.724268 0.8449468 255 255 255 255 0.449022 0.637031
-0.218791 -0.479641 2.53215 -5.817867 -0.9080108 -0.4968201 255 255 255 255 0.448223 0.635980
-0.217467 -0.419802 2.52131 -5.55006 1.309912 -0.7958701 255 255 255 255 0.448489 0.636600
-0.196327 -0.37996 2.5132 -4.792359 3.25893 -1.22414 255 255 255 255 0.448605 0.636987
-0.188059 -0.501019 2.44555 -5.199816 -1.557255 -2.471856 255 255 255 255 0.447746 0.636553
-0.186735 -0.441179 2.43471 -5.053508 0.9474357 -2.941724 255 255 255 255 0.448104 0.636949
-0.166808 -0.401184 2.43653 -4.397384 2.941556 -3.20154 255 255 255 255 0.448296 0.637232
-0.139882 -0.512091 2.38108 -3.519087 -1.71874 -4.212577 255 255 255 255 0.447758 0.637246
-0.138557 -0.452251 2.37024 -3.118093 0.8009899 -4.4645 255 255 255 255 0.448027 0.637430
-0.119844 -0.412103 2.38199 -2.905612 2.856181 -4.590913 255 255 255 255 0.448192 0.637598
-0.055639 -0.522703 2.35124 -1.376962 -1.713397 -5.736868 255 255 255 255 0.447920 0.637938
-0.054315 -0.462863 2.3404 -1.475309 0.07509544 -5.86865 255 255 255 255 0.448077 0.637980
-0.055435 -0.412716 2.34957 -1.379064 2.35583 -5.155764 255 255 255 255 0.448207 0.638010
0.026196 -0.52301 2.34109 0.6408982 -1.840812 -5.601258 255 255 255 255 0.448073 0.638450
0.02752 -0.46317 2.33026 0.729 0.1123699 -5.751844 255 255 255 255 0.448132 0.638439
0.026382 -0.423021 2.33957 0.6394543 2.149912 -5.527472 255 255 255 255 0.448175 0.638440
0.103179 -0.522703 2.37065 2.890543 -1.76041 -5.101089 255 255 255 255 0.447976 0.638906
0.104503 -0.462863 2.35981 2.736816 -0.004420832 -5.425343 255 255 255 255 0.448072 0.638870
0.103383 -0.412716 2.36898 2.571908 2.523872 -4.645784 255 255 255 255 0.448173 0.638855
0.177754 -0.512091 2.4199 4.314341 -1.81908 -3.255377 255 255 255 255 0.447729 0.639456
0.179079 -0.452251 2.40907 4.239808 0.7767613 -3.467728 255 255 255 255 0.447941 0.639351
0.158088 -0.412103 2.41596 3.990369 3.120464 -3.477834 255 255 255 255 0.448091 0.639233
0.208986 -0.501019 2.49408 5.647192 -1.536724 -1.217287 255 255 255 255 0.447475 0.640045
0.210311 -0.441179 2.48324 5.558383 1.015841 -1.665666 255 255 255 255 0.447862 0.639804
0.190533 -0.401184 2.48021 5.018692 2.818256 -2.189958 255 255 255 255 0.448084 0.639599
0.217959 -0.479641 2.58553 5.76719 -0.8797542 0.9842268 255 255 255 255 0.447622 0.640781
0.219283 -0.419802 2.57469 5.580409 1.305585 0.5138577 255 255 255 255 0.448054 0.640269
0.200719 -0.37996 2.56173 4.939126 3.257108 0.03587578 255 255 255 255 0.448269 0.639933
0.188421 -0.468416 2.66235 5.201589 -0.6598185 2.984798 255 255 255 255 0.448448 0.641130
0.189746 -0.408576 2.65151 5.037003 1.795197 2.535781 255 255 255 255 0.448604 0.640450
0.172394 -0.368887 2.62862 4.566429 3.729998 1.884763 255 255 255 255 0.448651 0.640022
0.140244 -0.457344 2.72682 3.708397 -0.2609426 4.526299 255 255 255 255 0.449521 0.640905
0.141568 -0.397504 2.71598 3.588058 2.020108 3.95849 255 255 255 255 0.449302 0.640271
0.124217 -0.357815 2.69309 3.225465 4.01369 3.188161 255 255 255 255 0.449203 0.639846
0.054788 -0.446578 2.76658 1.270475 0.0882455 5.802221 255 255 255 255 0.450490 0.639965
0.056113 -0.386738 2.75575 1.279557 2.256566 5.170238 255 255 255 255 0.449965 0.639561
0.059826 -0.347203 2.72536 1.483552 4.132987 3.991864 255 255 255 255 0.449600 0.639368
-0.249089 -0.640849 2.45033 -3.189011 3.048327 -1.111337 255 255 255 255 0.443649 0.635729
-0.261182 -0.619318 2.54927 -3.045891 2.904919 -0.6406025 255 255 255 255 0.440318 0.632457
-0.159995 -0.652074 2.38079 -0.07696314 3.068874 -0.6903318 255 255 255 255 0.446025 0.637788
-0.093178 -0.662993 2.32867 -0.4118296 5.955173 -1.805281 255 255 255 255 0.447755 0.638938
0.040454 -0.684831 2.22443 0.3054761 3.03108 -0.5471749 255 255 255 255 0.451544 0.640872
0.197346 -0.652074 2.42446 1.809507 5.424997 -1.872465 255 255 255 255 0.448029 0.638761
0.247218 -0.640849 2.51099 3.182399 4.266111 -1.299143 255 255 255 255 0.444403 0.638972
0.254977 -0.619318 2.61236 3.162383 2.887452 0.09340499 255 255 255 255 0.438333 0.641794
0.103446 -0.795278 2.20361 2.208409 -3.275205 -1.209733 255 255 255 255 0.474156 0.643974
0.482065 -0.860484 1.90832 2.546213 -3.124794 -1.613141 255 255 255 255 0.473671 0.643014
0.498279 -0.860024 1.94052 2.10074 -3.813773 -2.225245 255 255 255 255 0.472336 0.642950
0.120872 -0.794971 2.22588 1.415094 -3.139923 -1.924801 255 255 255 255 0.474091 0.643977
0.524381 -0.879562 1.97424 1.397955 -2.880789 -3.622259 255 255 255 255 0.471331 0.642964
0.146974 -0.814509 2.2596 0.6096504 -2.749082 -2.936172 255 255 255 255 0.474051 0.643930
0.531825 -0.909252 1.99576 0.5994879 -2.26621 -4.172435 255 255 255 255 0.470840 0.643107
0.154418 -0.844199 2.28112 0.6331769 -1.634079 -3.57671 255 255 255 255 0.474041 0.643923
0.540482 -0.939095 2.00735 1.17441 -0.6840698 -4.536731 255 255 255 255 0.470517 0.643351
0.163057 -0.884041 2.29287 0.05658942 -0.5448849 -4.105282 255 255 255 255 0.474022 0.643888
0.530482 -0.97909 2.00675 0.7140094 0.4007996 -4.654447 255 255 255 255 0.470764 0.643667
0.153075 -0.914037 2.29211 0.8137136 0.3394262 -4.017357 255 255 255 255 0.474046 0.643905
0.521694 -1.01924 1.99622 1.896449 1.341725 -4.186683 255 255 255 255 0.471248 0.643972
0.144287 -0.954186 2.28158 0.3728275 1.486945 -3.995559 255 255 255 255 0.474054 0.643878
0.494305 -1.03954 1.97304 1.952641 2.540667 -3.518428 255 255 255 255 0.472280 0.644353
0.115685 -0.974337 2.26833 1.565512 1.447272 -2.894994 255 255 255 255 0.474122 0.643872
0.47686 -1.04985 1.95091 2.670002 2.633207 -2.813453 255 255 255 255 0.473424 0.644749
0.099434 -0.994794 2.23643 2.022493 2.786735 -1.915347 255 255 255 255 0.474156 0.643875
0.45072 -1.05031 1.9175 3.765452 2.410007 -1.647672 255 255 255 255 0.475018 0.645048
0.073314 -0.985256 2.20286 3.114964 2.537497 -1.486478 255 255 255 255 0.474200 0.643887
0.434544 -1.03077 1.88499 4.10373 1.892905 -0.7037714 255 255 255 255 0.476819 0.645249
0.055906 -0.975563 2.18043 3.216844 2.233613 -0.6493769 255 255 255 255 0.474257 0.643887
0.417174 -1.00108 1.86226 4.717489 1.214966 -0.1557756 255 255 255 255 0.478404 0.645100
0.038536 -0.945874 2.1577 3.560563 0.8800488 0.0742774 255 255 255 255 0.474277 0.643900
0.418443 -0.971238 1.85188 4.358787 -0.1941229 0.1958582 255 255 255 255 0.479381 0.644777
0.041036 -0.906185 2.13724 4.279859 0.1473822 0.9829874 255 255 255 255 0.474319 0.643942
0.418517 -0.931243 1.85127 4.733768 -0.9877638 0.4676184 255 255 255 255 0.478467 0.644254
0.041111 -0.86619 2.13663 3.469404 -1.059671 0.592185 255 255 255 255 0.474286 0.643960
0.437231 -0.891094 1.86301 3.993392 -2.436755 -0.2567779 255 255 255 255 0.476912 0.643654
0.059806 -0.83604 2.14853 3.672873 -2.440732 0.3975194 255 255 255 255 0.474267 0.643959
0.454694 -0.87079 1.88498 3.278434 -3.350768 -0.700093 255 255 255 255 0.475221 0.643199
0.077288 -0.805737 2.17035 2.684916 -2.707006 -0.1179241 255 255 255 255 0.474213 0.643971
0.591418 -1.00801 2.08517 3.826875 -1.100985 0.7025605 255 255 255 255 0.469626 0.643046
0.601493 -0.928023 2.08517 4.015511 0.1099851 0.7901525 255 255 255 255 0.469405 0.643139
0.563935 -1.07831 2.06275 3.358474 -2.15941 0.3806943 255 255 255 255 0.470301 0.642991
0.519064 -1.12892 2.01775 2.725404 -3.048187 -0.3276466 255 255 255 255 0.471286 0.642935
0.475461 -1.14968 1.96236 2.199018 -3.173192 -1.238681 255 255 255 255 0.472842 0.642976
0.421969 -1.15045 1.90546 1.249623 -3.468372 -1.951217 255 255 255 255 0.474649 0.642780
0.389617 -1.11137 1.84044 0.8470223 -2.656194 -2.89203 255 255 255 255 0.477631 0.642987
0.364802 -1.052 1.79619 0.5196379 -1.709427 -3.614268 255 255 255 255 0.481357 0.643937
0.347506 -0.98231 1.77285 -0.006464362 -0.690351 -4.097701 255 255 255 255 0.485643 0.646125
0.367507 -0.902319 1.77406 0.5670117 0.5300945 -4.083607 255 255 255 255 0.480523 0.646339
0.39499 -0.832021 1.79648 0.8335134 1.385803 -3.894361 255 255 255 255 0.476797 0.645820
0.431148 -0.781567 1.83035 1.377672 2.200294 -2.875847 255 255 255 255 0.474250 0.645408
0.483464 -0.760649 1.89687 2.319199 2.780685 -2.375735 255 255 255 255 0.472268 0.644311
0.52703 -0.759883 1.95256 2.807555 2.648225 -1.223464 255 255 255 255 0.470978 0.644024
0.570521 -0.799111 2.00886 3.461714 1.927463 -0.4635468 255 255 255 255 0.470171 0.643515
0.595336 -0.858491 2.05312 3.883312 0.9866236 0.1306121 255 255 255 255 0.469636 0.643269
-0.034567 -0.575336 2.83826 -0.3646341 2.224886 2.49272 255 255 255 255 0.425118 0.634723
-0.032327 -0.675631 2.81993 -0.7671499 -1.760966 5.813172 255 255 255 255 0.431720 0.635987
0.068166 -0.665786 2.82198 1.50572 -1.34199 5.560903 255 255 255 255 0.432723 0.637263
0.067121 -0.575643 2.83054 0.8324147 2.375292 2.327803 255 255 255 255 0.430029 0.636984
0.154872 -0.656707 2.77199 3.766175 -0.7955994 4.845253 255 255 255 255 0.434730 0.638532
0.153789 -0.586562 2.78085 1.859094 2.516394 1.971775 255 255 255 255 0.433178 0.638494
0.22417 -0.637936 2.69956 5.260614 -0.3359934 3.202077 255 255 255 255 0.436641 0.640235
0.223032 -0.597787 2.70888 2.412924 2.327253 1.172567 255 255 255 255 0.435768 0.639891
-0.026466 -0.786385 2.77198 -0.540442 -3.748648 4.422527 255 255 255 255 0.435947 0.636805
-0.009652 -0.878521 2.6344 -0.4226894 -5.198392 3.391053 255 255 255 255 0.440383 0.637623
0.090841 -0.868675 2.63645 1.498708 -4.921301 3.43152 255 255 255 255 0.440608 0.638508
0.074027 -0.776539 2.77403 1.248123 -3.500251 4.413307 255 255 255 255 0.436233 0.637733
0.170344 -0.818681 2.6454 3.339691 -4.192542 3.130694 255 255 255 255 0.439997 0.639328
0.158325 -0.757155 2.74373 3.099809 -2.878824 3.937016 255 255 255 255 0.437194 0.638584
0.232438 -0.758995 2.63191 5.024289 -2.662667 2.262255 255 255 255 255 0.439786 0.640278
0.225216 -0.728079 2.69101 4.560326 -1.851249 2.847565 255 255 255 255 0.438134 0.639819
-0.131402 -0.575643 2.80627 -1.291826 2.319514 2.082138 255 255 255 255 0.430480 0.634392
-0.130357 -0.665786 2.79772 -2.71443 -1.287624 5.071077 255 255 255 255 0.433062 0.635154
-0.203552 -0.586562 2.73717 -2.287639 2.557888 1.4723 255 255 255 255 0.433949 0.634101
-0.202469 -0.656707 2.72831 -4.822666 -0.8381423 3.799632 255 255 255 255 0.435344 0.634700
-0.253423 -0.597787 2.65065 -2.659092 2.380826 0.511357 255 255 255 255 0.436934 0.633669
-0.252285 -0.637936 2.64133 -5.896901 -0.3657549 1.796902 255 255 255 255 0.437746 0.633801
-0.124496 -0.776539 2.74977 -2.263128 -3.494407 4.005408 255 255 255 255 0.436416 0.636044
-0.107681 -0.868675 2.61219 -2.247998 -4.942887 2.965029 255 255 255 255 0.440523 0.636856
-0.199016 -0.757155 2.70006 -3.98408 -2.842717 3.121995 255 255 255 255 0.437503 0.635633
-0.186997 -0.818681 2.60172 -3.999588 -4.223883 2.202065 255 255 255 255 0.440105 0.635997
-0.251239 -0.728078 2.63278 -5.186446 -1.760609 1.684174 255 255 255 255 0.438763 0.634976
-0.244017 -0.758995 2.57368 -5.460067 -2.638306 0.9029765 255 255 255 255 0.440216 0.635290
0.267262 -0.953419 2.34698 4.802386 -2.930079 1.548248 255 255 255 255 0.453485 0.640709
0.288476 -0.873582 2.33826 6.063821 -0.575473 0.9132417 255 255 255 255 0.453422 0.640474
0.253634 -0.689157 2.62335 5.946516 -0.4921606 1.571672 255 255 255 255 0.438946 0.641079
0.206381 -1.01326 2.35054 3.342088 -4.524652 1.919519 255 255 255 255 0.453214 0.640673
0.125684 -1.0531 2.35137 1.458282 -5.133487 3.084278 255 255 255 255 0.452500 0.640128
0.026386 -1.0731 2.33954 -0.08404854 -5.523599 1.722543 255 255 255 255 0.451891 0.639501
-0.072839 -1.0531 2.32711 -2.360772 -5.065117 2.585196 255 255 255 255 0.450975 0.638934
-0.15096 -1.01326 2.30687 -3.566247 -4.61242 0.9611236 255 255 255 255 0.450311 0.638650
-0.209192 -0.953419 2.28875 -5.04508 -2.924596 0.3264661 255 255 255 255 0.449687 0.638582
-0.227683 -0.873582 2.27518 -6.297659 -0.8545825 -0.4620384 255 255 255 255 0.449045 0.638647
-0.262526 -0.689156 2.56027 -6.148471 -0.4988818 0.08932591 255 255 255 255 0.440154 0.634549
0.269688 -0.953726 2.32713 4.519638 -2.307873 3.149245 255 255 255 255 0.454210 0.640806
0.290902 -0.873889 2.31841 5.189238 0.2676013 2.943062 255 255 255 255 0.454277 0.640594
0.208807 -1.01356 2.33069 3.054894 -4.186598 2.818319 255 255 255 255 0.454115 0.640900
0.128092 -1.06341 2.33167 1.693945 -5.36937 1.608487 255 255 255 255 0.453284 0.640187
0.028812 -1.07341 2.31969 -0.2292549 -5.995595 1.482862 255 255 255 255 0.452594 0.639639
-0.070431 -1.06341 2.30741 -2.017399 -5.385907 1.112184 255 255 255 255 0.451592 0.639083
-0.148534 -1.01356 2.28702 -3.975103 -4.794578 0.4306003 255 255 255 255 0.450725 0.638791
-0.206766 -0.953726 2.2689 -5.391311 -2.862348 -0.2544647 255 255 255 255 0.450045 0.638675
-0.225257 -0.873888 2.25533 -2.808001 -0.692232 -0.2463832 255 255 255 255 0.449434 0.638545
0.129305 -1.06356 2.32175 1.723222 -5.759347 1.524179 255 255 255 255 0.453991 0.640368
0.031219 -1.08371 2.29999 -0.6870329 -5.704649 1.504236 255 255 255 255 0.453331 0.639720
-0.066792 -1.06387 2.27763 -1.93666 -5.782802 -0.6121467 255 255 255 255 0.452236 0.639092
-0.144914 -1.02402 2.25739 -3.39276 -4.559551 -0.7886553 255 255 255 255 0.451244 0.638835
-0.201933 -0.964338 2.22935 -4.161457 -2.640995 -1.83154 255 255 255 255 0.450523 0.638643
-0.220423 -0.884501 2.21578 -4.90536 -0.7982741 -2.615625 255 255 255 255 0.449937 0.638503
0.172874 -0.706515 2.13012 0.1318419 5.994649 -1.117592 255 255 255 255 0.456497 0.640997
0.216421 -0.715747 2.18596 1.628774 6.000561 0.594768 255 255 255 255 0.455493 0.640652
0.258718 -0.744824 2.25203 2.508713 4.767052 2.696118 255 255 255 255 0.454798 0.640099
0.283532 -0.804203 2.29629 4.750077 2.879707 1.973171 255 255 255 255 0.454385 0.640005
0.252132 -1.02402 2.30592 2.416356 -3.39384 4.359887 255 255 255 255 0.454990 0.641073
0.20726 -1.07463 2.26092 1.429508 -5.304612 2.922772 255 255 255 255 0.455645 0.640923
0.163639 -1.10539 2.20568 -0.04664302 -5.936716 1.23924 255 255 255 255 0.456663 0.640816
0.111379 -1.09632 2.1387 -1.823405 -5.748802 -1.075502 255 255 255 255 0.457632 0.640405
0.077814 -1.05709 2.08361 -2.858949 -4.846502 -2.70677 255 255 255 255 0.458512 0.640450
0.05298 -1.00771 2.03951 -3.485121 -3.273068 -3.839698 255 255 255 255 0.459123 0.640827
0.046842 -0.928176 2.00731 -3.784488 -0.7883218 -4.766061 255 255 255 255 0.459666 0.640719
0.056898 -0.858184 2.00746 -3.405961 1.631303 -4.894302 255 255 255 255 0.459257 0.641145
0.084381 -0.787886 2.02988 -2.627418 3.680939 -4.200679 255 255 255 255 0.458540 0.641097
0.119326 -0.737278 2.07367 -1.462365 5.21441 -3.000677 255 255 255 255 0.457426 0.641104
-0.209135 -0.804663 2.20585 -3.425254 1.530079 -4.75247 255 255 255 255 0.449745 0.638305
-0.181671 -0.744364 2.22843 -2.364976 3.924278 -4.144111 255 255 255 255 0.449169 0.638152
-0.1368 -0.693756 2.27343 -1.37661 5.283255 -2.988837 255 255 255 255 0.448774 0.637867
-0.220275 -0.80451 2.21457 -4.567127 0.8623962 -2.958093 255 255 255 255 0.449397 0.638270
-0.226209 -0.733752 2.26312 -3.830303 2.277624 -2.391855 255 255 255 255 0.448385 0.638034
-0.237015 -0.672379 2.35154 -3.145096 2.89573 -1.5566 255 255 255 255 0.446302 0.637534
0.215374 -0.744364 2.27696 3.093254 4.536769 0.69237 255 255 255 255 0.453686 0.639897
0.137271 -0.694523 2.25657 1.77942 5.838251 -1.140693 255 255 255 255 0.452738 0.640607
-0.003103 -0.619318 2.58082 0.1337209 6.182389 -1.093976 255 255 255 255 0.430301 0.635570
0.102047 -0.895113 2.21506 4.920127 -0.8617693 -3.79169 255 255 255 255 0.474164 0.643920
3 0 1 2 
3 0 2 3 
3 1 4 5 
3 1 5 2 
3 4 6 7 
3 4 7 5 
3 6 8 9 
3 6 9 7 
3 8 10 11 
3 8 11 9 
3 10 12 13 
3 10 13 11 
3 12 14 15 
3 12 15 13 
3 14 16 17 
3 14 17 15 
3 16 18 19 
3 16 19 17 
3 18 20 21 
3 18 21 19 
3 20 22 23 
3 20 23 21 
3 22 24 25 
3 22 25 23 
3 24 26 27 
3 24 27 25 
3 26 28 29 
3 26 29 27 
3 28 30 31 
3 28 31 29 
3 30 0 3 
3 30 3 31 
3 32 10 8 
3 32 8 33 
3 34 12 10 
3 34 10 32 
3 35 14 12 
3 35 12 34 
3 36 16 14 
3 36 14 35 
3 37 18 16 
3 37 16 36 
3 38 20 18 
3 38 18 37 
3 39 22 20 
3 39 20 38 
3 40 24 22 
3 40 22 39 
3 41 26 24 
3 41 24 40 
3 42 28 26 
3 42 26 41 
3 43 30 28 
3 43 28 42 
3 44 0 30 
3 44 30 43 
3 0 44 45 
3 0 45 1 
3 46 4 1 
3 46 1 45 
3 47 6 4 
3 47 4 46 
3 33 8 6 
3 33 6 47 
3 48 49 50 
3 48 50 51 
3 51 50 52 
3 51 52 53 
3 53 52 54 
3 53 54 55 
3 55 54 56 
3 55 56 57 
3 57 56 58 
3 57 58 59 
3 59 58 60 
3 59 60 61 
3 61 60 62 
3 61 62 63 
3 63 62 64 
3 63 64 65 
3 65 64 66 
3 65 66 67 
3 67 66 68 
3 67 68 69 
3 69 68 70 
3 69 70 71 
3 71 70 72 
3 71 72 73 
3 73 72 74 
3 73 74 75 
3 75 74 76 
3 75 76 77 
3 77 76 78 
3 77 78 79 
3 79 78 49 
3 79 49 48 
3 63 65 80 
3 63 80 81 
3 81 80 82 
3 81 82 83 
3 83 82 84 
3 83 84 85 
3 85 84 36 
3 85 36 35 
3 61 63 81 
3 61 81 86 
3 86 81 83 
3 86 83 87 
3 87 83 85 
3 87 85 88 
3 88 85 35 
3 88 35 34 
3 59 61 86 
3 59 86 89 
3 89 86 87 
3 89 87 90 
3 90 87 88 
3 90 88 91 
3 91 88 34 
3 91 34 32 
3 57 59 89 
3 57 89 92 
3 92 89 90 
3 92 90 93 
3 93 90 91 
3 93 91 94 
3 94 91 32 
3 94 32 33 
3 55 57 92 
3 55 92 95 
3 95 92 93 
3 95 93 96 
3 96 93 94 
3 96 94 97 
3 97 94 33 
3 97 33 47 
3 53 55 95 
3 53 95 98 
3 98 95 96 
3 98 96 99 
3 99 96 97 
3 99 97 100 
3 100 97 47 
3 100 47 46 
3 51 53 98 
3 51 98 101 
3 101 98 99 
3 101 99 102 
3 102 99 100 
3 102 100 103 
3 103 100 46 
3 103 46 45 
3 48 51 101 
3 48 101 104 
3 104 101 102 
3 104 102 105 
3 105 102 103 
3 105 103 106 
3 106 103 45 
3 106 45 44 
3 79 48 104 
3 79 104 107 
3 107 104 105 
3 107 105 108 
3 108 105 106 
3 108 106 109 
3 109 106 44 
3 109 44 43 
3 77 79 107 
3 77 107 110 
3 110 107 108 
3 110 108 111 
3 111 108 109 
3 111 109 112 
3 112 109 43 
3 112 43 42 
3 75 77 110 
3 75 110 113 
3 113 110 111 
3 113 111 114 
3 114 111 112 
3 114 112 115 
3 115 112 42 
3 115 42 41 
3 73 75 113 
3 73 113 116 
3 116 113 114 
3 116 114 117 
3 117 114 115 
3 117 115 118 
3 118 115 41 
3 118 41 40 
3 71 73 116 
3 71 116 119 
3 119 116 117 
3 119 117 120 
3 120 117 118 
3 120 118 121 
3 121 118 40 
3 121 40 39 
3 69 71 119 
3 69 119 122 
3 122 119 120 
3 122 120 123 
3 123 120 121 
3 123 121 124 
3 124 121 39 
3 124 39 38 
3 67 69 122 
3 67 122 125 
3 125 122 123 
3 125 123 126 
3 126 123 124 
3 126 124 127 
3 127 124 38 
3 127 38 37 
3 65 67 125 
3 65 125 80 
3 80 125 126 
3 80 126 82 
3 82 126 127 
3 82 127 84 
3 84 127 37 
3 84 37 36 
3 128 129 56 
3 128 56 54 
3 130 128 54 
3 130 54 52 
3 131 130 52 
3 131 52 50 
3 132 131 50 
3 132 50 49 
3 133 132 78 
3 133 78 76 
3 134 133 76 
3 134 76 74 
3 135 134 74 
3 135 74 72 
3 136 137 138 
3 136 138 139 
3 139 138 140 
3 139 140 141 
3 141 140 142 
3 141 142 143 
3 143 142 144 
3 143 144 145 
3 145 144 146 
3 145 146 147 
3 147 146 148 
3 147 148 149 
3 149 148 150 
3 149 150 151 
3 151 150 152 
3 151 152 153 
3 153 152 154 
3 153 154 155 
3 155 154 156 
3 155 156 157 
3 157 156 158 
3 157 158 159 
3 159 158 160 
3 159 160 161 
3 161 160 162 
3 161 162 163 
3 163 162 164 
3 163 164 165 
3 165 164 166 
3 165 166 167 
3 167 166 137 
3 167 137 136 
3 168 146 144 
3 168 144 169 
3 170 148 146 
3 170 146 168 
3 171 150 148 
3 171 148 170 
3 172 152 150 
3 172 150 171 
3 173 154 152 
3 173 152 172 
3 174 156 154 
3 174 154 173 
3 175 158 156 
3 175 156 174 
3 176 160 158 
3 176 158 175 
3 177 162 160 
3 177 160 176 
3 178 164 162 
3 178 162 177 
3 179 166 164 
3 179 164 178 
3 180 137 166 
3 180 166 179 
3 181 138 137 
3 181 137 180 
3 182 140 138 
3 182 138 181 
3 183 142 140 
3 183 140 182 
3 169 144 142 
3 169 142 183 
3 184 185 186 
3 184 186 187 
3 187 186 188 
3 187 188 189 
3 189 188 190 
3 189 190 191 
3 192 193 194 
3 192 194 195 
3 195 194 196 
3 195 196 197 
3 197 196 198 
3 197 198 199 
3 185 184 200 
3 185 200 201 
3 201 200 202 
3 201 202 203 
3 203 202 204 
3 203 204 205 
3 193 192 206 
3 193 206 207 
3 207 206 208 
3 207 208 209 
3 209 208 210 
3 209 210 211 
3 212 213 214 
3 212 214 198 
3 215 212 198 
3 215 198 196 
3 216 215 196 
3 216 196 194 
3 217 216 194 
3 217 194 193 
3 218 217 193 
3 218 193 207 
3 219 218 207 
3 219 207 209 
3 220 219 209 
3 220 209 211 
3 221 220 211 
3 221 211 222 
3 223 224 213 
3 223 213 212 
3 225 223 212 
3 225 212 215 
3 226 225 215 
3 226 215 216 
3 227 226 216 
3 227 216 217 
3 228 227 217 
3 228 217 218 
3 229 228 218 
3 229 218 219 
3 230 229 219 
3 230 219 220 
3 231 230 220 
3 231 220 221 
3 225 226 232 
3 226 227 233 
3 226 233 232 
3 227 228 234 
3 227 234 233 
3 228 229 235 
3 228 235 234 
3 229 230 236 
3 229 236 235 
3 230 231 237 
3 230 237 236 
3 238 239 181 
3 238 181 180 
3 239 240 182 
3 239 182 181 
3 240 241 183 
3 240 183 182 
3 241 224 169 
3 241 169 183 
3 224 223 168 
3 224 168 169 
3 223 242 170 
3 223 170 168 
3 242 243 171 
3 242 171 170 
3 243 244 172 
3 243 172 171 
3 244 245 173 
3 244 173 172 
3 245 246 174 
3 245 174 173 
3 246 247 175 
3 246 175 174 
3 247 248 176 
3 247 176 175 
3 248 249 177 
3 248 177 176 
3 249 250 178 
3 249 178 177 
3 250 251 179 
3 250 179 178 
3 251 238 180 
3 251 180 179 
3 223 225 242 
3 242 225 232 
3 242 232 243 
3 243 232 233 
3 243 233 244 
3 244 233 234 
3 244 234 245 
3 245 234 235 
3 245 235 246 
3 246 235 236 
3 246 236 247 
3 247 236 237 
3 247 237 248 
3 248 237 252 
3 248 252 249 
3 249 252 253 
3 249 253 250 
3 250 253 254 
3 250 254 251 
3 251 254 131 
3 251 131 238 
3 252 255 256 
3 252 256 253 
3 253 256 257 
3 253 257 254 
3 254 257 128 
3 254 128 131 
3 241 240 258 
3 240 239 259 
3 240 259 258 
3 239 238 132 
3 239 132 259 
3 221 256 255 
3 221 255 237 
3 221 128 257 
3 221 257 256 
3 221 222 129 
3 221 129 128 
3 260 129 204 
3 260 204 202 
3 260 202 200 
3 260 200 184 
3 260 184 187 
3 260 187 189 
3 260 189 191 
3 260 191 135 
3 260 7 9 
3 260 5 7 
3 260 2 5 
3 260 3 2 
3 260 31 3 
3 260 29 31 
3 260 27 29 
3 260 25 27 
3 78 132 49 
3 261 136 139 
3 261 139 141 
3 261 141 143 
3 261 143 145 
3 261 145 147 
3 261 147 149 
3 261 149 151 
3 261 151 153 
3 261 153 155 
3 261 155 157 
3 261 157 159 
3 261 159 161 
3 261 161 163 
3 261 163 165 
3 261 165 167 
3 261 167 136 
3 191 190 135 
3 185 195 186 
3 186 197 188 
3 188 199 190 
3 190 214 135 
3 195 185 192 
3 197 186 195 
3 199 188 197 
3 214 190 199 
3 199 198 214 
3 205 204 129 
3 205 222 210 
3 222 205 129 
3 206 185 201 
3 208 201 203 
3 210 203 205 
3 185 206 192 
3 201 208 206 
3 203 210 208 
3 211 210 222 
3 237 255 252 
3 213 135 214 
3 241 213 224 
3 135 213 241 
3 241 134 135 
3 241 258 134 
3 133 134 258 
3 258 259 133 
3 132 133 259 
