ply
format ascii 1.0
comment VCGLIB generated
element vertex 196
property float x
property float y
property float z
property float nx
property float ny
property float nz
property uchar red
property uchar green
property uchar blue
property uchar alpha
property float texture_u
property float texture_v
element face 318
property list uchar int vertex_indices
end_header
0.4 0.72 1.60088 1.570796 1.570798 1.570803 255 255 255 255 0.576942 0.634394
0.4 -0.72 1.60088 1.570796 -1.570801 1.570803 255 255 255 255 0.429789 0.634394
0.400001 -0.72 1.36088 1.570796 -1.570792 -1.570789 255 255 255 255 0.429789 0.620991
0.400001 0.72 1.36088 1.570796 1.570793 -1.57079 255 255 255 255 0.576942 0.620991
-0.4 -0.72 1.60088 -1.570796 -1.570797 1.57079 255 255 255 255 0.503748 0.612545
-0.4 0.72 1.60088 -1.570796 1.570792 1.57079 255 255 255 255 0.513050 0.612545
-0.399999 0.72 1.36088 -1.570796 1.570801 -1.570803 255 255 255 255 0.513050 0.610980
-0.399999 -0.72 1.36088 -1.570796 -1.570801 -1.570803 255 255 255 255 0.503748 0.610980
-0.24 0.26 1.60088 -2.442117 -1.306982 0 255 255 255 255 0.510078 0.612545
-0.24 0.26 2.04088 -2.442117 -1.306981 2.158799 255 255 255 255 0.510078 0.615414
-0.24 0.54 2.04088 -2.442117 1.306982 2.158799 255 255 255 255 0.511887 0.615414
-0.24 0.54 1.60088 -2.442117 1.306982 0 255 255 255 255 0.511887 0.612545
0.14 0.16 1.60088 1.306982 -2.442117 0 255 255 255 255 0.509432 0.612545
0.14 0.16 2.04088 1.306981 -2.442117 2.158799 255 255 255 255 0.509432 0.615414
-0.14 0.16 2.04088 -1.306982 -2.442117 2.158799 255 255 255 255 0.509432 0.615414
-0.14 0.16 1.60088 -1.306981 -2.442117 0 255 255 255 255 0.509432 0.612545
0.24 0.26 2.04088 2.442117 -1.306982 2.158799 255 255 255 255 0.510078 0.615414
0.24 0.26 1.60088 2.442117 -1.306981 0 255 255 255 255 0.510078 0.612545
0.24 0.54 1.60088 2.442117 1.306982 0 255 255 255 255 0.511887 0.612545
0.24 0.54 2.04088 2.442117 1.306982 2.158799 255 255 255 255 0.511887 0.615414
-0.14 0.64 1.60088 -1.306982 2.442117 0 255 255 255 255 0.512533 0.612545
-0.14 0.64 1.76088 -2.404235 4.845256 0.3582078 255 255 255 255 0.512533 0.613588
0.14 0.64 1.76088 2.404235 4.845255 0.3582078 255 255 255 255 0.512533 0.613588
0.14 0.64 1.60088 1.306981 2.442117 0 255 255 255 255 0.512533 0.612545
0.11 0.51 1.60088 -1.226586 -2.552065 0 255 255 255 255 0.511693 0.612545
0.11 0.51 2.04088 -1.226585 -2.552065 4.037648 255 255 255 255 0.511693 0.615414
-0.11 0.51 2.04088 1.226586 -2.552065 4.037648 255 255 255 255 0.511693 0.615414
-0.11 0.51 1.60088 1.226585 -2.552065 0 255 255 255 255 0.511693 0.612545
0.18 0.58 1.60088 2.178302 2.178303 0 255 255 255 255 0.512145 0.612545
0.18 0.58 2.04088 1.081048 2.847021 2.853638 255 255 255 255 0.512145 0.615414
0.18 0.22 2.04088 2.178303 -2.178303 3.536384 255 255 255 255 0.509820 0.615414
0.18 0.22 1.60088 2.178303 -2.178303 0 255 255 255 255 0.509820 0.612545
-0.18 0.22 2.04088 -2.178303 -2.178303 3.536384 255 255 255 255 0.509820 0.615414
-0.18 0.22 1.60088 -2.178303 -2.178303 0 255 255 255 255 0.509820 0.612545
-0.18 0.58 2.04088 -1.081049 2.847022 2.853638 255 255 255 255 0.512145 0.615414
-0.18 0.58 1.60088 -2.178302 2.178303 0 255 255 255 255 0.512145 0.612545
-0.15 0.46 2.04088 2.77601 -1.239506 3.651185 255 255 255 255 0.511370 0.615414
-0.24 0.4 2.04088 0 0 3.141593 255 255 255 255 0.510983 0.615414
-0.16 0.4 2.04088 3.098848 4.097819e-08 3.47189 255 255 255 255 0.510983 0.615414
-0.15 0.34 2.04088 2.77601 1.239506 3.651185 255 255 255 255 0.510595 0.615414
-0.11 0.29 2.04088 2.207854 2.207855 3.362907 255 255 255 255 0.510272 0.615414
-0.06 0.25 2.04088 1.239506 2.77601 3.651185 255 255 255 255 0.510014 0.615414
0 0.16 2.04088 0 0 3.141593 255 255 255 255 0.509432 0.615414
0 0.24 2.04088 -5.401671e-08 3.098848 3.47189 255 255 255 255 0.509949 0.615414
0.06 0.25 2.04088 -1.239506 2.77601 3.651185 255 255 255 255 0.510014 0.615414
0.11 0.29 2.04088 -2.207854 2.207854 3.362907 255 255 255 255 0.510272 0.615414
0.15 0.34 2.04088 -2.77601 1.239506 3.651185 255 255 255 255 0.510595 0.615414
0.24 0.4 2.04088 0 0 3.141593 255 255 255 255 0.510983 0.615414
0.16 0.4 2.04088 -3.098848 -4.097819e-08 3.47189 255 255 255 255 0.510983 0.615414
0.15 0.46 2.04088 -2.776009 -1.239506 3.651186 255 255 255 255 0.511370 0.615414
0.15 0.46 1.60088 -2.77601 -1.239506 0 255 255 255 255 0.511370 0.612545
0.16 0.4 1.60088 -3.098848 2.980232e-08 0 255 255 255 255 0.510983 0.612545
0.15 0.34 1.60088 -2.77601 1.239506 0 255 255 255 255 0.510595 0.612545
0.11 0.29 1.60088 -2.207854 2.207854 0 255 255 255 255 0.510272 0.612545
0.06 0.25 1.60088 -1.239506 2.77601 0 255 255 255 255 0.510014 0.612545
0 0.24 1.60088 5.960464e-08 3.098847 0 255 255 255 255 0.509949 0.612545
-0.06 0.25 1.60088 1.239506 2.77601 0 255 255 255 255 0.510014 0.612545
-0.11 0.29 1.60088 2.207854 2.207855 0 255 255 255 255 0.510272 0.612545
-0.15 0.34 1.60088 2.77601 1.239506 0 255 255 255 255 0.510595 0.612545
-0.16 0.4 1.60088 3.098848 -2.980232e-08 0 255 255 255 255 0.510983 0.612545
-0.15 0.46 1.60088 2.776009 -1.239506 0 255 255 255 255 0.511370 0.612545
-0.24 -0.54 1.60088 -2.442117 -1.306982 0 255 255 255 255 0.504910 0.612545
-0.24 -0.54 2.04088 -2.442117 -1.306982 2.158799 255 255 255 255 0.504910 0.615414
-0.24 -0.26 2.04088 -2.442117 1.306981 2.158799 255 255 255 255 0.506719 0.615414
-0.24 -0.26 1.60088 -2.442117 1.306982 0 255 255 255 255 0.506719 0.612545
-0.14 -0.16 1.60088 -1.306981 2.442117 0 255 255 255 255 0.507365 0.612545
-0.14 -0.16 2.04088 -1.306982 2.442117 2.158799 255 255 255 255 0.507365 0.615414
0.14 -0.16 2.04088 1.306981 2.442117 2.158799 255 255 255 255 0.507365 0.615414
0.14 -0.16 1.60088 1.306982 2.442117 0 255 255 255 255 0.507365 0.612545
0.24 -0.54 2.04088 2.442117 -1.306982 2.158799 255 255 255 255 0.504910 0.615414
0.24 -0.54 1.60088 2.442117 -1.306982 0 255 255 255 255 0.504910 0.612545
0.24 -0.26 1.60088 2.442117 1.306981 0 255 255 255 255 0.506719 0.612545
0.24 -0.26 2.04088 2.442117 1.306982 2.158799 255 255 255 255 0.506719 0.615414
0.14 -0.64 1.60088 1.306981 -2.442117 0 255 255 255 255 0.504264 0.612545
0.14 -0.64 1.76088 2.404235 -4.845255 0.3582077 255 255 255 255 0.504264 0.613588
-0.14 -0.64 1.76088 -2.404235 -4.845256 0.3582077 255 255 255 255 0.504264 0.613588
-0.14 -0.64 1.60088 -1.306982 -2.442117 0 255 255 255 255 0.504264 0.612545
-0.11 -0.51 1.60088 1.226586 2.552065 0 255 255 255 255 0.505104 0.612545
-0.11 -0.51 2.04088 1.226585 2.552065 4.037648 255 255 255 255 0.505104 0.615414
0.11 -0.51 2.04088 -1.226586 2.552065 4.037648 255 255 255 255 0.505104 0.615414
0.11 -0.51 1.60088 -1.226585 2.552065 0 255 255 255 255 0.505104 0.612545
0.18 -0.58 2.04088 1.081048 -2.847021 2.853638 255 255 255 255 0.504652 0.615414
0.18 -0.58 1.60088 2.178302 -2.178303 0 255 255 255 255 0.504652 0.612545
0.18 -0.22 2.04088 2.178303 2.178303 3.536384 255 255 255 255 0.506977 0.615414
0.18 -0.22 1.60088 2.178303 2.178303 0 255 255 255 255 0.506977 0.612545
-0.18 -0.22 2.04088 -2.178303 2.178303 3.536384 255 255 255 255 0.506977 0.615414
-0.18 -0.22 1.60088 -2.178303 2.178303 0 255 255 255 255 0.506977 0.612545
-0.18 -0.58 2.04088 -1.081049 -2.847022 2.853638 255 255 255 255 0.504652 0.615414
-0.18 -0.58 1.60088 -2.178302 -2.178303 0 255 255 255 255 0.504652 0.612545
-0.15 -0.46 2.04088 2.776009 1.239506 3.651185 255 255 255 255 0.505427 0.615414
-0.24 -0.4 2.04088 0 0 3.141593 255 255 255 255 0.505815 0.615414
-0.16 -0.4 2.04088 3.098848 4.097819e-08 3.47189 255 255 255 255 0.505815 0.615414
-0.15 -0.34 2.04088 2.77601 -1.239506 3.651185 255 255 255 255 0.506202 0.615414
-0.11 -0.29 2.04088 2.207854 -2.207854 3.362907 255 255 255 255 0.506525 0.615414
-0.06 -0.25 2.04088 1.239506 -2.77601 3.651185 255 255 255 255 0.506784 0.615414
0 -0.16 2.04088 0 0 3.141593 255 255 255 255 0.507365 0.615414
0 -0.24 2.04088 5.401671e-08 -3.098848 3.47189 255 255 255 255 0.506848 0.615414
0.06 -0.25 2.04088 -1.239506 -2.77601 3.651185 255 255 255 255 0.506784 0.615414
0.11 -0.29 2.04088 -2.207854 -2.207855 3.362907 255 255 255 255 0.506525 0.615414
0.15 -0.34 2.04088 -2.77601 -1.239506 3.651185 255 255 255 255 0.506202 0.615414
0.24 -0.4 2.04088 0 0 3.141593 255 255 255 255 0.505815 0.615414
0.16 -0.4 2.04088 -3.098848 -4.097819e-08 3.47189 255 255 255 255 0.505815 0.615414
0.15 -0.46 2.04088 -2.77601 1.239506 3.651186 255 255 255 255 0.505427 0.615414
-0.15 -0.46 1.60088 2.77601 1.239506 0 255 255 255 255 0.505427 0.612545
-0.16 -0.4 1.60088 3.098848 -2.980232e-08 0 255 255 255 255 0.505815 0.612545
-0.15 -0.34 1.60088 2.77601 -1.239506 0 255 255 255 255 0.506202 0.612545
-0.11 -0.29 1.60088 2.207854 -2.207854 0 255 255 255 255 0.506525 0.612545
-0.06 -0.25 1.60088 1.239506 -2.77601 0 255 255 255 255 0.506784 0.612545
0 -0.24 1.60088 -5.960464e-08 -3.098847 0 255 255 255 255 0.506848 0.612545
0.06 -0.25 1.60088 -1.239506 -2.77601 0 255 255 255 255 0.506784 0.612545
0.11 -0.29 1.60088 -2.207854 -2.207855 0 255 255 255 255 0.506525 0.612545
0.15 -0.34 1.60088 -2.77601 -1.239506 0 255 255 255 255 0.506202 0.612545
0.16 -0.4 1.60088 -3.098848 2.980232e-08 0 255 255 255 255 0.505815 0.612545
0.15 -0.46 1.60088 -2.776009 1.239506 0 255 255 255 255 0.505427 0.612545
1e-06 -0.08 0.760884 0 -2.719406 -3.071856 255 255 255 255 0.507882 0.607068
1e-06 0.08 0.760884 1.490116e-08 2.719406 -3.071857 255 255 255 255 0.508915 0.607068
0.140001 0.08 0.790884 1.253026 2.72389 -2.806288 255 255 255 255 0.508915 0.607263
0.140001 -0.08 0.790884 1.253026 -2.72389 -2.806288 255 255 255 255 0.507882 0.607263
-0.139999 -0.08 0.790884 -1.253026 -2.72389 -2.806288 255 255 255 255 0.507882 0.607263
-0.139999 0.08 0.790884 -1.253026 2.72389 -2.806288 255 255 255 255 0.508915 0.607263
-0.249999 -0.08 0.870884 -2.194257 -2.828389 -2.194257 255 255 255 255 0.507882 0.607785
-0.249999 0.08 0.870884 -2.194257 2.828389 -2.194258 255 255 255 255 0.508915 0.607785
-0.329999 -0.08 0.980884 -2.806286 -2.723896 -1.253034 255 255 255 255 0.507882 0.608502
-0.329999 0.08 0.980884 -2.806287 2.723896 -1.253034 255 255 255 255 0.508915 0.608502
-0.359999 -0.08 1.12088 -3.071855 -2.7194 -9.000301e-06 255 255 255 255 0.507882 0.609415
-0.359999 0.08 1.12088 -3.071855 2.7194 -8.970499e-06 255 255 255 255 0.508915 0.609415
-0.329999 -0.08 1.26088 -2.806288 -2.72389 1.253026 255 255 255 255 0.507882 0.610328
-0.329999 0.08 1.26088 -2.806288 2.72389 1.253026 255 255 255 255 0.508915 0.610328
-0.249999 -0.08 1.37088 -1.27036 -2.828389 0.9238979 255 255 255 255 0.507882 0.611045
-0.249999 0.08 1.37088 -1.27036 2.828389 0.9238979 255 255 255 255 0.508915 0.611045
-0.249999 -0.72 1.37088 2.034619 -3.29819 -2.381073 255 255 255 255 0.503748 0.611045
-0.249999 0.72 1.37088 2.034618 3.298193 -2.381081 255 255 255 255 0.513050 0.611045
-0.139999 0.72 1.45088 1.253025 3.559297 -2.806288 255 255 255 255 0.513050 0.611567
-0.14 -0.72 1.45088 1.253031 -3.559301 -2.806284 255 255 255 255 0.503748 0.611567
1e-06 0.72 1.48088 -2.682209e-07 3.563778 -3.071857 255 255 255 255 0.513050 0.611762
0 -0.72 1.48088 2.086163e-07 -3.563778 -3.071857 255 255 255 255 0.503748 0.611762
0.140001 0.72 1.45088 -1.253026 3.559297 -2.806288 255 255 255 255 0.513050 0.611567
0.14 -0.72 1.45088 -1.25302 -3.559293 -2.806292 255 255 255 255 0.503748 0.611567
0.250001 0.72 1.37088 -2.034614 3.298195 -2.381076 255 255 255 255 0.513050 0.611045
0.250001 -0.72 1.37088 -2.034614 -3.298199 -2.381084 255 255 255 255 0.503748 0.611045
1e-06 0.4 1.00088 -1.192093e-07 2.746802 -3.080586 255 255 255 255 0.510983 0.608633
1e-06 -0.4 1.00088 1.229346e-07 -2.746802 -3.080586 255 255 255 255 0.505815 0.608633
-0.049999 -0.4 1.01088 -1.418779 -2.55359 -2.651015 255 255 255 255 0.505815 0.608698
-0.049999 0.4 1.01088 -1.418778 2.55359 -2.651013 255 255 255 255 0.510983 0.608698
-0.079999 -0.4 1.04088 -2.221442 -3.141591 -2.22144 255 255 255 255 0.505815 0.608893
-0.079999 0.4 1.04088 -2.221442 3.141591 -2.22144 255 255 255 255 0.510983 0.608893
-0.109999 -0.4 1.07088 -2.651015 -2.553592 -1.418777 255 255 255 255 0.505815 0.609089
-0.109999 0.4 1.07088 -2.651016 2.553592 -1.418778 255 255 255 255 0.510983 0.609089
-0.119999 -0.4 1.12088 -3.080586 -2.746801 -1.490116e-07 255 255 255 255 0.505815 0.609415
-0.119999 0.4 1.12088 -3.080586 2.746801 1.490116e-07 255 255 255 255 0.510983 0.609415
-0.109999 -0.4 1.17088 -2.651016 -2.553592 1.418778 255 255 255 255 0.505815 0.609741
-0.109999 0.4 1.17088 -2.651015 2.553592 1.418777 255 255 255 255 0.510983 0.609741
-0.079999 -0.4 1.20088 -2.221442 -3.141591 2.22144 255 255 255 255 0.505815 0.609937
-0.079999 0.4 1.20088 -2.221442 3.141591 2.22144 255 255 255 255 0.510983 0.609937
-0.049999 -0.4 1.23088 -1.418778 -2.55359 2.651013 255 255 255 255 0.505815 0.610132
-0.049999 0.4 1.23088 -1.418779 2.55359 2.651015 255 255 255 255 0.510983 0.610132
1e-06 -0.4 1.24088 -1.192093e-07 -2.746802 3.080586 255 255 255 255 0.505815 0.610197
1e-06 0.4 1.24088 1.192093e-07 2.746802 3.080586 255 255 255 255 0.510983 0.610197
0.050001 -0.4 1.23088 1.418779 -2.55359 2.651015 255 255 255 255 0.505815 0.610132
0.050001 0.4 1.23088 1.418778 2.55359 2.651013 255 255 255 255 0.510983 0.610132
0.080001 -0.4 1.20088 2.221442 -3.141591 2.22144 255 255 255 255 0.505815 0.609937
0.080001 0.4 1.20088 2.221442 3.141591 2.22144 255 255 255 255 0.510983 0.609937
0.110001 -0.4 1.17088 2.651015 -2.553592 1.418778 255 255 255 255 0.505815 0.609741
0.110001 0.4 1.17088 2.651016 2.553592 1.418778 255 255 255 255 0.510983 0.609741
0.120001 -0.4 1.12088 3.080586 -2.746801 1.490116e-07 255 255 255 255 0.505815 0.609415
0.120001 0.4 1.12088 3.080586 2.746801 -1.490116e-07 255 255 255 255 0.510983 0.609415
0.110001 -0.4 1.07088 2.651016 -2.553592 -1.418778 255 255 255 255 0.505815 0.609089
0.110001 0.4 1.07088 2.651015 2.553592 -1.418778 255 255 255 255 0.510983 0.609089
0.080001 -0.4 1.04088 2.221442 -3.141591 -2.22144 255 255 255 255 0.505815 0.608893
0.080001 0.4 1.04088 2.221442 3.141591 -2.22144 255 255 255 255 0.510983 0.608893
0.050001 -0.4 1.01088 1.418778 -2.55359 -2.651013 255 255 255 255 0.505815 0.608698
0.050001 0.4 1.01088 1.418779 2.55359 -2.651015 255 255 255 255 0.510983 0.608698
0.260001 0.72 1.36088 -1.110721 2.356194 -2.681517 255 255 255 255 0.513050 0.610980
0.260001 -0.72 1.36088 -1.110716 -2.356194 -2.681513 255 255 255 255 0.503748 0.610980
-0.259999 -0.72 1.36088 1.11072 -2.356195 -2.681518 255 255 255 255 0.503748 0.610980
-0.259999 0.72 1.36088 1.110715 2.356195 -2.681513 255 255 255 255 0.513050 0.610980
1e-06 -0.08 1.12088 0 -6.283185 0 255 255 255 255 0.507882 0.609415
0.250001 -0.08 0.870884 2.194258 -2.828389 -2.194258 255 255 255 255 0.507882 0.607785
0.330001 -0.08 0.980884 2.806287 -2.723896 -1.253034 255 255 255 255 0.507882 0.608502
0.360001 -0.08 1.12088 3.071855 -2.7194 -8.970499e-06 255 255 255 255 0.507882 0.609415
0.330001 -0.08 1.26088 2.806289 -2.72389 1.253025 255 255 255 255 0.507882 0.610328
0.250001 -0.08 1.37088 2.194258 -2.828389 2.194257 255 255 255 255 0.507882 0.611045
0.140001 -0.08 1.45088 0.9238982 -2.723889 1.27036 255 255 255 255 0.507882 0.611567
1e-06 -0.08 1.48088 0 -2.719406 0 255 255 255 255 0.507882 0.611762
-0.139999 -0.08 1.45088 0 -2.723889 0 255 255 255 255 0.507882 0.611567
1e-06 0.08 1.12088 0 6.283184 0 255 255 255 255 0.508915 0.609415
-0.139999 0.08 1.45088 0 2.723889 0 255 255 255 255 0.508915 0.611567
1e-06 0.08 1.48088 0 2.719406 0 255 255 255 255 0.508915 0.611762
0.140001 0.08 1.45088 0.9238982 2.723889 1.27036 255 255 255 255 0.508915 0.611567
0.250001 0.08 1.37088 2.194258 2.828389 2.194257 255 255 255 255 0.508915 0.611045
0.330001 0.08 1.26088 2.806288 2.72389 1.253025 255 255 255 255 0.508915 0.610328
0.360001 0.08 1.12088 3.071855 2.7194 -9.000301e-06 255 255 255 255 0.508915 0.609415
0.330001 0.08 0.980884 2.806287 2.723896 -1.253034 255 255 255 255 0.508915 0.608502
0.250001 0.08 0.870884 2.194257 2.828389 -2.194257 255 255 255 255 0.508915 0.607785
1e-06 -0.4 1.12088 0 -6.283185 0 255 255 255 255 0.505815 0.609415
1e-06 0.4 1.12088 0 6.283185 0 255 255 255 255 0.510983 0.609415
3 0 1 2 
3 0 2 3 
3 4 5 6 
3 4 6 7 
3 0 5 4 
3 0 4 1 
3 8 9 10 
3 8 10 11 
3 12 13 14 
3 12 14 15 
3 16 17 18 
3 16 18 19 
3 20 21 22 
3 20 22 23 
3 24 25 26 
3 24 26 27 
3 28 29 19 
3 28 19 18 
3 17 16 30 
3 17 30 31 
3 31 30 13 
3 31 13 12 
3 15 14 32 
3 15 32 33 
3 33 32 9 
3 33 9 8 
3 11 10 34 
3 11 34 35 
3 35 34 21 
3 35 21 20 
3 34 29 22 
3 34 22 21 
3 23 22 29 
3 23 29 28 
3 29 34 26 
3 29 26 25 
3 26 34 10 
3 26 10 36 
3 36 10 37 
3 36 37 38 
3 38 37 9 
3 38 9 39 
3 39 9 32 
3 39 32 40 
3 40 32 14 
3 40 14 41 
3 41 14 42 
3 41 42 43 
3 43 42 13 
3 43 13 44 
3 44 13 30 
3 44 30 45 
3 45 30 16 
3 45 16 46 
3 46 16 47 
3 46 47 48 
3 48 47 19 
3 48 19 49 
3 49 19 29 
3 49 29 25 
3 50 49 25 
3 50 25 24 
3 51 48 49 
3 51 49 50 
3 52 46 48 
3 52 48 51 
3 53 45 46 
3 53 46 52 
3 54 44 45 
3 54 45 53 
3 55 43 44 
3 55 44 54 
3 56 41 43 
3 56 43 55 
3 57 40 41 
3 57 41 56 
3 58 39 40 
3 58 40 57 
3 59 38 39 
3 59 39 58 
3 60 36 38 
3 60 38 59 
3 27 26 36 
3 27 36 60 
3 61 62 63 
3 61 63 64 
3 65 66 67 
3 65 67 68 
3 69 70 71 
3 69 71 72 
3 73 74 75 
3 73 75 76 
3 77 78 79 
3 77 79 80 
3 69 81 82 
3 69 82 70 
3 83 72 71 
3 83 71 84 
3 67 83 84 
3 67 84 68 
3 85 66 65 
3 85 65 86 
3 63 85 86 
3 63 86 64 
3 87 62 61 
3 87 61 88 
3 75 87 88 
3 75 88 76 
3 74 81 87 
3 74 87 75 
3 81 74 73 
3 81 73 82 
3 78 87 81 
3 78 81 79 
3 62 87 78 
3 62 78 89 
3 90 62 89 
3 90 89 91 
3 63 90 91 
3 63 91 92 
3 85 63 92 
3 85 92 93 
3 66 85 93 
3 66 93 94 
3 95 66 94 
3 95 94 96 
3 67 95 96 
3 67 96 97 
3 83 67 97 
3 83 97 98 
3 72 83 98 
3 72 98 99 
3 100 72 99 
3 100 99 101 
3 69 100 101 
3 69 101 102 
3 81 69 102 
3 81 102 79 
3 103 89 78 
3 103 78 77 
3 104 91 89 
3 104 89 103 
3 105 92 91 
3 105 91 104 
3 106 93 92 
3 106 92 105 
3 107 94 93 
3 107 93 106 
3 108 96 94 
3 108 94 107 
3 109 97 96 
3 109 96 108 
3 110 98 97 
3 110 97 109 
3 111 99 98 
3 111 98 110 
3 112 101 99 
3 112 99 111 
3 113 102 101 
3 113 101 112 
3 80 79 102 
3 80 102 113 
3 114 115 116 
3 114 116 117 
3 118 119 115 
3 118 115 114 
3 120 121 119 
3 120 119 118 
3 122 123 121 
3 122 121 120 
3 124 125 123 
3 124 123 122 
3 126 127 125 
3 126 125 124 
3 128 129 127 
3 128 127 126 
3 130 131 132 
3 130 132 133 
3 133 132 134 
3 133 134 135 
3 135 134 136 
3 135 136 137 
3 137 136 138 
3 137 138 139 
3 140 141 142 
3 140 142 143 
3 143 142 144 
3 143 144 145 
3 145 144 146 
3 145 146 147 
3 147 146 148 
3 147 148 149 
3 149 148 150 
3 149 150 151 
3 151 150 152 
3 151 152 153 
3 153 152 154 
3 153 154 155 
3 155 154 156 
3 155 156 157 
3 157 156 158 
3 157 158 159 
3 159 158 160 
3 159 160 161 
3 161 160 162 
3 161 162 163 
3 163 162 164 
3 163 164 165 
3 165 164 166 
3 165 166 167 
3 167 166 168 
3 167 168 169 
3 169 168 170 
3 169 170 171 
3 171 170 141 
3 171 141 140 
3 172 3 2 
3 172 2 173 
3 138 172 173 
3 138 173 139 
3 174 7 6 
3 174 6 175 
3 130 174 175 
3 130 175 131 
3 136 0 3 
3 136 3 138 
3 0 134 132 
3 0 132 5 
3 131 6 5 
3 131 5 132 
3 133 4 7 
3 133 7 130 
3 137 1 4 
3 137 4 135 
3 139 2 1 
3 139 1 137 
3 176 114 117 
3 176 117 177 
3 176 177 178 
3 176 178 179 
3 176 179 180 
3 176 180 181 
3 176 181 182 
3 176 182 183 
3 176 183 184 
3 176 184 128 
3 176 128 126 
3 176 126 124 
3 176 124 122 
3 176 122 120 
3 176 120 118 
3 176 118 114 
3 185 115 119 
3 185 119 121 
3 185 121 123 
3 185 123 125 
3 185 125 127 
3 185 127 129 
3 185 129 186 
3 185 186 187 
3 185 187 188 
3 185 188 189 
3 185 189 190 
3 185 190 191 
3 185 191 192 
3 185 192 193 
3 185 193 116 
3 185 116 115 
3 194 142 141 
3 194 144 142 
3 194 146 144 
3 194 148 146 
3 194 150 148 
3 194 152 150 
3 194 154 152 
3 194 156 154 
3 194 158 156 
3 194 160 158 
3 194 162 160 
3 194 164 162 
3 194 166 164 
3 194 168 166 
3 194 170 168 
3 194 141 170 
3 195 140 143 
3 195 143 145 
3 195 145 147 
3 195 147 149 
3 195 149 151 
3 195 151 153 
3 195 153 155 
3 195 155 157 
3 195 157 159 
3 195 159 161 
3 195 161 163 
3 195 163 165 
3 195 165 167 
3 195 167 169 
3 195 169 171 
3 195 171 140 
3 172 138 3 
3 134 0 136 
3 131 175 6 
3 174 130 7 
3 133 135 4 
3 139 173 2 
3 117 116 193 
3 117 193 177 
3 177 193 192 
3 177 192 178 
3 178 192 191 
3 178 191 179 
3 179 191 190 
3 179 190 180 
3 180 190 189 
3 180 189 181 
3 181 189 188 
3 181 188 182 
