ply
format ascii 1.0
comment VCGLIB generated
element vertex 206
property float x
property float y
property float z
property float nx
property float ny
property float nz
property uchar red
property uchar green
property uchar blue
property uchar alpha
property float texture_u
property float texture_v
element face 356
property list uchar int vertex_indices
end_header
-0.199998 0.173452 -0.001701 1.5708 1.57079 -4.712389 255 255 255 255 0.403401 0.529793
-0.199998 0.653452 -0.001701 1.570801 -1.570789 -4.712389 255 255 255 255 0.404924 0.530317
-0.199998 0.653452 0.158299 3.141593 -3.141593 0 255 255 255 255 0.404586 0.529798
-0.199998 0.173452 0.158299 3.141593 3.141593 0 255 255 255 255 0.403800 0.529449
-0.199999 0.653452 0.638299 3.141593 6.778811e-06 1.487641e-05 255 255 255 255 0.404385 0.529437
-0.199999 0.653452 0.798299 1.570791 -1.570798 1.570796 255 255 255 255 0.404338 0.529444
-0.199999 0.173452 0.798299 1.570791 1.570798 1.570796 255 255 255 255 0.404135 0.529429
-0.199999 0.173452 0.638299 3.141593 -6.778808e-06 1.487641e-05 255 255 255 255 0.404064 0.529413
0.280002 0.653452 0.1583 -1.570796 -1.570794 -1.570796 255 255 255 255 0.404787 0.528652
0.280002 0.653452 -0.0017 -1.570793 -1.570801 -4.712389 255 255 255 255 0.405277 0.528236
0.120002 0.653452 0.1583 -1.570796 -1.570798 -1.570799 255 255 255 255 0.404603 0.529012
0.120001 0.653452 0.7983 -1.570801 -1.570795 1.570794 255 255 255 255 0.404334 0.529345
0.280002 0.173452 -0.0017 -1.570791 1.570807 -4.712389 255 255 255 255 0.402990 0.527978
0.280002 0.173452 0.1583 -1.570796 1.570794 -1.570796 255 255 255 255 0.403420 0.528426
0.120001 0.173452 0.7983 -1.570801 1.570795 1.570794 255 255 255 255 0.404135 0.529359
0.120002 0.173452 0.1583 -1.570796 1.570798 -1.570799 255 255 255 255 0.403833 0.529146
-0.359998 0.173452 0.398299 -0.4373374 3.066786 -9.530207e-07 255 255 255 255 0.393847 0.533658
-0.199998 0.173452 0.398299 0.4373374 3.066778 9.39444e-07 255 255 255 255 0.393862 0.532638
-0.199998 0.193452 0.308299 3.481524 2.865424 1.173274 255 255 255 255 0.394522 0.532767
-0.359998 0.193452 0.308299 -3.481524 2.865424 1.173274 255 255 255 255 0.394247 0.533624
-0.199998 0.243452 0.228299 3.59519 2.164553 2.164553 255 255 255 255 0.395110 0.533107
-0.359998 0.243452 0.228299 -3.59519 2.164553 2.164553 255 255 255 255 0.394536 0.533658
-0.199998 0.323452 0.178299 3.481524 1.173274 2.865424 255 255 255 255 0.395435 0.533688
-0.359998 0.323452 0.178299 -3.481524 1.173274 2.865423 255 255 255 255 0.394572 0.533957
-0.199998 0.413452 0.158299 0.4373374 -2.980232e-08 3.066782 255 255 255 255 0.395558 0.534335
-0.359998 0.413452 0.158299 -0.4373374 2.980232e-08 3.066782 255 255 255 255 0.394533 0.534359
-0.199998 0.503452 0.178299 3.481524 -1.173274 2.865423 255 255 255 255 0.395437 0.534994
-0.359998 0.503452 0.178299 -3.481524 -1.173274 2.865424 255 255 255 255 0.394612 0.534752
-0.199998 0.583452 0.228299 3.59519 -2.164553 2.164553 255 255 255 255 0.395112 0.535570
-0.359998 0.583452 0.228299 -3.59519 -2.164553 2.164553 255 255 255 255 0.394599 0.535027
-0.199998 0.633452 0.308299 3.481524 -2.865424 1.173274 255 255 255 255 0.394537 0.535870
-0.359998 0.633452 0.308299 -3.481524 -2.865423 1.173274 255 255 255 255 0.394311 0.535042
-0.199998 0.653452 0.398299 0.4373374 -3.066778 8.798394e-07 255 255 255 255 0.393893 0.535974
-0.359998 0.653452 0.398299 -0.4373374 -3.066786 -8.934161e-07 255 255 255 255 0.393908 0.534954
-0.199998 0.633452 0.488299 3.481524 -2.865365 -1.173259 255 255 255 255 0.393234 0.535844
-0.359998 0.633452 0.488299 -3.481524 -2.865483 -1.173289 255 255 255 255 0.393508 0.534988
-0.199998 0.583452 0.568299 3.59519 -2.164536 -2.164505 255 255 255 255 0.392645 0.535505
-0.359998 0.583452 0.568299 -3.59519 -2.164571 -2.164603 255 255 255 255 0.393219 0.534954
-0.199999 0.503452 0.618299 3.481524 -1.173281 -2.865421 255 255 255 255 0.392321 0.534924
-0.359999 0.503452 0.618299 -3.481522 -1.173269 -2.865425 255 255 255 255 0.393184 0.534655
-0.199999 0.413452 0.638299 0.4373389 1.430511e-06 -3.066782 255 255 255 255 0.392197 0.534277
-0.359999 0.413453 0.638299 -0.4373394 -8.776784e-06 -3.066782 255 255 255 255 0.393223 0.534253
-0.199999 0.323452 0.618299 3.481525 1.17328 -2.865422 255 255 255 255 0.392318 0.533618
-0.359999 0.323452 0.618299 -3.481526 1.173263 -2.865427 255 255 255 255 0.393143 0.533860
-0.199998 0.243452 0.568299 3.59519 2.164536 -2.164505 255 255 255 255 0.392644 0.533042
-0.359998 0.243452 0.568299 -3.59519 2.164571 -2.164602 255 255 255 255 0.393156 0.533585
-0.199998 0.193452 0.488299 3.481524 2.865366 -1.173259 255 255 255 255 0.393218 0.532742
-0.359998 0.193452 0.488299 -3.481524 2.865483 -1.17329 255 255 255 255 0.393445 0.533570
-0.359998 0.793452 -0.001701 -1.508376 1.569233 -1.500742 255 255 255 255 0.405339 0.531083
0.440002 0.793452 -0.0017 1.539557 1.570029 -1.521733 255 255 255 255 0.406328 0.527358
-0.359998 0.073452 -0.001701 -1.570796 -1.570797 -1.570796 255 255 255 255 0.402985 0.530420
0.440002 0.073452 -0.0017 1.570797 -1.570795 -1.570796 255 255 255 255 0.402157 0.526992
0.240002 0.793452 -0.0017 -8.023169e-08 3.139264 0.1191173 255 255 255 255 0.407780 0.526942
0.240002 0.783452 0.3183 1.530005 1.57003 1.619863 255 255 255 255 0.407114 0.524617
0.440002 0.783452 0.3183 1.602036 1.57003 1.61986 255 255 255 255 0.406338 0.525467
-0.359999 0.743453 1.1183 -3.163585 2.903196 0.4236892 255 255 255 255 0.387123 0.535223
0.240001 0.743453 1.1183 0.00234001 3.13593 0.1834648 255 255 255 255 0.387123 0.532539
0.360001 0.743453 1.1183 3.140039 2.71647 0.08230142 255 255 255 255 0.392263 0.524604
0.330001 0.753453 0.9783 2.819248 2.740613 -1.043634 255 255 255 255 0.393067 0.524055
0.240001 0.763453 0.8483 2.812842 0.6025149 -0.8135303 255 255 255 255 0.393756 0.523717
-0.329999 0.743453 1.2583 -2.754007 2.700089 1.266107 255 255 255 255 0.392040 0.525229
0.330001 0.743453 1.2583 2.746935 2.72197 1.295322 255 255 255 255 0.391351 0.525083
-0.249999 0.733453 1.3683 -0.8281586 2.825727 0.4815979 255 255 255 255 0.390858 0.526053
0.250001 0.733453 1.3683 2.253606 2.817403 2.436393 255 255 255 255 0.390298 0.525600
-0.14 0.733453 1.4483 -0.3029023 2.729243 1.607386 255 255 255 255 0.388165 0.526212
0.14 0.733453 1.4483 1.25302 2.723894 2.806292 255 255 255 255 0.388953 0.526230
0.440002 0.073452 0.3183 1.570796 -1.570796 1.570796 255 255 255 255 0.402329 0.524983
0.240002 0.073452 0.3183 1.570796 -1.570796 1.5708 255 255 255 255 0.401606 0.523907
0.240002 0.073452 -0.0017 0 -3.141593 0 255 255 255 255 0.400616 0.526373
0.240001 0.073452 0.7183 0 -3.141593 0 255 255 255 255 0.395618 0.532539
-0.359999 0.073452 0.718299 0 -3.14159 0 255 255 255 255 0.395618 0.535223
0.150001 0.073452 0.7483 -1.17938 -3.5322 2.847274 255 255 255 255 0.397862 0.521195
1e-06 0.073452 0.7183 -1.001358e-05 -0.3947872 3.080587 255 255 255 255 0.397010 0.521685
0.240001 0.073452 0.7483 0 -3.141593 0 255 255 255 255 0.399208 0.521403
-0.149999 0.073452 0.748299 1.202162 -3.549748 2.831791 255 255 255 255 0.395633 0.522324
-0.359999 0.073452 0.748299 0 -3.141592 0 255 255 255 255 0.394915 0.523472
-0.279999 0.073452 0.838299 2.201088 -3.518842 2.162822 255 255 255 255 0.395359 0.523113
-0.359999 0.073452 0.838299 0 -3.141593 1.306873e-05 255 255 255 255 0.395413 0.523421
0.240001 0.093452 0.8083 0.6994756 -2.1588 1.306982 255 255 255 255 0.396189 0.522721
0.150001 0.093452 0.7483 -1.17938 -2.750986 2.847274 255 255 255 255 0.397125 0.521796
0.240001 0.073452 0.8083 0.6994751 -0.9827936 1.306985 255 255 255 255 0.397476 0.522280
1e-06 0.093452 0.7183 -9.924173e-06 -2.746808 3.080587 255 255 255 255 0.396556 0.521802
-0.149999 0.093452 0.748299 1.202162 -2.733437 2.831791 255 255 255 255 0.395617 0.522285
-0.279999 0.093452 0.838299 2.201092 -2.764343 2.162828 255 255 255 255 0.395227 0.522988
-0.359999 0.093453 0.958299 -0.2638223 0.03139651 0.8713236 255 255 255 255 0.395057 0.523532
-0.359999 0.073453 0.958299 -0.2638128 -0.5880026 0.8713294 255 255 255 255 0.395699 0.523511
-0.359999 0.093453 1.1183 -3.106708 2.9305 0.3291267 255 255 255 255 0.394925 0.523072
-0.109999 0.093452 1.0683 -2.650994 3.729596 -1.418767 255 255 255 255 0.394791 0.523132
-0.079999 0.093452 1.0383 4.30825e-06 -1.014189 3.112514e-06 255 255 255 255 0.395108 0.523058
-0.329999 0.093453 1.2583 -2.817095 2.729044 1.228109 255 255 255 255 0.394593 0.522577
-0.119999 0.093452 1.1183 -3.080567 3.536384 -7.450581e-09 255 255 255 255 0.394526 0.523149
-0.249999 0.093453 1.3683 -0.7619545 2.808529 0.2487622 255 255 255 255 0.393961 0.522061
-0.109999 0.093452 1.1683 -2.650996 3.729596 1.418772 255 255 255 255 0.394270 0.523135
-0.14 0.093453 1.4483 -0.3121417 -0.3616254 1.601133 255 255 255 255 0.392687 0.522209
-0.079999 0.093452 1.1983 3.933907e-06 1.099698 -2.44379e-06 255 255 255 255 0.394089 0.523129
0 0.093453 1.4783 -9.246171e-06 -2.719407 3.071876 255 255 255 255 0.392662 0.522917
-0.049999 0.093452 1.2283 1.418763 -3.729595 -2.650998 255 255 255 255 0.393906 0.523007
0.14 0.093452 1.4483 1.253012 -2.723893 2.806291 255 255 255 255 0.392911 0.523326
1e-06 0.093452 1.2383 5.960464e-08 -3.536384 -3.080585 255 255 255 255 0.393784 0.523019
0.250001 0.093452 1.3683 2.194252 -2.828385 2.194261 255 255 255 255 0.393277 0.523498
0.050001 0.093452 1.2283 -1.418778 -3.729595 -2.651014 255 255 255 255 0.393779 0.523044
0.330001 0.093452 1.2583 2.806288 -2.72389 1.253025 255 255 255 255 0.393706 0.523537
0.080001 0.093452 1.1983 -2.221441 -3.141592 -2.221443 255 255 255 255 0.393891 0.523030
0.360001 0.093452 1.1183 3.071857 -2.719406 -3.72529e-08 255 255 255 255 0.394224 0.523483
0.110001 0.093452 1.1683 -2.651013 -3.729596 -1.41878 255 255 255 255 0.394068 0.523000
0.330001 0.093452 0.9783 2.827425 -2.747141 -1.22324 255 255 255 255 0.394808 0.523326
0.120001 0.093452 1.1183 -3.080585 -3.536384 7.450581e-07 255 255 255 255 0.394320 0.522941
0.240001 0.093452 0.8483 2.862293 -3.747138 -0.894113 255 255 255 255 0.395530 0.523043
0.110001 0.093452 1.0683 -2.651013 -3.729597 1.41878 255 255 255 255 0.394612 0.522870
0.080001 0.093452 1.0383 -2.221443 -3.141591 2.221441 255 255 255 255 0.394883 0.522860
0.050001 0.093452 1.0083 -1.418779 -3.729598 2.651012 255 255 255 255 0.395171 0.522800
1e-06 0.093452 0.9983 0 -3.536381 3.080586 255 255 255 255 0.395410 0.522880
-0.049999 0.093452 1.0083 1.418779 -3.729598 2.651012 255 255 255 255 0.395324 0.522960
1e-06 0.323452 0.9983 2.980232e-08 0.3947971 3.080586 255 255 255 255 0.394581 0.522856
-0.049999 0.323452 1.0083 1.418779 3.729598 2.651012 255 255 255 255 0.394777 0.523009
-0.079999 0.323452 1.0383 1.18654e-05 3.141591 -4.572016e-05 255 255 255 255 0.394843 0.523172
-0.109999 0.323453 1.0683 -2.651098 3.729596 -1.418802 255 255 255 255 0.394877 0.523296
-0.119999 0.323453 1.1183 -3.080593 6.109476e-07 -2.292644e-06 255 255 255 255 0.394875 0.523412
-0.109999 0.323453 1.1683 -2.651023 -3.729596 1.418758 255 255 255 255 0.394701 0.523673
-0.079999 0.323452 1.1983 -8.312745e-05 -3.141593 3.007233e-05 255 255 255 255 0.394483 0.523793
-0.049999 0.323452 1.2283 1.418771 -3.729595 -2.650738 255 255 255 255 0.394288 0.523840
1e-06 0.323453 1.2383 1.775199e-05 3.141592 -3.080542 255 255 255 255 0.394120 0.523805
0.050001 0.323452 1.2283 -1.418748 3.729595 -2.651069 255 255 255 255 0.393980 0.523687
0.080001 0.323452 1.1983 -2.221441 3.141593 -2.221443 255 255 255 255 0.393933 0.523538
0.110001 0.323452 1.1683 -2.651013 3.729596 -1.41878 255 255 255 255 0.393910 0.523387
0.120001 0.323452 1.1183 -3.080585 3.536384 7.152557e-07 255 255 255 255 0.393975 0.523202
0.110001 0.323452 1.0683 -2.651013 3.729595 1.41878 255 255 255 255 0.394165 0.523006
0.080001 0.323452 1.0383 -2.221443 3.141591 2.22144 255 255 255 255 0.394346 0.522928
0.050001 0.323452 1.0083 -1.418779 3.729598 2.651012 255 255 255 255 0.394481 0.522873
1e-06 0.583453 1.3583 -0.3407648 -2.922924 -3.104164 255 255 255 255 0.393031 0.524895
0.090001 0.583452 1.3383 -1.17329 -2.801662 -2.865429 255 255 255 255 0.392964 0.524601
0.090001 0.323453 1.3383 -1.173265 2.801662 -2.865454 255 255 255 255 0.393686 0.524007
1e-06 0.323453 1.3583 -0.3407533 2.922924 -3.104187 255 255 255 255 0.393868 0.524248
0.170001 0.583452 1.2883 -2.164552 -2.687994 -2.164553 255 255 255 255 0.392846 0.524353
0.170001 0.323452 1.2883 -2.164541 2.687994 -2.164555 255 255 255 255 0.393544 0.523761
0.220001 0.583452 1.2083 -2.865424 -2.801662 -1.173273 255 255 255 255 0.392663 0.524151
0.220001 0.323452 1.2083 -2.865424 2.801663 -1.173273 255 255 255 255 0.393431 0.523458
0.240001 0.583452 1.1183 -3.06499 -2.693711 0.007878743 255 255 255 255 0.392410 0.523983
0.240001 0.323452 1.1183 -3.057287 2.704255 0.04022101 255 255 255 255 0.393329 0.523054
-0.199999 0.323453 1.3583 -4.712391 1.570793 -1.570849 255 255 255 255 0.394440 0.524945
-0.199999 0.583453 1.3583 -1.259983 -2.970001 -2.570231 255 255 255 255 0.393153 0.525769
0.220001 0.583452 1.0283 -2.03679 -1.752868 0.656649 255 255 255 255 0.392043 0.523884
0.220001 0.323452 1.0383 -1.562267 0.00287459 0.3812247 255 255 255 255 0.392959 0.522773
1e-06 0.583452 1.1183 -1.645209e-05 -6.283185 -1.028524e-05 255 255 255 255 0.392302 0.524915
-0.199999 0.583453 1.0383 -0.6202571 -1.594601 -2.531732e-06 255 255 255 255 0.392085 0.525688
-0.119999 0.323453 1.2383 -4.33404e-05 3.141593 9.030595e-06 255 255 255 255 0.394539 0.524190
-0.119999 0.323452 0.998299 4.556516e-06 6.283182 -1.724719e-05 255 255 255 255 0.394997 0.523293
-0.199999 0.323452 0.978299 -1.012187 2.403328 1.332026 255 255 255 255 0.395357 0.523401
0.120001 0.323452 0.9983 0 6.283181 0 255 255 255 255 0.394343 0.522748
0.190001 0.323452 0.9783 -1.562258 2.111218 1.023479 255 255 255 255 0.394098 0.522464
0.220001 0.323452 1.0283 -1.346947 2.819843 0.8081673 255 255 255 255 0.393738 0.522579
-0.199999 0.633453 1.1083 -2.73222 -1.533726 0.3390759 255 255 255 255 0.392684 0.525893
-0.199999 0.653453 1.1983 -2.732627 -3.071557 0.02292165 255 255 255 255 0.392691 0.525782
-0.199999 0.633453 1.2883 -2.830066 -2.843248 -1.222297 255 255 255 255 0.392767 0.525793
-0.2 0.413453 1.4383 -2.483081 4.529953e-06 3.066753 255 255 255 255 0.396162 0.520939
-0.199999 0.453453 1.3583 -3.141593 1.684114e-06 -4.01629e-05 255 255 255 255 0.396510 0.521346
-0.2 0.323453 1.4183 -2.801661 -1.043206 2.938326 255 255 255 255 0.395669 0.521185
-0.199999 0.243453 1.3683 -2.687996 2.203355 -2.139495 255 255 255 255 0.395277 0.521591
-0.199999 0.193453 1.2883 -2.835036 2.85971 -1.197171 255 255 255 255 0.395303 0.522064
-0.199999 0.173452 1.1983 -2.732588 3.071548 0.02292561 255 255 255 255 0.395396 0.522445
-0.199999 0.323453 1.1683 -3.141587 0 0 255 255 255 255 0.396056 0.522441
-0.199999 0.193453 1.1083 -2.793884 2.865764 1.171595 255 255 255 255 0.395528 0.522748
-0.199999 0.243452 1.0283 -2.687988 2.16457 2.164535 255 255 255 255 0.395670 0.523058
-0.359999 0.503453 0.978299 -3.481539 -1.173287 2.865415 255 255 255 255 0.394398 0.524397
-0.359999 0.413453 0.958299 -0.4373432 -7.152557e-07 3.066781 255 255 255 255 0.394649 0.523922
0.240001 0.413452 0.9583 -4.903858e-06 6.92904e-07 3.066782 255 255 255 255 0.397481 0.526504
0.240001 0.503452 0.9783 -4.629352e-06 -1.173275 2.865423 255 255 255 255 0.397102 0.526935
-0.359999 0.583453 1.0283 -3.595186 -2.164563 2.164546 255 255 255 255 0.394064 0.524865
0.240001 0.583452 1.0283 -3.655494e-06 -2.164554 2.164554 255 255 255 255 0.396709 0.527377
0.240001 0.633452 1.1083 -2.249432e-06 -1.332033 0.8325215 255 255 255 255 0.396308 0.527820
-0.359999 0.633453 1.1083 -3.700195 -2.902828 0.8325207 255 255 255 255 0.393496 0.525267
-0.339999 0.653453 1.1983 -3.445295 -3.189495 0.9136779 255 255 255 255 0.392775 0.525451
-0.359999 0.633453 1.1183 -2.843043 -2.861273 0.6562849 255 255 255 255 0.393308 0.525376
-0.329999 0.643453 1.2583 -2.937665 -2.66531 0.6505989 255 255 255 255 0.392482 0.525655
-0.249999 0.583453 1.3683 -2.343915 -1.62819 1.457824 255 255 255 255 0.392579 0.526410
-0.309999 0.633453 1.2883 -2.682911 -2.825772 0.7685646 255 255 255 255 0.392310 0.525803
-0.249999 0.243453 1.3683 -2.234168 2.347432 0.6168023 255 255 255 255 0.394898 0.521627
-0.2 0.303452 1.4083 -1.028836 0.009984046 2.205903 255 255 255 255 0.395224 0.521044
-0.309999 0.193453 1.2883 -2.707791 2.860228 0.7365398 255 255 255 255 0.394824 0.522226
-0.329999 0.183453 1.2583 -2.937655 2.665309 0.6505901 255 255 255 255 0.394870 0.522408
-0.339999 0.173453 1.1983 -3.415474 3.329997 1.002884 255 255 255 255 0.394973 0.522669
-0.359999 0.193453 1.1183 -2.848946 2.888902 0.6311044 255 255 255 255 0.395099 0.522951
-0.359999 0.193453 1.1083 -3.700187 2.902831 0.832517 255 255 255 255 0.395093 0.523022
-0.359999 0.243453 1.0283 -3.595165 2.164565 2.164549 255 255 255 255 0.395184 0.523305
-0.359999 0.323453 0.978299 -3.481532 1.173284 2.865413 255 255 255 255 0.395094 0.523599
0.240001 0.323452 0.9783 -1.861794e-06 0.3407528 1.533389 255 255 255 255 0.397862 0.526079
-0.2 0.503453 1.4183 0 1.043215 2.938314 255 255 255 255 0.396656 0.520693
-0.15 0.413453 1.4383 -2.16361 -1.776498e-07 4.648639 255 255 255 255 0.396029 0.520671
-0.18 0.503453 1.4183 -2.220824 0.7309223 5.987564 255 255 255 255 0.396604 0.520585
-0.18 0.323453 1.4183 -2.227929 -0.7614776 5.984506 255 255 255 255 0.395614 0.521078
-0.2 0.093453 1.4083 -0.86126 0.01778081 1.313562 255 255 255 255 0.394390 0.521730
-0.199999 0.733453 1.4083 -0.8713305 0 1.306975 255 255 255 255 0.397862 0.520002
-0.199999 0.523453 1.4083 -1.115926 0.2620561 2.664129 255 255 255 255 0.396776 0.520639
0 0.733453 1.4783 0 2.719406 3.071857 255 255 255 255 0.387123 0.526928
-0.359999 0.753453 0.958299 -3.110411 0 0 255 255 255 255 0.394053 0.524164
-0.359998 0.073452 0.158299 -3.141593 0 -3.315948e-06 255 255 255 255 0.402838 0.530943
-0.359998 0.783452 0.158299 -3.162369 0 -3.228041e-06 255 255 255 255 0.405159 0.531597
-0.359999 0.073452 0.638299 -3.141589 0 -3.315948e-06 255 255 255 255 0.400616 0.532052
-0.359999 0.173452 0.638299 -3.141593 6.879985e-06 -1.841439e-05 255 255 255 255 0.400616 0.531605
-0.359998 0.173452 0.158299 -3.141592 0 -3.315948e-06 255 255 255 255 0.402763 0.531605
-0.359998 0.653452 0.158299 -3.141592 0 -3.315948e-06 255 255 255 255 0.400993 0.534560
-0.359999 0.653452 0.638299 -3.141593 -6.879987e-06 -1.841439e-05 255 255 255 255 0.398846 0.534560
-0.359999 0.763452 0.638299 -3.151999 0 -3.403855e-06 255 255 255 255 0.398846 0.534068
0.240001 0.763453 0.8083 3.182384 0 3.332629e-06 255 255 255 255 0.492955 0.485507
0.190001 0.503452 0.9783 -2.369122 0 1.507596 255 255 255 255 0.393744 0.521352
0.170001 0.413452 0.9583 -1.790818 0 1.79082 255 255 255 255 0.394096 0.521852
3 0 1 2 
3 0 2 3 
3 4 5 6 
3 4 6 7 
3 8 2 1 
3 8 1 9 
3 2 10 11 
3 2 11 5 
3 12 0 3 
3 12 3 13 
3 6 14 15 
3 6 15 3 
3 14 11 5 
3 14 5 6 
3 10 15 14 
3 10 14 11 
3 15 10 8 
3 15 8 13 
3 13 8 9 
3 13 9 12 
3 16 17 18 
3 16 18 19 
3 19 18 20 
3 19 20 21 
3 21 20 22 
3 21 22 23 
3 23 22 24 
3 23 24 25 
3 25 24 26 
3 25 26 27 
3 27 26 28 
3 27 28 29 
3 29 28 30 
3 29 30 31 
3 31 30 32 
3 31 32 33 
3 33 32 34 
3 33 34 35 
3 35 34 36 
3 35 36 37 
3 37 36 38 
3 37 38 39 
3 39 38 40 
3 39 40 41 
3 41 40 42 
3 41 42 43 
3 43 42 44 
3 43 44 45 
3 45 44 46 
3 45 46 47 
3 47 46 17 
3 47 17 16 
3 9 1 48 
3 9 48 49 
3 50 48 1 
3 50 1 0 
3 0 12 51 
3 0 51 50 
3 12 9 49 
3 12 49 51 
3 49 52 53 
3 49 53 54 
3 52 48 55 
3 52 55 56 
3 56 57 58 
3 56 58 59 
3 55 60 61 
3 55 61 57 
3 60 62 63 
3 60 63 61 
3 62 64 65 
3 62 65 63 
3 66 67 68 
3 66 68 51 
3 69 70 50 
3 69 50 68 
3 71 72 69 
3 71 69 73 
3 72 74 75 
3 72 75 70 
3 74 76 77 
3 74 77 75 
3 78 79 71 
3 78 71 80 
3 79 81 72 
3 79 72 71 
3 81 82 74 
3 81 74 72 
3 82 83 76 
3 82 76 74 
3 83 84 85 
3 83 85 76 
3 86 87 88 
3 86 88 84 
3 89 90 87 
3 89 87 86 
3 91 92 90 
3 91 90 89 
3 93 94 92 
3 93 92 91 
3 95 93 94 
3 95 94 96 
3 97 95 96 
3 97 96 98 
3 99 97 98 
3 99 98 100 
3 101 99 100 
3 101 100 102 
3 103 101 102 
3 103 102 104 
3 105 103 104 
3 105 104 106 
3 107 105 106 
3 107 106 108 
3 78 107 108 
3 78 108 109 
3 79 78 109 
3 79 109 110 
3 81 79 110 
3 81 110 111 
3 82 81 111 
3 82 111 112 
3 83 82 112 
3 83 112 88 
3 111 113 114 
3 111 114 112 
3 112 114 115 
3 112 115 88 
3 88 87 116 
3 88 116 115 
3 87 90 117 
3 87 117 116 
3 90 92 118 
3 90 118 117 
3 92 94 119 
3 92 119 118 
3 94 119 120 
3 94 120 96 
3 96 120 121 
3 96 121 98 
3 98 121 122 
3 98 122 100 
3 100 122 123 
3 100 123 102 
3 102 123 124 
3 102 124 104 
3 104 124 125 
3 104 125 106 
3 106 125 126 
3 106 126 108 
3 108 126 127 
3 108 127 109 
3 109 127 128 
3 109 128 110 
3 110 128 113 
3 110 113 111 
3 129 130 131 
3 129 131 132 
3 130 133 134 
3 130 134 131 
3 133 135 136 
3 133 136 134 
3 135 137 138 
3 135 138 136 
3 129 132 139 
3 129 139 140 
3 137 141 142 
3 137 142 138 
3 143 129 140 
3 143 140 144 
3 143 144 141 
3 143 141 137 
3 121 132 131 
3 121 131 122 
3 122 131 134 
3 122 134 123 
3 123 134 136 
3 123 136 124 
3 124 136 138 
3 124 138 125 
3 132 121 145 
3 132 145 139 
3 146 147 139 
3 146 139 145 
3 148 149 147 
3 148 147 146 
3 138 150 148 
3 138 148 125 
3 151 144 140 
3 151 140 152 
3 153 152 140 
3 154 140 155 
3 154 155 156 
3 156 155 139 
3 156 139 157 
3 158 157 139 
3 158 139 159 
3 159 139 160 
3 159 160 161 
3 162 161 160 
3 162 160 147 
3 163 164 165 
3 163 165 166 
3 167 163 166 
3 167 166 168 
3 167 168 169 
3 167 169 170 
3 171 172 151 
3 171 151 152 
3 173 171 152 
3 173 152 153 
3 174 175 153 
3 174 153 140 
3 176 177 157 
3 178 176 157 
3 178 157 158 
3 179 178 158 
3 179 158 159 
3 180 159 161 
3 180 161 181 
3 182 161 162 
3 182 162 183 
3 183 162 147 
3 183 147 184 
3 184 185 165 
3 184 165 164 
3 186 154 187 
3 186 187 188 
3 154 156 189 
3 154 189 187 
3 190 93 189 
3 190 189 177 
3 64 191 192 
3 64 192 188 
3 93 95 193 
3 93 193 64 
3 95 97 65 
3 95 65 193 
3 97 99 63 
3 97 63 65 
3 194 163 167 
3 194 167 55 
3 55 172 171 
3 55 171 60 
3 60 175 174 
3 60 174 62 
3 86 183 184 
3 86 184 84 
3 89 180 181 
3 89 181 86 
3 91 176 178 
3 91 178 89 
3 195 196 48 
3 195 48 50 
3 197 198 199 
3 197 199 195 
3 200 201 202 
3 200 202 196 
3 197 85 194 
3 197 194 202 
3 67 66 54 
3 67 54 53 
3 66 51 49 
3 66 49 54 
3 203 80 67 
3 203 67 53 
3 59 107 78 
3 59 78 203 
3 105 107 59 
3 105 59 58 
3 103 105 58 
3 103 58 57 
3 61 101 103 
3 61 103 57 
3 99 101 61 
3 99 61 63 
3 3 18 17 
3 3 20 18 
3 3 22 20 
3 3 24 22 
3 2 26 24 
3 2 28 26 
3 2 30 28 
3 2 32 30 
3 4 34 32 
3 4 36 34 
3 4 38 36 
3 4 40 38 
3 7 42 40 
3 7 44 42 
3 7 46 44 
3 7 17 46 
3 64 193 65 
3 80 71 73 
3 76 85 77 
3 83 88 84 
3 150 141 204 
3 150 204 149 
3 149 204 205 
3 143 130 129 
3 143 133 130 
3 143 135 133 
3 143 137 135 
3 148 126 125 
3 148 127 126 
3 148 128 127 
3 148 113 128 
3 146 114 113 
3 146 115 114 
3 146 116 115 
3 146 117 116 
3 145 117 118 
3 145 118 119 
3 145 119 120 
3 145 120 121 
3 150 149 148 
3 170 151 172 
3 173 153 175 
3 192 186 188 
3 189 156 177 
3 179 159 180 
3 181 161 182 
3 93 64 187 
3 188 187 64 
3 187 189 93 
3 194 164 163 
3 55 167 170 
3 55 170 172 
3 60 171 173 
3 60 173 175 
3 62 174 188 
3 62 64 187 
3 184 164 84 
3 182 183 86 
3 181 182 86 
3 179 180 89 
3 178 179 89 
3 189 176 91 
3 93 91 187 
3 164 194 84 
3 199 16 19 
3 199 19 21 
3 199 21 23 
3 199 23 25 
3 200 25 27 
3 200 27 29 
3 200 29 31 
3 200 31 33 
3 201 33 35 
3 201 35 37 
3 201 37 39 
3 201 39 41 
3 198 41 43 
3 198 43 45 
3 198 45 47 
3 198 47 16 
