ply
format ascii 1.0
comment VCGLIB generated
element vertex 93
property float x
property float y
property float z
property float nx
property float ny
property float nz
property uchar red
property uchar green
property uchar blue
property uchar alpha
property float texture_u
property float texture_v
element face 164
property list uchar int vertex_indices
end_header
0.075628 0.85471 2.2163 -4.843727 -1.295639 3.786353 255 255 255 255 0.697733 0.776293
0.068849 0.759281 2.17625 -2.301438 -3.314916 0.3968204 255 255 255 255 0.691790 0.782545
0.094032 0.753247 2.20513 -1.560581 -3.603453 1.352628 255 255 255 255 0.689820 0.779730
0.045264 0.780829 2.15356 -3.101025 -2.615705 -0.3566167 255 255 255 255 0.694660 0.784346
0.027597 0.812953 2.14087 -3.71228 -1.680978 -0.7414261 255 255 255 255 0.697784 0.784895
0.016285 0.852481 2.1388 -4.031476 -0.6326277 -0.8207232 255 255 255 255 0.701225 0.784172
0.013426 0.891078 2.14947 -4.096503 0.4051057 -0.5069113 255 255 255 255 0.703921 0.782222
0.019315 0.923891 2.16931 -3.830205 1.390294 0.08830905 255 255 255 255 0.705647 0.779567
0.034801 0.946987 2.19692 -3.333999 2.132596 0.982169 255 255 255 255 0.706297 0.776240
0.057224 0.956172 2.22747 -2.618316 2.460732 1.986323 255 255 255 255 0.705610 0.772829
0.081629 0.948963 2.2561 -1.877782 2.24445 2.943502 255 255 255 255 0.703680 0.770091
0.105101 0.927289 2.27976 -1.156677 1.550289 3.627142 255 255 255 255 0.700716 0.768238
0.123731 0.895326 2.29258 -0.6017888 0.5695531 4.060827 255 255 255 255 0.697542 0.767696
0.135933 0.857098 2.29394 -0.2370591 -0.4920299 4.154398 255 255 255 255 0.694306 0.768350
0.137902 0.8172 2.28398 -0.2085235 -1.579392 3.823063 255 255 255 255 0.691464 0.770352
0.131051 0.784227 2.264 -0.4065729 -2.583298 3.171175 255 255 255 255 0.689724 0.773059
0.115676 0.761258 2.23543 -0.8695848 -3.326244 2.280775 255 255 255 255 0.689076 0.776501
0.738901 1.1844 1.68049 1.307194 -3.698705 -2.991518 255 255 255 255 0.681354 0.759874
0.842552 1.22539 1.69731 2.183477 0.1283673 -2.314544 255 255 255 255 0.714068 0.759874
0.796945 1.18157 1.73323 1.092353 -5.51298 -1.128934 255 255 255 255 0.714068 0.792588
0.746441 1.26462 1.67252 1.015526 2.919915 -2.697901 255 255 255 255 0.681354 0.759874
0.655172 1.17966 1.6442 0.7850106 -3.165189 -3.04959 255 255 255 255 0.681354 0.759874
0.664306 1.25973 1.63502 0.5549262 2.294996 -2.929076 255 255 255 255 0.714068 0.759874
0.559657 1.17545 1.64152 -0.6240982 -2.339941 -3.509335 255 255 255 255 0.681354 0.759874
0.544934 1.25662 1.65046 -1.568541 2.564809 -2.087803 255 255 255 255 0.714068 0.759874
0.791482 0.900511 1.6484 -0.2286242 4.391935 -1.971489 255 255 255 255 0.681354 0.759874
0.847415 0.907415 1.70247 -0.5944936 5.885471 0.07578695 255 255 255 255 0.714068 0.759874
0.904058 0.891275 1.65983 2.020054 1.208179 -2.304595 255 255 255 255 0.714068 0.792588
0.826435 0.831789 1.62373 1.911725 -1.659912 -3.359344 255 255 255 255 0.681354 0.759874
0.709463 0.880341 1.61124 -0.5505411 3.805737 -2.285851 255 255 255 255 0.681354 0.759874
0.745467 0.812277 1.58575 1.196524 -1.315774 -3.35158 255 255 255 255 0.714068 0.792588
0.61855 0.850773 1.60577 -1.547869 2.668313 -2.937903 255 255 255 255 0.681354 0.759874
0.633273 0.769603 1.59683 -0.6386483 -2.449667 -2.658076 255 255 255 255 0.714068 0.792588
0.581935 0.883025 1.83029 0.5498481 -3.016631 -0.3292612 255 255 255 255 0.711601 0.767132
0.557714 0.889219 1.80155 -0.2312485 -2.787454 -1.268336 255 255 255 255 0.707103 0.762538
0.534129 0.910767 1.77886 -0.9652987 -2.153677 -1.999311 255 255 255 255 0.701077 0.759945
0.51465 0.942696 1.76494 -1.530674 -1.180061 -2.393134 255 255 255 255 0.694535 0.759878
0.503226 0.982099 1.76383 -1.880871 -0.06217073 -2.461275 255 255 255 255 0.688342 0.762413
0.500479 1.02082 1.77354 -1.934387 1.055051 -2.149014 255 255 255 255 0.683838 0.766944
0.50818 1.05383 1.79461 -1.724714 2.057428 -1.53675 255 255 255 255 0.681357 0.772996
0.523667 1.07692 1.82222 -1.256331 2.725053 -0.693537 255 255 255 255 0.681383 0.779545
0.545127 1.08595 1.85264 -0.5416469 3.000238 0.3337311 255 255 255 255 0.683883 0.785530
0.569532 1.07874 1.88127 0.2637073 2.774743 1.302296 255 255 255 255 0.688469 0.790093
0.593117 1.05719 1.90396 0.9877068 2.11134 2.012493 255 255 255 255 0.694514 0.792584
0.611746 1.02523 1.91679 1.53147 1.193251 2.404034 255 255 255 255 0.700796 0.792584
0.623836 0.986876 1.91911 1.859197 0.07739757 2.444128 255 255 255 255 0.706762 0.790153
0.625917 0.947104 1.90819 1.942089 -1.058105 2.156302 255 255 255 255 0.711534 0.785426
0.619066 0.914131 1.88821 1.734392 -2.011277 1.558701 255 255 255 255 0.713955 0.779622
0.60358 0.891035 1.8606 1.236383 -2.72756 0.6649919 255 255 255 255 0.714011 0.773071
0.466703 0.980652 1.71681 0.2129885 0.5378159 -4.657946 255 255 255 255 0.681354 0.759874
0.403745 1.06069 1.76248 -4.06719 0.4873432 -0.3544098 255 255 255 255 0.714068 0.759874
0.465333 1.0441 1.71608 0.2741019 -0.6085212 -4.645535 255 255 255 255 0.714068 0.792588
0.406409 0.964518 1.764 -4.063352 -0.7045202 -0.311801 255 255 255 255 0.714068 0.792588
0.430299 1.14955 1.74067 -3.7966 1.57704 -0.6072146 255 255 255 255 0.714068 0.759874
0.48263 1.10401 1.70125 -0.0484907 -1.677932 -4.367661 255 255 255 255 0.714068 0.792588
0.478874 1.21788 1.70093 -3.121507 2.404608 -1.132457 255 255 255 255 0.714068 0.759874
0.515839 1.14997 1.67557 -0.6346043 -2.571652 -3.912606 255 255 255 255 0.714068 0.792588
0.560035 0.770427 1.65166 -2.126557 -3.028271 -1.711347 255 255 255 255 0.714068 0.759874
0.57013 0.850657 1.64261 -1.686542 2.939753 -3.303878 255 255 255 255 0.714068 0.792588
0.492136 0.80864 1.70312 -3.034054 -2.634118 -1.089528 255 255 255 255 0.714068 0.759874
0.523855 0.876733 1.67622 -0.7579752 2.416253 -3.913803 255 255 255 255 0.714068 0.792588
0.437424 0.875015 1.74203 -3.650727 -1.778319 -0.5976546 255 255 255 255 0.714068 0.759874
0.487602 0.921332 1.70256 -0.1538358 1.649203 -4.397953 255 255 255 255 0.714068 0.792588
0.754967 1.05557 2.08896 4.538457 -0.465896 0.940432 255 255 255 255 0.681354 0.759874
0.695081 0.97583 2.13675 -0.7161072 -0.5727661 4.039023 255 255 255 255 0.714068 0.759874
0.756337 0.992124 2.08969 4.514791 0.709681 0.9470956 255 255 255 255 0.714068 0.792588
0.693379 1.07216 2.13536 -0.732524 0.6137069 4.061022 255 255 255 255 0.714068 0.792588
0.772264 1.11548 2.07413 4.228933 -1.566025 1.219925 255 255 255 255 0.681354 0.759874
0.718971 1.16087 2.11342 -0.4346973 1.686859 3.775139 255 255 255 255 0.714068 0.792588
0.805473 1.16144 2.04846 3.591903 -2.391914 1.768692 255 255 255 255 0.681354 0.759874
0.768508 1.22935 2.07382 0.1809687 2.572925 3.26753 255 255 255 255 0.714068 0.792588
0.849292 1.18693 2.01441 2.720452 -2.898216 2.500511 255 255 255 255 0.681354 0.759874
0.834568 1.2681 2.02334 1.090577 3.038554 2.475466 255 255 255 255 0.714068 0.792588
0.898008 1.18615 1.97649 1.882229 -3.079958 2.598661 255 255 255 255 0.681354 0.759874
0.907141 1.26622 1.96731 1.935666 3.216406 2.432736 255 255 255 255 0.714068 0.792588
0.921303 1.18446 1.95882 1.841744 -3.064895 2.402632 255 255 255 255 0.681354 0.759874
0.92972 1.26552 1.95015 2.182642 3.091941 1.814865 255 255 255 255 0.714068 0.792588
0.953229 1.18776 1.93443 2.454433 -2.758608 1.441859 255 255 255 255 0.681354 0.759874
0.998835 1.23159 1.89851 1.810328 0.2300171 -0.1193377 255 255 255 255 0.714068 0.792588
0.973778 0.901146 1.92679 0.7835353 2.946603 3.049143 255 255 255 255 0.681354 0.759874
1.06034 0.897465 1.86103 1.811376 0.474906 -0.07003323 255 255 255 255 0.714068 0.759874
1.0037 0.913606 1.90368 1.413518 3.077457 2.091658 255 255 255 255 0.714068 0.792588
1.00982 0.832113 1.90129 3.187138 -2.472239 1.237528 255 255 255 255 0.714068 0.792588
0.952299 0.886839 1.94353 0.8373008 2.92408 3.317475 255 255 255 255 0.681354 0.759874
0.988302 0.818774 1.91804 2.996285 -2.775755 1.710451 255 255 255 255 0.714068 0.792588
0.908184 0.862245 1.97865 1.619131 3.083797 3.145516 255 255 255 255 0.681354 0.759874
0.922907 0.781076 1.96971 2.187262 -2.92935 1.820105 255 255 255 255 0.714068 0.792588
0.859764 0.862129 2.01549 2.59723 3.052443 2.411396 255 255 255 255 0.681354 0.759874
0.849669 0.781899 2.02454 1.17123 -2.968471 2.641804 255 255 255 255 0.714068 0.792588
0.813489 0.888205 2.0491 3.464026 2.627378 1.656971 255 255 255 255 0.681354 0.759874
0.780808 0.819952 2.07587 0.3351204 -2.486944 3.32546 255 255 255 255 0.714068 0.792588
0.777236 0.932805 2.07544 4.127906 1.808638 1.204598 255 255 255 255 0.681354 0.759874
0.727058 0.886487 2.11491 -0.3201565 -1.672831 3.800433 255 255 255 255 0.714068 0.792588
3 0 1 2 
3 0 3 1 
3 0 4 3 
3 0 5 4 
3 0 6 5 
3 0 7 6 
3 0 8 7 
3 0 9 8 
3 0 10 9 
3 0 11 10 
3 0 12 11 
3 0 13 12 
3 0 14 13 
3 0 15 14 
3 0 16 15 
3 0 2 16 
3 17 18 19 
3 20 18 17 
3 21 20 17 
3 21 22 20 
3 23 22 21 
3 23 24 22 
3 25 26 27 
3 28 25 27 
3 29 25 28 
3 29 28 30 
3 31 29 30 
3 31 30 32 
3 33 1 34 
3 1 33 2 
3 34 3 35 
3 3 34 1 
3 35 4 36 
3 4 35 3 
3 36 5 37 
3 5 36 4 
3 37 6 38 
3 6 37 5 
3 38 7 39 
3 7 38 6 
3 39 8 40 
3 8 39 7 
3 40 9 41 
3 9 40 8 
3 41 10 42 
3 10 41 9 
3 42 11 43 
3 11 42 10 
3 43 12 44 
3 12 43 11 
3 44 13 45 
3 13 44 12 
3 45 14 46 
3 14 45 13 
3 46 15 47 
3 15 46 14 
3 47 16 48 
3 16 47 15 
3 48 2 33 
3 2 48 16 
3 49 50 51 
3 50 49 52 
3 51 53 54 
3 53 51 50 
3 54 55 56 
3 55 54 53 
3 56 24 23 
3 24 56 55 
3 31 57 58 
3 57 31 32 
3 58 59 60 
3 59 58 57 
3 60 61 62 
3 61 60 59 
3 62 52 49 
3 52 62 61 
3 63 64 65 
3 64 63 66 
3 67 66 63 
3 66 67 68 
3 69 68 67 
3 68 69 70 
3 71 70 69 
3 70 71 72 
3 73 72 71 
3 72 73 74 
3 75 74 73 
3 74 75 76 
3 77 76 75 
3 76 77 78 
3 79 80 81 
3 80 79 82 
3 83 82 79 
3 82 83 84 
3 85 84 83 
3 84 85 86 
3 87 86 85 
3 86 87 88 
3 89 88 87 
3 88 89 90 
3 91 90 89 
3 90 91 92 
3 65 92 91 
3 92 65 64 
3 19 18 78 
3 78 77 19 
3 26 80 27 
3 80 26 81 
3 65 51 63 
3 51 65 49 
3 63 54 67 
3 54 63 51 
3 67 56 69 
3 56 67 54 
3 69 23 71 
3 23 69 56 
3 71 21 73 
3 21 71 23 
3 73 17 75 
3 17 73 21 
3 75 19 77 
3 19 75 17 
3 81 25 79 
3 25 81 26 
3 79 29 83 
3 29 79 25 
3 83 31 85 
3 31 83 29 
3 85 58 87 
3 58 85 31 
3 87 60 89 
3 60 87 58 
3 89 62 91 
3 62 89 60 
3 91 49 65 
3 49 91 62 
3 64 66 50 
3 50 52 64 
3 66 68 53 
3 53 50 66 
3 68 70 55 
3 55 53 68 
3 70 72 24 
3 24 55 70 
3 72 74 22 
3 22 24 72 
3 74 76 20 
3 20 22 74 
3 76 78 18 
3 18 20 76 
3 80 82 28 
3 28 27 80 
3 82 84 30 
3 30 28 82 
3 84 86 32 
3 32 30 84 
3 86 88 57 
3 57 32 86 
3 88 90 59 
3 59 57 88 
3 90 92 61 
3 61 59 90 
3 92 64 52 
3 52 61 92 
