ply
format ascii 1.0
comment VCGLIB generated
element vertex 93
property float x
property float y
property float z
property float nx
property float ny
property float nz
property uchar red
property uchar green
property uchar blue
property uchar alpha
property float texture_u
property float texture_v
element face 164
property list uchar int vertex_indices
end_header
0.037098 -0.910345 2.17479 -5.177091 0.8990582 3.44474 255 255 255 255 0.763509 0.686870
0.014757 -1.01153 2.16904 -2.894593 -2.560692 1.262605 255 255 255 255 0.757768 0.692910
0.037083 -1.01071 2.20097 -2.258589 -2.60036 2.323945 255 255 255 255 0.755866 0.690190
-0.003434 -0.996096 2.13778 -3.523871 -2.062705 0.2363357 255 255 255 255 0.760541 0.694649
-0.014327 -0.968269 2.11295 -3.94072 -1.240716 -0.5106469 255 255 255 255 0.763558 0.695179
-0.018099 -0.930816 2.09627 -4.060878 -0.2464695 -0.979897 255 255 255 255 0.766883 0.694481
-0.014315 -0.890988 2.0928 -3.946397 0.8385424 -1.048111 255 255 255 255 0.769487 0.692598
-0.003412 -0.854582 2.10088 -3.525865 1.919305 -0.798036 255 255 255 255 0.771154 0.690033
0.014786 -0.825856 2.12061 -2.936916 2.840102 -0.1641589 255 255 255 255 0.771782 0.686819
0.037114 -0.809981 2.14862 -2.214702 3.380845 0.7325955 255 255 255 255 0.771118 0.683524
0.058471 -0.810208 2.18064 -1.566012 3.402068 1.76917 255 255 255 255 0.769254 0.680879
0.076485 -0.825399 2.21283 -1.011033 2.892585 2.714421 255 255 255 255 0.766391 0.679088
0.088346 -0.853181 2.23783 -0.6607479 2.055446 3.509744 255 255 255 255 0.763325 0.678566
0.093264 -0.88983 2.25349 -0.4993591 1.051712 3.999232 255 255 255 255 0.760198 0.679197
0.088334 -0.930462 2.25799 -0.6574791 -0.07411069 4.064434 255 255 255 255 0.757454 0.681131
0.076463 -0.966913 2.24974 -1.011314 -1.199106 3.780027 255 255 255 255 0.755772 0.683746
0.058442 -0.995883 2.22906 -1.567315 -2.124526 3.160285 255 255 255 255 0.755147 0.687070
0.77335 -0.901807 1.62505 0.7411522 -4.683586 -1.38762 255 255 255 255 0.747688 0.671010
0.881928 -0.874234 1.63762 2.265593 -1.037515 -1.959731 255 255 255 255 0.779288 0.671010
0.827467 -0.894641 1.68181 0.1142378 -5.657789 0.9504324 255 255 255 255 0.779288 0.702610
0.795826 -0.831912 1.5908 1.653364 1.571444 -3.401973 255 255 255 255 0.747688 0.671010
0.691872 -0.906046 1.58375 0.3261792 -4.127831 -1.684061 255 255 255 255 0.747688 0.671010
0.715939 -0.836976 1.54857 1.090917 0.9818938 -3.449519 255 255 255 255 0.779288 0.671010
0.597395 -0.895936 1.57273 -0.9022014 -3.3003 -2.534686 255 255 255 255 0.747688 0.671010
0.597407 -0.815644 1.5518 -0.9867912 1.866573 -2.990684 255 255 255 255 0.779288 0.671010
0.774413 -1.18309 1.69762 0.6700293 3.394603 -3.367035 255 255 255 255 0.747688 0.671010
0.828179 -1.16615 1.75208 0.4897106 5.55051 -1.997666 255 255 255 255 0.779288 0.671010
0.882793 -1.20512 1.72326 2.303115 -0.01764762 -2.334762 255 255 255 255 0.779288 0.702610
0.797268 -1.2607 1.70154 1.723415 -3.012037 -2.362477 255 255 255 255 0.747688 0.671010
0.691827 -1.20212 1.66096 0.2574852 2.787687 -3.496554 255 255 255 255 0.747688 0.671010
0.715871 -1.27958 1.66399 1.077995 -2.576684 -2.547946 255 255 255 255 0.779288 0.702610
0.597345 -1.2171 1.65649 -0.9172254 1.658957 -3.808877 255 255 255 255 0.747688 0.671010
0.597333 -1.29739 1.67743 -0.9669443 -3.099922 -1.712608 255 255 255 255 0.779288 0.702610
0.557128 -1.10141 1.85347 -8.042157e-05 -2.984982 0.7784277 255 255 255 255 0.776905 0.678020
0.535771 -1.10219 1.82171 -0.6863409 -2.981664 -0.251271 255 255 255 255 0.772561 0.673583
0.51758 -1.08676 1.79046 -1.261814 -2.542865 -1.22154 255 255 255 255 0.766739 0.671078
0.504928 -1.05926 1.76435 -1.624519 -1.696508 -1.97988 255 255 255 255 0.760420 0.671013
0.500978 -1.02156 1.74859 -1.762435 -0.6340048 -2.462855 255 255 255 255 0.754438 0.673462
0.50494 -0.981981 1.74419 -1.622295 0.5169519 -2.55884 255 255 255 255 0.750087 0.677839
0.517601 -0.945241 1.75355 -1.256866 1.624864 -2.309511 255 255 255 255 0.747691 0.683685
0.535799 -0.916515 1.77329 -0.7089286 2.462953 -1.705682 255 255 255 255 0.747716 0.690012
0.557159 -0.900684 1.80112 0.0004261732 2.968401 -0.7741657 255 255 255 255 0.750131 0.695793
0.578517 -0.900912 1.83314 0.7114055 2.981608 0.2846384 255 255 255 255 0.754560 0.700200
0.596708 -0.916346 1.86439 1.275833 2.512421 1.249074 255 255 255 255 0.760400 0.702607
0.608569 -0.944129 1.8894 1.630539 1.718584 1.988808 255 255 255 255 0.766468 0.702607
0.613309 -0.980534 1.90599 1.748844 0.6467145 2.445438 255 255 255 255 0.772231 0.700258
0.608557 -1.02141 1.90955 1.632329 -0.5220246 2.573333 255 255 255 255 0.776841 0.695693
0.596686 -1.05786 1.9013 1.274259 -1.583109 2.317458 255 255 255 255 0.779179 0.690086
0.578488 -1.08659 1.88156 0.6868018 -2.479007 1.674884 255 255 255 255 0.779233 0.683758
0.466963 -1.03399 1.70093 0.5056854 -1.185626 -4.492155 255 255 255 255 0.747688 0.671010
0.417722 -0.934066 1.71003 -3.909445 0.9647763 -0.9291004 255 255 255 255 0.779288 0.671010
0.477282 -0.975568 1.67834 0.3527682 -2.25389 -4.079915 255 255 255 255 0.779288 0.702610
0.402639 -1.02256 1.74473 -4.12833 -0.1259846 -0.4784266 255 255 255 255 0.779288 0.702610
0.461084 -0.864132 1.66173 -3.427635 1.838922 -1.510818 255 255 255 255 0.779288 0.671010
0.505926 -0.928373 1.64559 -0.1775334 -3.092074 -3.486543 255 255 255 255 0.779288 0.702610
0.523125 -0.822975 1.60584 -2.586202 2.306495 -2.211302 255 255 255 255 0.779288 0.671010
0.548137 -0.900393 1.60905 -0.9405478 -3.660285 -2.820491 255 255 255 255 0.779288 0.702610
0.523057 -1.26558 1.72127 -2.578511 -3.072791 -0.7880538 255 255 255 255 0.779288 0.671010
0.548091 -1.19647 1.68626 -0.9916559 1.811697 -4.248451 255 255 255 255 0.779288 0.702610
0.461032 -1.20136 1.74967 -3.428867 -2.350895 -0.4373105 255 255 255 255 0.779288 0.671010
0.505892 -1.15319 1.70422 -0.1444228 0.9706179 -4.540973 255 255 255 255 0.779288 0.702610
0.417693 -1.11773 1.75793 -3.904711 -1.288977 -0.3343893 255 255 255 255 0.779288 0.671010
0.477263 -1.09701 1.71001 0.3348863 -0.004386872 -4.668706 255 255 255 255 0.779288 0.702610
0.747033 -0.877038 2.05632 4.350829 -0.8044418 1.520402 255 255 255 255 0.747688 0.671010
0.671422 -0.924071 2.12254 -0.9783777 1.010899 3.868213 255 255 255 255 0.779288 0.671010
0.736715 -0.935459 2.07891 4.544247 0.286921 1.122576 255 255 255 255 0.779288 0.702610
0.687473 -0.835536 2.088 -0.7769894 2.117589 3.482332 255 255 255 255 0.779288 0.702610
0.775678 -0.829843 2.02357 3.830573 -1.671678 2.1213 255 255 255 255 0.747688 0.671010
0.729868 -0.765647 2.03953 -0.2726335 2.958979 2.883435 255 255 255 255 0.779288 0.702610
0.817888 -0.801863 1.98703 3.02911 -2.138451 2.841771 255 255 255 255 0.747688 0.671010
0.792877 -0.724446 1.98382 0.5173691 3.499547 2.178297 255 255 255 255 0.779288 0.702610
0.867146 -0.797406 1.95071 2.049801 -2.213542 3.597564 255 255 255 255 0.747688 0.671010
0.867158 -0.717115 1.92977 1.528668 3.50873 1.384476 255 255 255 255 0.779288 0.702610
0.916576 -0.819289 1.92026 1.186349 -2.21506 3.664114 255 255 255 255 0.747688 0.671010
0.940643 -0.750218 1.88508 2.396369 3.525578 1.371184 255 255 255 255 0.779288 0.702610
0.939949 -0.830816 1.90659 1.155201 -2.263226 3.472931 255 255 255 255 0.747688 0.671010
0.963472 -0.760528 1.87148 2.64087 3.158441 0.8684255 255 255 255 255 0.779288 0.702610
0.973022 -0.841475 1.88576 1.851259 -2.417397 2.54875 255 255 255 255 0.747688 0.671010
1.02748 -0.821068 1.84158 1.833915 -0.1140678 -0.001282096 255 255 255 255 0.779288 0.702610
0.941011 -1.11153 1.979 1.189112 3.673573 1.911719 255 255 255 255 0.747688 0.671010
1.02835 -1.15196 1.92721 1.87759 0.1304579 -0.03904869 255 255 255 255 0.779288 0.671010
0.973734 -1.11299 1.95603 1.86894 3.361868 1.049831 255 255 255 255 0.779288 0.702610
0.964916 -1.18989 1.98237 2.633736 -2.341219 2.337914 255 255 255 255 0.779288 0.702610
0.916531 -1.11537 1.99748 1.228821 3.739182 2.171811 255 255 255 255 0.747688 0.671010
0.940575 -1.19283 2.00051 2.372269 -2.421724 2.857225 255 255 255 255 0.779288 0.702610
0.867097 -1.11857 2.03447 2.035228 3.702729 2.039531 255 255 255 255 0.747688 0.671010
0.867084 -1.19887 2.0554 1.541971 -2.397742 2.927318 255 255 255 255 0.779288 0.702610
0.817843 -1.09794 2.06424 3.021423 3.261889 1.476989 255 255 255 255 0.747688 0.671010
0.792808 -1.16706 2.09925 0.5023771 -1.984571 3.59175 255 255 255 255 0.779288 0.702610
0.775643 -1.05466 2.0822 3.828061 2.471369 1.015236 255 255 255 255 0.747688 0.671010
0.729816 -1.10287 2.12747 -0.261264 -1.171313 3.97166 255 255 255 255 0.779288 0.702610
0.747014 -0.998479 2.08799 4.352582 1.453428 0.9457315 255 255 255 255 0.747688 0.671010
0.687445 -1.0192 2.1359 -0.779154 -0.151308 4.064739 255 255 255 255 0.779288 0.702610
3 0 1 2 
3 0 3 1 
3 0 4 3 
3 0 5 4 
3 0 6 5 
3 0 7 6 
3 0 8 7 
3 0 9 8 
3 0 10 9 
3 0 11 10 
3 0 12 11 
3 0 13 12 
3 0 14 13 
3 0 15 14 
3 0 16 15 
3 0 2 16 
3 17 18 19 
3 20 18 17 
3 21 20 17 
3 21 22 20 
3 23 22 21 
3 23 24 22 
3 25 26 27 
3 28 25 27 
3 29 25 28 
3 29 28 30 
3 31 29 30 
3 31 30 32 
3 33 1 34 
3 1 33 2 
3 34 3 35 
3 3 34 1 
3 35 4 36 
3 4 35 3 
3 36 5 37 
3 5 36 4 
3 37 6 38 
3 6 37 5 
3 38 7 39 
3 7 38 6 
3 39 8 40 
3 8 39 7 
3 40 9 41 
3 9 40 8 
3 41 10 42 
3 10 41 9 
3 42 11 43 
3 11 42 10 
3 43 12 44 
3 12 43 11 
3 44 13 45 
3 13 44 12 
3 45 14 46 
3 14 45 13 
3 46 15 47 
3 15 46 14 
3 47 16 48 
3 16 47 15 
3 48 2 33 
3 2 48 16 
3 49 50 51 
3 50 49 52 
3 51 53 54 
3 53 51 50 
3 54 55 56 
3 55 54 53 
3 56 24 23 
3 24 56 55 
3 31 57 58 
3 57 31 32 
3 58 59 60 
3 59 58 57 
3 60 61 62 
3 61 60 59 
3 62 52 49 
3 52 62 61 
3 63 64 65 
3 64 63 66 
3 67 66 63 
3 66 67 68 
3 69 68 67 
3 68 69 70 
3 71 70 69 
3 70 71 72 
3 73 72 71 
3 72 73 74 
3 75 74 73 
3 74 75 76 
3 77 76 75 
3 76 77 78 
3 79 80 81 
3 80 79 82 
3 83 82 79 
3 82 83 84 
3 85 84 83 
3 84 85 86 
3 87 86 85 
3 86 87 88 
3 89 88 87 
3 88 89 90 
3 91 90 89 
3 90 91 92 
3 65 92 91 
3 92 65 64 
3 19 18 78 
3 78 77 19 
3 26 80 27 
3 80 26 81 
3 65 51 63 
3 51 65 49 
3 63 54 67 
3 54 63 51 
3 67 56 69 
3 56 67 54 
3 69 23 71 
3 23 69 56 
3 71 21 73 
3 21 71 23 
3 73 17 75 
3 17 73 21 
3 75 19 77 
3 19 75 17 
3 81 25 79 
3 25 81 26 
3 79 29 83 
3 29 79 25 
3 83 31 85 
3 31 83 29 
3 85 58 87 
3 58 85 31 
3 87 60 89 
3 60 87 58 
3 89 62 91 
3 62 89 60 
3 91 49 65 
3 49 91 62 
3 64 66 50 
3 50 52 64 
3 66 68 53 
3 53 50 66 
3 68 70 55 
3 55 53 68 
3 70 72 24 
3 24 55 70 
3 72 74 22 
3 22 24 72 
3 74 76 20 
3 20 22 74 
3 76 78 18 
3 18 20 76 
3 80 82 28 
3 28 27 80 
3 82 84 30 
3 30 28 82 
3 84 86 32 
3 32 30 84 
3 86 88 57 
3 57 32 86 
3 88 90 59 
3 59 57 88 
3 90 92 61 
3 61 59 90 
3 92 64 52 
3 52 61 92 
