ply
format ascii 1.0
comment VCGLIB generated
element vertex 321
property float x
property float y
property float z
property float nx
property float ny
property float nz
property uchar red
property uchar green
property uchar blue
property uchar alpha
property float texture_u
property float texture_v
element face 532
property list uchar int vertex_indices
end_header
0.4 -0.76 1.60529 0.9348436 -2.833123 -2.504146 255 255 255 255 0.456485 0.467154
0.24 -0.64 1.60529 -1.570796 1.570796 -4.71239 255 255 255 255 0.462622 0.467154
0.24 0.64 1.60529 -1.570796 -1.570796 -4.712389 255 255 255 255 0.528085 0.467154
0.4 0.76 1.60529 0.9348437 2.833123 -2.504153 255 255 255 255 0.534222 0.467154
-0.24 0.64 1.60529 1.570796 -1.570796 -4.712389 255 255 255 255 0.528085 0.467154
-0.4 0.76 1.60529 -1.032818 2.586446 -2.605917 255 255 255 255 0.534222 0.467154
-0.24 -0.64 1.60529 1.570796 1.570796 -4.712389 255 255 255 255 0.462622 0.467154
-0.4 -0.76 1.60529 -1.032827 -2.586444 -2.605936 255 255 255 255 0.456485 0.467154
0.14 -0.16 2.76529 -1.110721 0.4600757 0 255 255 255 255 0.487171 0.541311
0.14 -0.16 1.60529 -1.110721 0.4600758 -0.7853982 255 255 255 255 0.487171 0.467154
0.24 -0.26 1.60529 -1.110721 -1.110721 -0.7853982 255 255 255 255 0.482057 0.467154
0.24 -0.26 2.76529 -1.110721 -1.110721 0 255 255 255 255 0.482057 0.541311
0.24 -0.16 2.76529 0 1.570796 0 255 255 255 255 0.487171 0.541311
0.24 -0.16 1.60529 0 1.570796 -1.570796 255 255 255 255 0.487171 0.467154
0.24 0.26 1.60529 -1.110721 1.110721 -0.7853982 255 255 255 255 0.508651 0.467154
0.14 0.16 1.60529 -1.110721 -0.4600758 -0.7853982 255 255 255 255 0.503537 0.467154
0.14 0.16 2.76529 -1.110721 -0.4600757 0 255 255 255 255 0.503537 0.541311
0.24 0.26 2.76529 -1.110721 1.110721 0 255 255 255 255 0.508651 0.541311
0.24 0.16 1.60529 0 -1.570796 -1.570796 255 255 255 255 0.503537 0.467154
0.24 0.16 2.76529 0 -1.570796 0 255 255 255 255 0.503537 0.541311
-0.24 -0.26 1.60529 1.110721 -1.110721 -0.7853982 255 255 255 255 0.482057 0.467154
-0.14 -0.16 1.60529 1.110721 0.4600758 -0.7853982 255 255 255 255 0.487171 0.467154
-0.14 -0.16 2.76529 1.110721 0.4600757 0 255 255 255 255 0.487171 0.541311
-0.24 -0.26 2.76529 1.110721 -1.110721 0 255 255 255 255 0.482057 0.541311
-0.24 -0.16 1.60529 0 1.570796 -1.570796 255 255 255 255 0.487171 0.467154
-0.24 -0.16 2.76529 0 1.570796 0 255 255 255 255 0.487171 0.541311
-0.14 0.16 2.76529 1.110721 -0.4600757 0 255 255 255 255 0.503537 0.541311
-0.14 0.16 1.60529 1.110721 -0.4600758 -0.7853982 255 255 255 255 0.503537 0.467154
-0.24 0.26 1.60529 1.110721 1.110721 -0.7853982 255 255 255 255 0.508651 0.467154
-0.24 0.26 2.76529 1.110721 1.110721 0 255 255 255 255 0.508651 0.541311
-0.24 0.16 2.76529 0 -1.570796 0 255 255 255 255 0.503537 0.541311
-0.24 0.16 1.60529 0 -1.570796 -1.570796 255 255 255 255 0.503537 0.467154
-0.24 -0.64 1.95529 2.970444 3.12022 -0.2582374 255 255 255 255 0.462622 0.489529
0.24 -0.64 1.95529 -2.970444 3.12022 -0.2582373 255 255 255 255 0.462622 0.489529
0.24 0.64 1.95529 -2.970444 -3.12022 -0.2582373 255 255 255 255 0.528085 0.489529
-0.24 0.64 1.95529 2.970444 -3.12022 -0.2582374 255 255 255 255 0.528085 0.489529
-0.24 -0.58 2.31529 0 2.954387 -0.9607189 255 255 255 255 0.465691 0.512543
0.24 -0.58 2.31529 0 2.954387 -0.9607188 255 255 255 255 0.465691 0.512543
-0.24 -0.5 2.76529 1.741945 1.540293 -1.878855 255 255 255 255 0.469782 0.541311
0.24 -0.5 2.76529 -1.741945 1.540293 -1.878855 255 255 255 255 0.469782 0.541311
0.24 -0.51 2.71529 0 3.111089 -0.3080586 255 255 255 255 0.469271 0.538115
-0.24 -0.51 2.71529 0 3.111089 -0.3080585 255 255 255 255 0.469271 0.538115
0.24 0.58 2.31529 0 -2.954387 -0.9607188 255 255 255 255 0.525017 0.512543
-0.24 0.58 2.31529 0 -2.954387 -0.9607189 255 255 255 255 0.525017 0.512543
0.24 0.51 2.71529 0 -3.111089 -0.3080586 255 255 255 255 0.521437 0.538115
0.24 0.5 2.76529 -1.741945 -1.540293 -1.878855 255 255 255 255 0.520925 0.541311
-0.24 0.5 2.76529 1.741945 -1.540293 -1.878855 255 255 255 255 0.520925 0.541311
-0.24 0.51 2.71529 0 -3.111089 -0.3080585 255 255 255 255 0.521437 0.538115
-0.4 0.76 1.72529 -0.8381021 4.88483 0.2657247 255 255 255 255 0.534222 0.474825
0.4 0.76 1.72529 2.668265 6.726987 0.6495931 255 255 255 255 0.534222 0.474825
0.4 -0.76 1.72529 0.9302932 -4.375585 0.2681954 255 255 255 255 0.456485 0.474825
-0.4 -0.76 1.72529 -1.664858 -6.932642 0.6014318 255 255 255 255 0.456485 0.474825
0.4 -0.66 2.33529 -1.375243 -0.5185592 0.3811996 255 255 255 255 0.461600 0.513822
-0.4 -0.66 2.33529 -0.9241241 -5.074285 2.477915 255 255 255 255 0.461600 0.513822
0.4 -0.59 2.72529 0.07781553 -3.227243 0.07565635 255 255 255 255 0.465180 0.538754
0.4 -0.57 2.80529 0.6942329 -3.382127 2.160963 255 255 255 255 0.466202 0.543868
-0.4 -0.57 2.80529 -1.887774 -6.242831 2.928277 255 255 255 255 0.466202 0.543868
-0.4 -0.59 2.72529 -0.1245347 -3.255281 0.7510971 255 255 255 255 0.465180 0.538754
0.319999 -0.541165 2.86344 0.4119771 -3.810547 4.293393 255 255 255 255 0.467677 0.547585
-0.32 -0.541165 2.86344 -0.3628323 -3.824778 4.301757 255 255 255 255 0.467677 0.547585
-0.4 0.66 2.33529 0.9241241 0.2473615 0.2517638 255 255 255 255 0.529108 0.513822
0.4 0.66 2.33529 1.375243 4.803088 2.348481 255 255 255 255 0.529108 0.513822
-0.4 0.57 2.80529 -1.887793 6.242794 2.928315 255 255 255 255 0.524505 0.543868
0.4 0.57 2.80529 2.296006 6.269763 2.881557 255 255 255 255 0.524505 0.543868
0.4 0.59 2.72529 -0.07784602 2.962142 0.6862566 255 255 255 255 0.525528 0.538754
-0.4 0.59 2.72529 -1.104198 5.894963 0.7510818 255 255 255 255 0.525528 0.538754
-0.32 0.541165 2.86344 -0.3628358 3.824776 4.301756 255 255 255 255 0.523031 0.547585
0.32 0.541165 2.86344 0.4103664 3.810938 4.293741 255 255 255 255 0.523031 0.547585
-0.400001 -0.48 2.88529 -1.224517 -1.821832 5.245569 255 255 255 255 0.470805 0.548983
0.399999 -0.48 2.88529 0.8665046 -2.079896 5.317972 255 255 255 255 0.470805 0.548983
0.4 0.48 2.88529 0.8575659 2.062558 5.337953 255 255 255 255 0.519902 0.548983
-0.4 0.48 2.88529 -1.224365 1.821879 5.245648 255 255 255 255 0.519902 0.548983
-1e-06 0.24 3.04529 -2.503395e-06 6.133564 -1.158196e-08 255 255 255 255 0.507628 0.559211
-0 0.24 2.88529 2.667308e-06 3.066782 5.003699e-09 255 255 255 255 0.507628 0.548983
-0.09 0.22 2.88529 -1.173272 2.865425 -7.325338e-06 255 255 255 255 0.506605 0.548983
-0.090001 0.22 3.04529 -2.34655 5.730846 -7.320618e-06 255 255 255 255 0.506605 0.559211
-0.17 0.17 2.88529 -2.164553 2.164556 -1.350322e-05 255 255 255 255 0.504048 0.548983
-0.170001 0.17 3.04529 -4.329106 4.329103 -1.351218e-05 255 255 255 255 0.504048 0.559211
-0.22 0.09 2.88529 -2.865425 1.173275 -1.788773e-05 255 255 255 255 0.499957 0.548983
-0.220001 0.09 3.04529 -5.730846 2.346546 -1.790441e-05 255 255 255 255 0.499957 0.559211
-0.24 0 2.88529 -3.066785 2.980232e-08 -1.913696e-05 255 255 255 255 0.495354 0.548983
-0.240001 0 3.04529 -6.133561 2.980232e-08 -1.91313e-05 255 255 255 255 0.495354 0.559211
-0.22 -0.09 2.88529 -2.865433 -1.173263 -1.787643e-05 255 255 255 255 0.490751 0.548983
-0.220001 -0.09 3.04529 -5.730849 -2.346542 -1.237675e-05 255 255 255 255 0.490751 0.559211
-0.170001 -0.17 2.88529 -2.164558 -2.164545 -5.492712e-06 255 255 255 255 0.486660 0.548983
-0.170001 -0.17 3.04529 -4.329106 -4.329106 0 255 255 255 255 0.486660 0.559211
-0.090001 -0.22 2.88529 -1.173274 -2.865424 0 255 255 255 255 0.484102 0.548983
-0.090001 -0.22 3.04529 -2.346548 -5.730847 0 255 255 255 255 0.484102 0.559211
-1e-06 -0.24 2.88529 -3.576279e-06 -3.066783 0 255 255 255 255 0.483080 0.548983
-1e-06 -0.24 3.04529 -1.192093e-06 -6.133565 1.430884e-06 255 255 255 255 0.483080 0.559211
0.09 -0.22 2.88529 1.17328 -2.865418 5.947349e-06 255 255 255 255 0.484102 0.548983
0.089999 -0.22 3.04529 2.346549 -5.730847 3.919639e-06 255 255 255 255 0.484102 0.559211
0.169999 -0.17 2.88529 2.16455 -2.164562 3.458576e-06 255 255 255 255 0.486660 0.548983
0.169999 -0.17 3.04529 4.329103 -4.32911 5.476017e-06 255 255 255 255 0.486660 0.559211
0.22 -0.09 2.88529 2.865417 -1.17328 1.237861e-05 255 255 255 255 0.490751 0.548983
0.219999 -0.09 3.04529 5.730849 -2.346549 1.78477e-05 255 255 255 255 0.490751 0.559211
0.24 -0 2.88529 3.066779 0 1.91328e-05 255 255 255 255 0.495354 0.548983
0.239999 -0 3.04529 6.133567 2.980232e-08 1.912721e-05 255 255 255 255 0.495354 0.559211
0.22 0.09 2.88529 2.865422 1.173272 1.788049e-05 255 255 255 255 0.499957 0.548983
0.219999 0.09 3.04529 5.730849 2.346549 1.78972e-05 255 255 255 255 0.499957 0.559211
0.17 0.17 2.88529 2.164553 2.16455 1.351439e-05 255 255 255 255 0.504048 0.548983
0.169999 0.17 3.04529 4.329106 4.329109 1.355538e-05 255 255 255 255 0.504048 0.559211
0.09 0.22 2.88529 1.173275 2.865422 7.350087e-06 255 255 255 255 0.506605 0.548983
0.089999 0.22 3.04529 2.346546 5.730849 7.3608e-06 255 255 255 255 0.506605 0.559211
0.089999 0.22 3.36529 1.173274 2.865424 2.801662 255 255 255 255 0.506605 0.579668
0.169999 0.17 3.36529 2.164553 2.164553 2.687995 255 255 255 255 0.504048 0.579668
-1e-06 0.24 3.36529 0 3.066782 2.704255 255 255 255 255 0.507628 0.579668
-0.090001 0.22 3.36529 -1.173274 2.865424 2.801662 255 255 255 255 0.506605 0.579668
-0.170001 0.17 3.36529 -2.164553 2.164553 2.687995 255 255 255 255 0.504048 0.579668
-0.220001 0.09 3.36529 -2.865424 1.173274 2.801662 255 255 255 255 0.499957 0.579668
-0.240001 0 3.36529 -3.066782 -2.980232e-08 2.704255 255 255 255 255 0.495354 0.579668
-0.220001 -0.09 3.36529 -2.865424 -1.173274 2.801662 255 255 255 255 0.490751 0.579668
-0.170001 -0.17 3.36529 -2.164553 -2.164553 2.687995 255 255 255 255 0.486660 0.579668
-0.090001 -0.22 3.36529 -1.173274 -2.865424 2.801662 255 255 255 255 0.484102 0.579668
-1e-06 -0.24 3.36529 5.960464e-08 -3.066782 2.704255 255 255 255 255 0.483080 0.579668
0.089999 -0.22 3.36529 1.173274 -2.865424 2.801662 255 255 255 255 0.484102 0.579668
0.169999 -0.17 3.36529 2.164553 -2.164553 2.687995 255 255 255 255 0.486660 0.579668
-0 0.66 2.33529 0.07864673 -0.3749432 3.094933 255 255 255 255 0.529108 0.513822
-0.08 0.65 2.34529 1.193284 2.338643 5.057165 255 255 255 255 0.528597 0.514461
-0.08 0.57 2.33529 1.128417 -3.575977 1.387032 255 255 255 255 0.524505 0.513822
-0 0.58 2.31529 0.09820968 -1.163517 2.85055 255 255 255 255 0.525017 0.512543
-0.14 0.65 2.39529 2.07792 2.978596 1.996418 255 255 255 255 0.528597 0.517658
-0.14 0.57 2.37529 2.29552 -4.024377 1.916211 255 255 255 255 0.524505 0.516379
-0.18 0.63 2.45529 2.961546 3.119551 2.200423 255 255 255 255 0.527574 0.521493
-0.18 0.56 2.44529 2.986483 -3.538177 0.5923948 255 255 255 255 0.523994 0.520854
-0.2 0.62 2.52529 3.052311 3.621138 0.5396721 255 255 255 255 0.527062 0.525968
-0.2 0.54 2.51529 2.894246 -3.571996 -0.7251208 255 255 255 255 0.522971 0.525329
-0.18 0.61 2.60529 2.808238 3.592287 -0.6950465 255 255 255 255 0.526551 0.531083
-0.18 0.53 2.59529 2.865174 -3.284243 -1.769312 255 255 255 255 0.522460 0.530443
-0.14 0.6 2.66529 2.270813 3.699523 -1.421621 255 255 255 255 0.526040 0.534918
-0.14 0.52 2.65529 2.207309 -3.166607 -2.960321 255 255 255 255 0.521948 0.534279
-0.08 0.59 2.71529 1.286284 4.282382 -2.550041 255 255 255 255 0.525528 0.538115
-0.08 0.51 2.69529 1.309406 -2.898823 -2.801001 255 255 255 255 0.521437 0.536836
-0 0.59 2.72529 -0.09071423 0.7223418 -3.036581 255 255 255 255 0.525528 0.538754
-0 0.51 2.71529 -0.09576815 -0.00755471 -3.090998 255 255 255 255 0.521437 0.538115
0.08 0.59 2.71529 -1.133449 4.3157 -2.603711 255 255 255 255 0.525528 0.538115
0.08 0.51 2.69529 -1.163893 -2.892462 -2.864717 255 255 255 255 0.521437 0.536836
0.14 0.6 2.66529 -2.325654 3.619104 -1.388151 255 255 255 255 0.526040 0.534918
0.14 0.52 2.65529 -2.278752 -3.089751 -2.897521 255 255 255 255 0.521948 0.534279
0.18 0.61 2.60529 -2.808239 3.592286 -0.6950455 255 255 255 255 0.526551 0.531083
0.18 0.53 2.59529 -2.865175 -3.284242 -1.769311 255 255 255 255 0.522460 0.530443
0.2 0.62 2.52529 -3.053333 3.617959 0.5356108 255 255 255 255 0.527062 0.525968
0.2 0.54 2.51529 -2.895006 -3.568445 -0.7274169 255 255 255 255 0.522971 0.525329
0.18 0.63 2.45529 -2.920976 3.099351 2.068068 255 255 255 255 0.527574 0.521493
0.18 0.56 2.44529 -3.006338 -3.487377 0.5681875 255 255 255 255 0.523994 0.520854
0.14 0.65 2.39529 -2.070484 2.994611 2.231655 255 255 255 255 0.528597 0.517658
0.14 0.57 2.37529 -2.196674 -4.095748 1.987393 255 255 255 255 0.524505 0.516379
0.08 0.65 2.34529 -1.393071 2.33212 4.976196 255 255 255 255 0.528597 0.514461
0.08 0.57 2.33529 -1.264925 -3.559768 1.329455 255 255 255 255 0.524505 0.513822
-0.4 0.65 2.34529 0.9686146 0.04135072 -0.1385952 255 255 255 255 0.528597 0.514461
-0.4 0.64 2.39529 1.079741 0.2058455 -0.003461659 255 255 255 255 0.528085 0.517658
-0.4 0.63 2.45529 1.099731 0.1997546 0.0674047 255 255 255 255 0.527574 0.521493
-0.4 0.62 2.52529 1.151454 0.2098517 0.02804743 255 255 255 255 0.527062 0.525968
-0.4 0.61 2.60529 1.146295 0.230405 0.0320465 255 255 255 255 0.526551 0.531083
-0.4 0.6 2.66529 1.152095 0.2281508 0.03991899 255 255 255 255 0.526040 0.534918
-0.4 0.59 2.71529 -0.05307364 3.376921 0.03733802 255 255 255 255 0.525528 0.538115
0.4 0.59 2.71529 -1.603857 0.3243682 0.02483159 255 255 255 255 0.525528 0.538115
0.4 0.6 2.66529 -1.559236 0.4249479 0.0819498 255 255 255 255 0.526040 0.534918
0.4 0.61 2.60529 -1.583027 0.4466408 0.06882444 255 255 255 255 0.526551 0.531083
0.4 0.62 2.52529 -1.619483 0.4351312 0.05851939 255 255 255 255 0.527062 0.525968
0.4 0.63 2.45529 -1.636733 0.4406542 0.06803778 255 255 255 255 0.527574 0.521493
0.4 0.64 2.39529 -1.58315 0.4340549 0.1160063 255 255 255 255 0.528085 0.517658
0.4 0.65 2.34529 0.07956934 2.700635 2.401998 255 255 255 255 0.528597 0.514461
-0.24 0.57 2.33529 0 -2.97576 -0.7024815 255 255 255 255 0.524505 0.513822
-0.24 0.57 2.37529 0 -3.125806 -0.2221434 255 255 255 255 0.524505 0.516379
-0.24 0.56 2.44529 0 -3.065368 -0.6536744 255 255 255 255 0.523994 0.520854
-0.24 0.54 2.51529 0 -3.069025 -0.6263654 255 255 255 255 0.522971 0.525329
-0.24 0.53 2.59529 0 -3.10809 -0.4530718 255 255 255 255 0.522460 0.530443
-0.24 0.52 2.65529 0 -3.073321 -0.6392092 255 255 255 255 0.521948 0.534279
-0.24 0.51 2.69529 0 -3.094693 -0.3809719 255 255 255 255 0.521437 0.536836
0.24 0.51 2.69529 0 -3.094693 -0.3809719 255 255 255 255 0.521437 0.536836
0.24 0.52 2.65529 0 -3.073321 -0.6392093 255 255 255 255 0.521948 0.534279
0.24 0.53 2.59529 0 -3.10809 -0.4530718 255 255 255 255 0.522460 0.530443
0.24 0.54 2.51529 0 -3.069025 -0.6263654 255 255 255 255 0.522971 0.525329
0.24 0.56 2.44529 0 -3.065367 -0.6536744 255 255 255 255 0.523994 0.520854
0.24 0.57 2.37529 0 -3.125805 -0.2221434 255 255 255 255 0.524505 0.516379
0.24 0.57 2.33529 0 -2.975759 -0.7024815 255 255 255 255 0.524505 0.513822
-0 -0.66 2.33529 0.07864673 0.3749433 3.094933 255 255 255 255 0.461600 0.513822
-0 -0.58 2.31529 0.09820969 1.163517 2.85055 255 255 255 255 0.465691 0.512543
-0.08 -0.57 2.33529 1.128417 3.575977 1.387032 255 255 255 255 0.466202 0.513822
-0.08 -0.65 2.34529 1.193284 -2.338643 5.057165 255 255 255 255 0.462111 0.514461
-0.14 -0.57 2.37529 2.29552 4.024377 1.916211 255 255 255 255 0.466202 0.516379
-0.14 -0.65 2.39529 2.07792 -2.978596 1.996418 255 255 255 255 0.462111 0.517658
-0.18 -0.56 2.44529 2.986483 3.538177 0.5923948 255 255 255 255 0.466714 0.520854
-0.18 -0.63 2.45529 2.961546 -3.119551 2.200423 255 255 255 255 0.463134 0.521493
-0.2 -0.54 2.51529 2.894246 3.571995 -0.7251208 255 255 255 255 0.467737 0.525329
-0.2 -0.62 2.52529 3.052311 -3.621138 0.5396721 255 255 255 255 0.463645 0.525968
-0.18 -0.53 2.59529 2.865174 3.284243 -1.769312 255 255 255 255 0.468248 0.530443
-0.18 -0.61 2.60529 2.808239 -3.592287 -0.6950465 255 255 255 255 0.464157 0.531083
-0.14 -0.52 2.65529 2.207309 3.166607 -2.960321 255 255 255 255 0.468760 0.534279
-0.14 -0.6 2.66529 2.270813 -3.699523 -1.421621 255 255 255 255 0.464668 0.534918
-0.08 -0.51 2.69529 1.309406 2.898823 -2.801001 255 255 255 255 0.469271 0.536836
-0.08 -0.59 2.71529 1.286284 -4.282382 -2.550041 255 255 255 255 0.465180 0.538115
-0 -0.51 2.71529 -0.09576815 0.00755471 -3.090998 255 255 255 255 0.469271 0.538115
-0 -0.59 2.72529 -0.09071423 -0.7223418 -3.036581 255 255 255 255 0.465180 0.538754
0.08 -0.51 2.69529 -1.163893 2.892462 -2.864717 255 255 255 255 0.469271 0.536836
0.08 -0.59 2.71529 -1.133449 -4.315699 -2.603711 255 255 255 255 0.465180 0.538115
0.14 -0.52 2.65529 -2.278752 3.089751 -2.897521 255 255 255 255 0.468760 0.534279
0.14 -0.6 2.66529 -2.325654 -3.619104 -1.388151 255 255 255 255 0.464668 0.534918
0.18 -0.53 2.59529 -2.865175 3.284242 -1.769311 255 255 255 255 0.468248 0.530443
0.18 -0.61 2.60529 -2.808239 -3.592286 -0.6950454 255 255 255 255 0.464157 0.531083
0.2 -0.54 2.51529 -2.895006 3.568445 -0.7274169 255 255 255 255 0.467737 0.525329
0.2 -0.62 2.52529 -3.053333 -3.617959 0.5356108 255 255 255 255 0.463645 0.525968
0.18 -0.56 2.44529 -3.006338 3.487377 0.5681875 255 255 255 255 0.466714 0.520854
0.18 -0.63 2.45529 -2.920976 -3.099351 2.068068 255 255 255 255 0.463134 0.521493
0.14 -0.57 2.37529 -2.196674 4.095748 1.987393 255 255 255 255 0.466202 0.516379
0.14 -0.65 2.39529 -2.070484 -2.994611 2.231654 255 255 255 255 0.462111 0.517658
0.08 -0.57 2.33529 -1.264925 3.559768 1.329455 255 255 255 255 0.466202 0.513822
0.08 -0.65 2.34529 -1.393071 -2.33212 4.976195 255 255 255 255 0.462111 0.514461
-0.4 -0.65 2.34529 -0.9686146 -5.260669 2.97616 255 255 255 255 0.462111 0.514461
-0.4 -0.64 2.39529 -1.211229 -5.983541 1.061487 255 255 255 255 0.462622 0.517658
-0.4 -0.63 2.45529 -1.20096 -5.995095 0.9664696 255 255 255 255 0.463134 0.521493
-0.4 -0.62 2.52529 -1.151217 -6.01759 0.8059196 255 255 255 255 0.463645 0.525968
-0.4 -0.61 2.60529 -1.146082 -5.985857 0.8741373 255 255 255 255 0.464157 0.531083
-0.4 -0.6 2.66529 -1.152661 -5.951061 1.092604 255 255 255 255 0.464668 0.534918
-0.4 -0.59 2.71529 0.05307364 -2.845256 0.5787824 255 255 255 255 0.465180 0.538115
0.4 -0.59 2.71529 1.603568 -5.89796 0.5912758 255 255 255 255 0.465180 0.538115
0.4 -0.6 2.66529 1.559236 -5.754484 1.050643 255 255 255 255 0.464668 0.534918
0.4 -0.61 2.60529 1.583027 -5.769541 0.8373149 255 255 255 255 0.464157 0.531083
0.4 -0.62 2.52529 1.619472 -5.792224 0.7754538 255 255 255 255 0.463645 0.525968
0.4 -0.63 2.45529 1.636485 -5.768362 0.8927258 255 255 255 255 0.463134 0.521493
0.4 -0.64 2.39529 1.721451 -5.728458 1.088252 255 255 255 255 0.462622 0.517658
0.4 -0.65 2.34529 0.02479136 -2.614157 0.3621268 255 255 255 255 0.462111 0.514461
-0.24 -0.57 2.33529 0 2.97576 -0.7024815 255 255 255 255 0.466202 0.513822
-0.24 -0.57 2.37529 0 3.125806 -0.2221434 255 255 255 255 0.466202 0.516379
-0.24 -0.56 2.44529 0 3.065368 -0.6536744 255 255 255 255 0.466714 0.520854
-0.24 -0.54 2.51529 0 3.069025 -0.6263654 255 255 255 255 0.467737 0.525329
-0.24 -0.53 2.59529 0 3.10809 -0.4530718 255 255 255 255 0.468248 0.530443
-0.24 -0.52 2.65529 0 3.073321 -0.6392093 255 255 255 255 0.468760 0.534279
-0.24 -0.51 2.69529 0 3.094693 -0.3809719 255 255 255 255 0.469271 0.536836
0.24 -0.51 2.69529 0 3.094693 -0.3809719 255 255 255 255 0.469271 0.536836
0.24 -0.52 2.65529 0 3.073321 -0.6392093 255 255 255 255 0.468760 0.534279
0.24 -0.53 2.59529 0 3.10809 -0.4530718 255 255 255 255 0.468248 0.530443
0.24 -0.54 2.51529 0 3.069025 -0.6263654 255 255 255 255 0.467737 0.525329
0.24 -0.56 2.44529 0 3.065367 -0.6536744 255 255 255 255 0.466714 0.520854
0.24 -0.57 2.37529 0 3.125805 -0.2221434 255 255 255 255 0.466202 0.516379
0.24 -0.57 2.33529 0 2.975759 -0.7024815 255 255 255 255 0.466202 0.513822
0.219999 0.09 3.36529 2.865424 1.173274 2.801662 255 255 255 255 0.499957 0.579668
0.239999 0 3.36529 3.066782 -2.980232e-08 2.704255 255 255 255 255 0.495354 0.579668
0.219999 -0.09 3.36529 2.865424 -1.173274 2.801662 255 255 255 255 0.490751 0.579668
-1e-06 0 3.36529 0 0 6.283185 255 255 255 255 0.495354 0.579668
-0.404276 0.598387 2.6647 -1.09845 -0.7705832 -0.1365514 255 255 255 255 0.525957 0.534880
-0.404275 0.60836 2.60486 -1.09172 -0.7777518 -0.1095454 255 255 255 255 0.526467 0.531055
-0.404275 0.757956 1.72723 -3.40073 3.534245 0.2090213 255 255 255 255 0.534118 0.474949
-0.404276 0.568467 2.80432 -2.843824 4.739255 2.444687 255 255 255 255 0.524427 0.543806
-0.404276 0.588413 2.72454 0.9667738 0.943398 0.05220023 255 255 255 255 0.525447 0.538706
-0.404275 -0.757956 1.72723 -3.724671 -6.149054 0.6377211 255 255 255 255 0.456590 0.474949
-0.404275 -0.757956 1.60755 -3.224424 -2.349203 -2.286185 255 255 255 255 0.456590 0.467298
-0.404276 -0.478709 2.88411 -2.870102 -1.684325 4.485912 255 255 255 255 0.470871 0.548907
-0.404276 -0.568467 2.80432 -2.843844 -4.739215 2.44467 255 255 255 255 0.466281 0.543806
-0.404275 -0.638279 2.39543 1.138132 -0.7059633 0.1220684 255 255 255 255 0.462710 0.517666
-0.404275 -0.648252 2.34556 1.229622 -0.2110746 -0.3160433 255 255 255 255 0.462200 0.514478
-0.404276 0.588413 2.71457 0.424947 -0.5817281 -0.1130211 255 255 255 255 0.525447 0.538068
-0.404275 0.618333 2.52508 -1.129919 -0.728272 -0.09746544 255 255 255 255 0.526977 0.525954
-0.404276 -0.588413 2.72454 0.4202613 0.5257889 0.0522047 255 255 255 255 0.465261 0.538706
-0.404275 0.638279 2.39543 -1.138132 -0.7059633 -0.1220684 255 255 255 255 0.527997 0.517666
-0.404275 0.648252 2.34556 -1.229622 -0.2110746 0.3160433 255 255 255 255 0.528507 0.514478
-0.404275 0.628306 2.45527 -1.133853 -0.7209013 -0.108804 255 255 255 255 0.527487 0.521492
-0.404275 -0.658225 2.33559 0.8336817 -0.8491182 0.7702773 255 255 255 255 0.461690 0.513841
-0.404275 -0.628306 2.45527 1.133841 -0.7209202 0.1088137 255 255 255 255 0.463221 0.521492
-0.404276 -0.598386 2.6647 1.097563 -0.7700232 0.1364264 255 255 255 255 0.464751 0.534880
-0.404276 -0.60836 2.60486 1.091973 -0.7778455 0.1095538 255 255 255 255 0.464241 0.531055
-0.404276 -0.588413 2.71457 -0.4249861 -0.5817287 0.1130207 255 255 255 255 0.465261 0.538068
-0.404276 -0.618333 2.52508 1.130172 -0.7283527 0.09749186 255 255 255 255 0.463731 0.525954
-0.404275 0.757956 1.60755 -3.224411 2.34924 -2.286281 255 255 255 255 0.534118 0.467298
-0.404276 0.478709 2.88411 -2.869806 1.68436 4.486004 255 255 255 255 0.519836 0.548907
-0.404275 0.658225 2.33559 -0.8336873 -0.8491109 -0.7702738 255 255 255 255 0.529017 0.513841
-0.40732 0.565573 2.8025 -3.798285 0.8743927 0.8284584 255 255 255 255 0.524279 0.543690
-0.40732 0.476272 2.88187 -4.784444 0.6748393 2.485744 255 255 255 255 0.519712 0.548764
-0.40732 -0.565573 2.8025 -3.798243 -0.8743461 0.8285819 255 255 255 255 0.466429 0.543690
-0.407319 -0.754097 1.73088 -3.692869 -0.5927266 0.02169239 255 255 255 255 0.456787 0.475183
-0.407319 0.754098 1.73088 -7.081519 3.75738 0.5404877 255 255 255 255 0.533921 0.475183
-0.407319 0.654874 2.33615 -2.173486 2.219524 1.466472 255 255 255 255 0.528846 0.513876
-0.407319 0.644952 2.34607 -1.818159 1.80112 0.8026755 255 255 255 255 0.528339 0.514511
-0.40732 -0.476272 2.88187 -4.784411 -0.6749269 2.48572 255 255 255 255 0.470996 0.548764
-0.407319 -0.754097 1.61181 -5.159604 -1.415085 -1.282526 255 255 255 255 0.456787 0.467571
-0.407319 0.754098 1.61181 -5.159377 1.415363 -1.282449 255 255 255 255 0.533921 0.467571
-0.40732 0.585418 2.72312 2.367306 -2.293946 -0.2363555 255 255 255 255 0.525294 0.538615
-0.40732 0.585418 2.71319 -0.3812996 0.279159 0.2352105 255 255 255 255 0.525294 0.537981
-0.40732 -0.615185 2.52467 2.258405 2.14637 -0.2873833 255 255 255 255 0.463892 0.525929
-0.40732 -0.605262 2.60405 2.291233 2.169196 -0.3138816 255 255 255 255 0.464399 0.531003
-0.407319 -0.625107 2.45521 2.254126 2.138754 -0.3293746 255 255 255 255 0.463384 0.521488
-0.40732 -0.585418 2.72312 -0.2863621 -0.4031003 -0.2363667 255 255 255 255 0.465414 0.538615
-0.40732 -0.585418 2.71319 0.3812996 0.279159 -0.2352105 255 255 255 255 0.465414 0.537981
-0.40732 -0.59534 2.66358 2.292099 2.146936 -0.3906195 255 255 255 255 0.464906 0.534809
-0.407319 0.625107 2.45521 -2.254118 2.138747 0.3293909 255 255 255 255 0.527324 0.521488
-0.407319 0.615185 2.52467 -2.258401 2.146385 0.2874014 255 255 255 255 0.526816 0.525929
-0.407319 -0.635029 2.39568 2.243426 2.130927 -0.386385 255 255 255 255 0.462877 0.517682
-0.407319 -0.654874 2.33615 2.173486 2.219524 -1.466471 255 255 255 255 0.461862 0.513876
-0.407319 -0.644952 2.34607 1.818159 1.80112 -0.8026755 255 255 255 255 0.462369 0.514511
-0.407319 0.635029 2.39568 -2.243426 2.130927 0.386385 255 255 255 255 0.527831 0.517682
-0.407319 0.605262 2.60405 -2.291237 2.169214 0.3138494 255 255 255 255 0.526309 0.531003
-0.40732 0.59534 2.66358 -2.292424 2.146589 0.3905563 255 255 255 255 0.525801 0.534809
0.327161 0.537388 2.86344 2.118436 4.124776 4.199334 255 255 255 255 0.522837 0.547585
0.407161 0.566022 2.80529 4.479404 3.71556 1.947598 255 255 255 255 0.524302 0.543868
0.407161 -0.655394 2.33529 -1.610526 2.502164 -1.460141 255 255 255 255 0.461835 0.513822
0.407162 -0.754696 1.72529 3.905349 -1.266459 0.01816261 255 255 255 255 0.456757 0.474825
0.407161 -0.645464 2.34529 0.3961288 -0.6317633 -0.4833459 255 255 255 255 0.462343 0.514461
0.407161 -0.566022 2.80529 3.095853 -1.234848 1.326544 255 255 255 255 0.466406 0.543868
0.407161 -0.585883 2.72529 -0.0411306 0.07154226 -0.3558422 255 255 255 255 0.465390 0.538754
0.407161 0.605743 2.60529 -1.602117 -2.696936 -0.3945261 255 255 255 255 0.526333 0.531083
0.407161 0.595813 2.66529 -1.572967 -2.692492 -0.4944285 255 255 255 255 0.525826 0.534918
0.407162 0.754696 1.72529 5.873175 3.922017 0.4488333 255 255 255 255 0.533951 0.474825
0.407162 0.754696 1.60529 2.50564 1.262327 -2.208229 255 255 255 255 0.533951 0.467154
0.407161 0.585882 2.71529 -1.506964 -2.620556 -0.2500333 255 255 255 255 0.525318 0.538115
0.407161 -0.625604 2.45529 1.622699 -2.64491 0.4061249 255 255 255 255 0.463359 0.521493
0.407161 -0.615673 2.52529 1.609012 -2.664273 0.354431 255 255 255 255 0.463867 0.525968
0.407161 0.645464 2.34529 -0.3961288 -0.6317633 0.4833459 255 255 255 255 0.528365 0.514461
0.407161 0.655394 2.33529 1.610526 2.502164 1.460141 255 255 255 255 0.528873 0.513822
0.407161 0.47665 2.88529 2.778789 0.8011861 2.89416 255 255 255 255 0.519731 0.548983
0.327161 -0.537388 2.86344 2.108062 -4.109551 4.224504 255 255 255 255 0.467870 0.547585
0.407161 -0.47665 2.88529 2.778149 -0.8016 2.894047 255 255 255 255 0.470977 0.548983
0.407161 -0.605743 2.60529 1.602117 -2.696936 0.3945261 255 255 255 255 0.464374 0.531083
0.407161 -0.595813 2.66529 1.572948 -2.692492 0.4944257 255 255 255 255 0.464882 0.534918
0.407161 -0.585883 2.71529 1.5067 -2.620742 0.2500281 255 255 255 255 0.465390 0.538115
0.407161 0.625603 2.45529 -1.622936 -2.644746 -0.4061178 255 255 255 255 0.527349 0.521493
0.407161 0.615673 2.52529 -1.609016 -2.664281 -0.3544148 255 255 255 255 0.526841 0.525968
0.407162 -0.754696 1.60529 2.50564 -1.262327 -2.208236 255 255 255 255 0.456757 0.467154
0.407161 0.635534 2.39529 -1.633358 -2.62081 -0.4758779 255 255 255 255 0.527857 0.517658
0.407161 0.585882 2.72529 0.04115039 0.07155895 0.3558076 255 255 255 255 0.525318 0.538754
0.407161 -0.635534 2.39529 1.633343 -2.62081 0.4758761 255 255 255 255 0.462851 0.517658
3 0 1 2 
3 0 2 3 
3 3 2 4 
3 3 4 5 
3 5 4 6 
3 5 6 7 
3 1 0 7 
3 1 7 6 
3 8 9 10 
3 8 10 11 
3 12 13 9 
3 12 9 8 
3 14 15 16 
3 14 16 17 
3 15 18 19 
3 15 19 16 
3 20 21 22 
3 20 22 23 
3 21 24 25 
3 21 25 22 
3 26 27 28 
3 26 28 29 
3 30 31 27 
3 30 27 26 
3 32 33 1 
3 32 1 6 
3 2 34 35 
3 2 35 4 
3 1 33 34 
3 1 34 2 
3 4 35 32 
3 4 32 6 
3 36 37 33 
3 36 33 32 
3 38 39 40 
3 38 40 41 
3 34 42 43 
3 34 43 35 
3 44 45 46 
3 44 46 47 
3 33 39 45 
3 33 45 34 
3 35 46 38 
3 35 38 32 
3 39 38 46 
3 39 46 45 
3 48 49 3 
3 48 3 5 
3 7 0 50 
3 7 50 51 
3 50 52 53 
3 50 53 51 
3 54 55 56 
3 54 56 57 
3 55 58 59 
3 55 59 56 
3 60 61 49 
3 60 49 48 
3 62 63 64 
3 62 64 65 
3 66 67 63 
3 66 63 62 
3 68 59 58 
3 68 58 69 
3 69 70 71 
3 69 71 68 
3 70 67 66 
3 70 66 71 
3 72 73 74 
3 72 74 75 
3 75 74 76 
3 75 76 77 
3 77 76 78 
3 77 78 79 
3 79 78 80 
3 79 80 81 
3 81 80 82 
3 81 82 83 
3 83 82 84 
3 83 84 85 
3 85 84 86 
3 85 86 87 
3 87 86 88 
3 87 88 89 
3 89 88 90 
3 89 90 91 
3 91 90 92 
3 91 92 93 
3 93 92 94 
3 93 94 95 
3 95 94 96 
3 95 96 97 
3 97 96 98 
3 97 98 99 
3 99 98 100 
3 99 100 101 
3 101 100 102 
3 101 102 103 
3 103 102 73 
3 103 73 72 
3 104 105 101 
3 104 101 103 
3 106 104 103 
3 106 103 72 
3 107 106 72 
3 107 72 75 
3 108 107 75 
3 108 75 77 
3 109 108 77 
3 109 77 79 
3 110 109 79 
3 110 79 81 
3 111 110 81 
3 111 81 83 
3 112 111 83 
3 112 83 85 
3 113 112 85 
3 113 85 87 
3 114 113 87 
3 114 87 89 
3 115 114 89 
3 115 89 91 
3 116 115 91 
3 116 91 93 
3 117 118 119 
3 117 119 120 
3 118 121 122 
3 118 122 119 
3 121 123 124 
3 121 124 122 
3 123 125 126 
3 123 126 124 
3 125 127 128 
3 125 128 126 
3 127 129 130 
3 127 130 128 
3 129 131 132 
3 129 132 130 
3 131 133 134 
3 131 134 132 
3 133 135 136 
3 133 136 134 
3 135 137 138 
3 135 138 136 
3 137 139 140 
3 137 140 138 
3 139 141 142 
3 139 142 140 
3 141 143 144 
3 141 144 142 
3 143 145 146 
3 143 146 144 
3 145 147 148 
3 145 148 146 
3 147 117 120 
3 147 120 148 
3 117 60 149 
3 117 149 118 
3 118 149 150 
3 118 150 121 
3 121 150 151 
3 121 151 123 
3 123 151 152 
3 123 152 125 
3 125 152 153 
3 125 153 127 
3 127 153 154 
3 127 154 129 
3 129 154 155 
3 129 155 131 
3 131 155 65 
3 131 65 133 
3 133 64 156 
3 133 156 135 
3 135 156 157 
3 135 157 137 
3 137 157 158 
3 137 158 139 
3 139 158 159 
3 139 159 141 
3 141 159 160 
3 141 160 143 
3 143 160 161 
3 143 161 145 
3 145 161 162 
3 145 162 147 
3 147 162 61 
3 147 61 117 
3 163 43 120 
3 163 120 119 
3 164 163 119 
3 164 119 122 
3 165 164 122 
3 165 122 124 
3 166 165 124 
3 166 124 126 
3 167 166 126 
3 167 126 128 
3 168 167 128 
3 168 128 130 
3 169 168 130 
3 169 130 132 
3 47 169 132 
3 47 132 134 
3 170 44 134 
3 170 134 136 
3 171 170 136 
3 171 136 138 
3 172 171 138 
3 172 138 140 
3 173 172 140 
3 173 140 142 
3 174 173 142 
3 174 142 144 
3 175 174 144 
3 175 144 146 
3 176 175 146 
3 176 146 148 
3 42 176 148 
3 42 148 120 
3 177 178 179 
3 177 179 180 
3 180 179 181 
3 180 181 182 
3 182 181 183 
3 182 183 184 
3 184 183 185 
3 184 185 186 
3 186 185 187 
3 186 187 188 
3 188 187 189 
3 188 189 190 
3 190 189 191 
3 190 191 192 
3 192 191 193 
3 192 193 194 
3 194 193 195 
3 194 195 196 
3 196 195 197 
3 196 197 198 
3 198 197 199 
3 198 199 200 
3 200 199 201 
3 200 201 202 
3 202 201 203 
3 202 203 204 
3 204 203 205 
3 204 205 206 
3 206 205 207 
3 206 207 208 
3 208 207 178 
3 208 178 177 
3 209 53 177 
3 209 177 180 
3 210 209 180 
3 210 180 182 
3 211 210 182 
3 211 182 184 
3 212 211 184 
3 212 184 186 
3 213 212 186 
3 213 186 188 
3 214 213 188 
3 214 188 190 
3 215 214 190 
3 215 190 192 
3 57 215 192 
3 57 192 194 
3 216 54 194 
3 216 194 196 
3 217 216 196 
3 217 196 198 
3 218 217 198 
3 218 198 200 
3 219 218 200 
3 219 200 202 
3 220 219 202 
3 220 202 204 
3 221 220 204 
3 221 204 206 
3 222 221 206 
3 222 206 208 
3 52 222 208 
3 52 208 177 
3 178 36 223 
3 178 223 179 
3 179 223 224 
3 179 224 181 
3 181 224 225 
3 181 225 183 
3 183 225 226 
3 183 226 185 
3 185 226 227 
3 185 227 187 
3 187 227 228 
3 187 228 189 
3 189 228 229 
3 189 229 191 
3 191 229 41 
3 191 41 193 
3 193 40 230 
3 193 230 195 
3 195 230 231 
3 195 231 197 
3 197 231 232 
3 197 232 199 
3 199 232 233 
3 199 233 201 
3 201 233 234 
3 201 234 203 
3 203 234 235 
3 203 235 205 
3 205 235 236 
3 205 236 207 
3 207 236 37 
3 207 37 178 
3 101 105 237 
3 101 237 99 
3 99 237 238 
3 99 238 97 
3 97 238 239 
3 97 239 95 
3 95 239 116 
3 95 116 93 
3 13 10 9 
3 14 18 15 
3 20 24 21 
3 31 28 27 
3 62 71 66 
3 68 56 59 
3 240 106 107 
3 240 107 108 
3 240 108 109 
3 240 109 110 
3 240 110 111 
3 240 111 112 
3 240 112 113 
3 240 113 114 
3 240 114 115 
3 240 115 116 
3 240 116 239 
3 240 239 238 
3 240 238 237 
3 240 237 105 
3 240 105 104 
3 240 104 106 
3 153 154 241 
3 153 241 242 
3 62 48 243 
3 62 243 244 
3 62 65 245 
3 62 245 244 
3 7 51 246 
3 7 246 247 
3 56 68 248 
3 56 248 249 
3 209 210 250 
3 209 250 251 
3 154 155 252 
3 154 252 241 
3 152 153 242 
3 152 242 253 
3 57 56 249 
3 57 249 254 
3 149 150 255 
3 149 255 256 
3 150 151 257 
3 150 257 255 
3 51 53 258 
3 51 258 246 
3 53 209 251 
3 53 251 258 
3 210 211 259 
3 210 259 250 
3 151 152 253 
3 151 253 257 
3 213 214 260 
3 213 260 261 
3 214 215 262 
3 214 262 260 
3 57 215 262 
3 57 262 254 
3 211 212 263 
3 211 263 259 
3 212 213 261 
3 212 261 263 
3 48 5 264 
3 48 264 243 
3 65 155 252 
3 65 252 245 
3 5 7 247 
3 5 247 264 
3 68 71 265 
3 68 265 248 
3 60 149 256 
3 60 256 266 
3 48 60 266 
3 48 266 243 
3 51 56 249 
3 51 249 246 
3 71 62 244 
3 71 244 265 
3 265 244 267 
3 265 267 268 
3 246 249 269 
3 246 269 270 
3 266 243 271 
3 266 271 272 
3 256 266 272 
3 256 272 273 
3 248 265 268 
3 248 268 274 
3 264 247 275 
3 264 275 276 
3 252 245 277 
3 252 277 278 
3 243 264 276 
3 243 276 271 
3 261 263 279 
3 261 279 280 
3 263 259 281 
3 263 281 279 
3 262 254 282 
3 262 282 283 
3 262 260 284 
3 262 284 283 
3 260 261 280 
3 260 280 284 
3 253 257 285 
3 253 285 286 
3 259 250 287 
3 259 287 281 
3 251 258 288 
3 251 288 289 
3 258 246 270 
3 258 270 288 
3 257 255 290 
3 257 290 285 
3 255 256 273 
3 255 273 290 
3 249 254 282 
3 249 282 269 
3 242 253 286 
3 242 286 291 
3 252 241 292 
3 252 292 278 
3 250 251 289 
3 250 289 287 
3 249 248 274 
3 249 274 269 
3 247 246 270 
3 247 270 275 
3 245 244 267 
3 245 267 277 
3 244 243 271 
3 244 271 267 
3 241 242 291 
3 241 291 292 
3 270 271 276 
3 270 276 275 
3 271 270 269 
3 271 269 267 
3 267 269 274 
3 267 274 268 
3 63 67 293 
3 63 293 294 
3 50 52 295 
3 50 295 296 
3 52 222 297 
3 52 297 295 
3 54 55 298 
3 54 298 299 
3 157 158 300 
3 157 300 301 
3 3 49 302 
3 3 302 303 
3 156 157 301 
3 156 301 304 
3 219 220 305 
3 219 305 306 
3 61 162 307 
3 61 307 308 
3 67 70 309 
3 67 309 293 
3 49 63 294 
3 49 294 302 
3 69 58 310 
3 69 310 311 
3 58 55 298 
3 58 298 310 
3 218 219 306 
3 218 306 312 
3 55 50 296 
3 55 296 298 
3 216 217 313 
3 216 313 314 
3 159 160 315 
3 159 315 316 
3 158 159 316 
3 158 316 300 
3 217 218 312 
3 217 312 313 
3 0 3 303 
3 0 303 317 
3 70 69 311 
3 70 311 309 
3 49 61 308 
3 49 308 302 
3 160 161 318 
3 160 318 315 
3 64 63 294 
3 64 294 319 
3 161 162 307 
3 161 307 318 
3 221 222 297 
3 221 297 320 
3 220 221 320 
3 220 320 305 
3 64 156 304 
3 64 304 319 
3 50 0 317 
3 50 317 296 
3 54 216 314 
3 54 314 299 
3 317 303 302 
3 317 302 296 
3 294 298 296 
3 294 296 302 
3 309 311 298 
3 309 298 294 
3 298 311 310 
3 309 294 293 
