ply
format ascii 1.0
comment VCGLIB generated
element vertex 36
property float x
property float y
property float z
property float nx
property float ny
property float nz
property uchar red
property uchar green
property uchar blue
property uchar alpha
property float texture_u
property float texture_v
element face 12
property list uchar int vertex_indices
end_header
1 -1 -1 -0 -0 -1 107 118 178 255 0.003906 0.676097
-1 1 -1 -0 -0 -1 107 118 178 255 0.323903 0.996094
1 1 -1 -0 -0 -1 107 118 178 255 0.003906 0.996094
-1 1 1 0 0 1 112 178 107 255 0.329427 0.990569
0.999999 -1.000001 1 0 0 1 112 178 107 255 0.009431 0.670573
1 0.999999 1 0 0 1 112 178 107 255 0.329427 0.670573
1 0.999999 1 1 0 -0 178 107 124 255 0.337240 0.676097
1 -1 -1 1 0 -0 178 107 124 255 0.657236 0.996094
1 1 -1 1 0 -0 178 107 124 255 0.337240 0.996094
0.999999 -1.000001 1 -0 -1 -0 178 175 107 255 0.662760 0.990569
-1 -1 -1 -0 -1 -0 178 175 107 255 0.342764 0.670573
1 -1 -1 -0 -1 -0 178 175 107 255 0.662760 0.670573
-1 -1 -1 -1 0 -0 164 107 178 255 0.670573 0.676097
-1 1 1 -1 0 -0 164 107 178 255 0.990569 0.996094
-1 1 -1 -1 0 -0 164 107 178 255 0.670573 0.996094
1 1 -1 0 1 0 107 178 169 255 0.996094 0.990569
-1 1 1 0 1 0 107 178 169 255 0.676097 0.670573
1 0.999999 1 0 1 0 107 178 169 255 0.996094 0.670573
-1 -1 -1 0 -0 -1 178 141 107 255 0.003906 0.662760
-1 -1 1 0 -0 1 129 107 178 255 0.329427 0.337240
1 0.999999 1 1 -1e-06 0 107 178 135 255 0.657236 0.662760
0.999999 -1.000001 1 1 -1e-06 0 107 178 135 255 0.337240 0.662760
1 -1 -1 1 -1e-06 0 107 178 135 255 0.337240 0.342764
-1 -1 1 -0 -1 0 147 178 107 255 0.662760 0.337240
-1 -1 1 -1 0 -0 178 107 158 255 0.670573 0.662760
-1 1 -1 0 1 0 107 152 178 255 0.996094 0.337240
1 -1 -1 -0 -0 -1 178 141 107 255 0.323903 0.662760
-1 1 -1 -0 -0 -1 178 141 107 255 0.003906 0.342764
-1 1 1 0 0 1 129 107 178 255 0.009431 0.337240
0.999999 -1.000001 1 0 0 1 129 107 178 255 0.329427 0.657236
0.999999 -1.000001 1 -0 -1 -0 147 178 107 255 0.342764 0.337240
-1 -1 -1 -0 -1 -0 147 178 107 255 0.662760 0.657236
-1 -1 -1 -1 0 -0 178 107 158 255 0.990569 0.662760
-1 1 1 -1 0 -0 178 107 158 255 0.670573 0.342764
1 1 -1 0 1 0 107 152 178 255 0.676097 0.337240
-1 1 1 0 1 0 107 152 178 255 0.996094 0.657236
3 0 1 2 
3 3 4 5 
3 6 7 8 
3 9 10 11 
3 12 13 14 
3 15 16 17 
3 26 18 27 
3 28 19 29 
3 20 21 22 
3 30 23 31 
3 32 24 33 
3 34 25 35 
